<svg width="2168" height="496" viewBox="0 0 2168 496" fill="none" xmlns="http://www.w3.org/2000/svg">
<path d="M2166.73 472.961V495.161H2144.56L2144.76 493.961C2145.57 488.8 2148.03 483.899 2151.77 480.166C2155.47 476.434 2160.37 473.967 2165.53 473.156L2166.73 472.961ZM2164.62 493.052V475.46C2160.34 476.369 2156.34 478.543 2153.23 481.659C2150.11 484.775 2147.94 488.767 2147.03 493.052H2164.59H2164.62Z" fill="white" fill-opacity="0.36"/>
<path d="M1750.41 468.938L1750.02 470.593C1749.24 473.936 1748.85 477.376 1748.85 480.817V495.65H1708.64V470.528H1738.56C1742.03 470.528 1745.44 470.138 1748.75 469.359L1750.41 468.97V468.938ZM1746.74 493.54V480.817C1746.74 477.766 1747.03 474.715 1747.62 471.729C1744.66 472.313 1741.61 472.605 1738.56 472.605H1710.75V493.54H1746.74Z" fill="white" fill-opacity="0.36"/>
<path d="M1672.41 470.723H1697.31V495.65H1672.41V470.723ZM1695.2 472.832H1674.49V493.54H1695.2V472.832Z" fill="white" fill-opacity="0.36"/>
<path d="M1.52535 473.124C6.686 473.936 11.587 476.435 15.2871 480.135C18.9872 483.868 21.4863 488.736 22.2978 493.929L22.4925 495.13H0.291992V472.93L1.4929 473.124H1.52535ZM19.9933 493.02C19.0845 488.736 16.9099 484.712 13.7941 481.628C10.6782 478.545 6.686 476.338 2.40169 475.429V493.02H19.9609H19.9933Z" fill="white" fill-opacity="0.36"/>
<path d="M418.274 469.326C421.584 470.105 425.025 470.495 428.465 470.495H458.39V495.616H418.176V480.784C418.176 477.343 417.787 473.903 417.008 470.56L416.618 468.904L418.274 469.294V469.326ZM456.281 493.539V472.604H428.465C425.414 472.604 422.363 472.312 419.41 471.728C419.994 474.714 420.286 477.765 420.286 480.816V493.539H456.281Z" fill="white" fill-opacity="0.36"/>
<path d="M494.644 495.616H469.75V470.689H494.644V495.616ZM471.859 493.507H492.567V472.799H471.859V493.507Z" fill="white" fill-opacity="0.36"/>
<path d="M2031.19 359.557H2053.36L2053.16 360.758C2052.35 365.918 2049.89 370.819 2046.15 374.552C2042.42 378.284 2037.55 380.751 2032.39 381.562L2031.19 381.757V359.557ZM2050.86 361.666H2033.3V379.258C2037.59 378.349 2041.58 376.175 2044.69 373.059C2047.81 369.943 2049.98 365.951 2050.89 361.666H2050.86Z" fill="white" fill-opacity="0.36"/>
<path d="M2166.73 456.928V461.569L2165.79 461.666C2161.64 462.056 2157.64 463.159 2153.91 464.945L2147.42 468.028L2152.77 463.224C2156.38 459.979 2160.79 457.901 2165.53 457.155L2166.73 456.96V456.928ZM2164.62 459.654V459.394C2163.88 459.557 2163.16 459.751 2162.45 459.979C2163.16 459.849 2163.88 459.751 2164.62 459.654Z" fill="white" fill-opacity="0.36"/>
<path d="M2166.92 400.291V445.503L2165.98 445.601C2147.25 447.353 2133.14 462.868 2133.14 481.758V495.552H2077.63L2149.79 423.27C2155.66 417.363 2160.79 410.775 2164.98 403.634L2166.92 400.291ZM2164.81 443.621V407.886C2160.92 413.955 2156.37 419.635 2151.25 424.763L2082.7 493.442H2131.03V481.758C2131.03 462.121 2145.5 445.86 2164.81 443.588V443.621Z" fill="white" fill-opacity="0.36"/>
<path d="M2136.94 359.557H2166.96L2166.86 360.693C2165.31 381.205 2156.41 400.582 2141.77 415.253L2061.61 495.551H2031.55L2031.65 494.415C2032.43 484.418 2034.89 474.714 2038.98 465.626C2043.3 456.051 2049.27 447.385 2056.77 439.887L2136.94 359.589V359.557ZM2164.69 361.666H2137.81L2058.26 441.348C2050.96 448.683 2045.12 457.122 2040.9 466.47C2037.07 475.006 2034.67 484.061 2033.82 493.441H2060.73L2140.28 413.76C2154.3 399.706 2162.94 381.27 2164.69 361.666Z" fill="white" fill-opacity="0.36"/>
<path d="M2064.78 359.557H2120.87L2048.72 431.806C2042.65 437.908 2037.42 444.756 2033.14 452.189L2031.19 455.597V409.183L2032.13 409.086C2050.76 407.268 2064.78 391.721 2064.78 372.929V359.557ZM2115.77 361.666H2066.86V372.929C2066.86 392.468 2052.48 408.696 2033.27 411.066V447.872C2037.23 441.543 2041.9 435.668 2047.23 430.345L2115.77 361.699V361.666Z" fill="white" fill-opacity="0.36"/>
<path d="M2050.5 386.724L2045.15 391.527C2041.55 394.773 2037.13 396.85 2032.39 397.597L2031.19 397.792V393.15L2032.13 393.053C2036.29 392.631 2040.28 391.56 2044.01 389.775L2050.5 386.691V386.724ZM2033.27 395.325C2034.02 395.163 2034.73 394.968 2035.44 394.741C2034.73 394.871 2034.02 394.968 2033.27 395.065V395.325Z" fill="white" fill-opacity="0.36"/>
<path d="M1583.58 419.082L1582.74 422.036C1581.34 426.872 1579.36 431.253 1576.83 435.051C1573.62 439.854 1569.43 443.879 1564.37 446.963C1554.24 453.194 1543.76 453.649 1543.3 453.681H1493.71V432.844H1543.63C1561.12 432.844 1573.65 426.352 1581.08 420.932L1583.55 419.115L1583.58 419.082ZM1543.27 451.539C1543.66 451.539 1553.59 451.085 1563.26 445.145C1568.03 442.224 1572.03 438.426 1575.08 433.882C1576.96 431.059 1578.55 427.878 1579.78 424.373C1571.9 429.533 1559.82 434.921 1543.63 434.921H1495.82V451.539H1543.27Z" fill="white" fill-opacity="0.36"/>
<path d="M1493.74 367.672L1547.36 421.388L1544.89 421.453C1544.47 421.453 1544.08 421.453 1543.66 421.453H1493.74V367.672ZM1542.33 419.343L1495.82 372.735V419.343H1542.33Z" fill="white" fill-opacity="0.36"/>
<path d="M1602.44 359.623H1629.47V386.692L1627.56 383.803C1624.38 379 1620.61 374.521 1616.39 370.464C1612.99 367.185 1609.25 364.167 1605.36 361.57L1602.47 359.655L1602.44 359.623ZM1627.36 361.733H1609.25C1612.27 363.94 1615.13 366.342 1617.82 368.938C1621.33 372.314 1624.54 375.981 1627.36 379.876V361.733Z" fill="white" fill-opacity="0.36"/>
<path d="M1501.75 359.623H1558.81L1561.6 359.72C1591.08 359.72 1617.01 378.513 1626.06 406.523L1626.19 406.978L1616.07 424.732C1615.9 425.024 1611.62 432.132 1602.82 439.207C1596.3 444.433 1588.97 448.295 1581.08 450.729L1577.05 451.963L1580.01 448.977C1583.29 445.666 1586.11 441.901 1588.41 437.779C1593.83 428.14 1596.56 416.26 1596.56 402.466V381.012L1585.98 399.642C1585.62 400.227 1582.47 405.322 1576.02 410.483C1571.6 414.021 1566.67 416.715 1561.41 418.565L1560.79 418.792L1501.75 359.623ZM1598.61 373.19C1587.96 365.952 1575.17 361.83 1561.57 361.83L1558.75 361.733H1506.78L1561.31 416.358C1566.12 414.605 1570.63 412.073 1574.68 408.86C1580.95 403.862 1584.03 398.831 1584.16 398.604L1598.57 373.19H1598.61ZM1623.92 406.75C1619.28 392.762 1610.26 381.142 1598.67 373.255V402.499C1598.67 416.65 1595.85 428.854 1590.26 438.818C1588.54 441.869 1586.56 444.725 1584.32 447.386C1590.49 445.05 1596.27 441.739 1601.49 437.584C1609.97 430.801 1614.02 424.05 1614.25 423.693L1623.92 406.783V406.75ZM1628.79 418.532C1629.05 420.577 1629.24 422.622 1629.34 424.667L1629.5 428.334V495.617H1594.61L1597.31 493.702C1605.19 488.087 1611.59 480.914 1616.39 472.411C1623.24 460.174 1626.75 445.05 1626.75 427.49V418.63L1628.82 418.5L1628.79 418.532ZM1627.39 493.54V446.088C1625.74 456.312 1622.69 465.465 1618.21 473.482C1613.8 481.336 1608.05 488.087 1601.07 493.54H1627.39Z" fill="white" fill-opacity="0.36"/>
<path d="M1614.06 444.56L1613.44 447.546C1611.78 455.66 1608.99 462.865 1605.2 469.032C1600.75 476.205 1594.78 482.145 1587.41 486.624C1574.33 494.608 1560.76 495.452 1559.24 495.517H1493.71V465.137H1559.76C1583.64 465.137 1600.3 455.757 1610.03 447.903C1610.62 447.448 1611.17 446.994 1611.72 446.507L1614.02 444.527L1614.06 444.56ZM1559.2 493.44C1560.6 493.375 1573.68 492.564 1586.31 484.839C1593.38 480.522 1599.13 474.81 1603.38 467.929C1606.59 462.736 1609.06 456.764 1610.68 450.077C1600.59 458.029 1583.71 467.28 1559.72 467.28H1495.78V493.44H1559.17H1559.2Z" fill="white" fill-opacity="0.36"/>
<path d="M1783.06 396.333H1808.18V436.19H1793.35C1789.91 436.19 1786.5 436.58 1783.16 437.359L1781.5 437.748L1781.89 436.093C1782.67 432.782 1783.06 429.342 1783.06 425.869V396.301V396.333ZM1806.07 398.443H1785.17V425.901C1785.17 428.952 1784.88 432.003 1784.29 434.989C1787.28 434.405 1790.33 434.113 1793.35 434.113H1806.07V398.443Z" fill="white" fill-opacity="0.36"/>
<path d="M1742.04 396.138H1771.7V425.901C1771.7 433.788 1768.88 441.448 1763.78 447.452L1763.68 447.55C1762.45 448.653 1761.32 449.789 1760.18 451.055L1760.08 451.152C1754.08 456.313 1746.45 459.137 1738.56 459.137H1708.87V429.374C1708.87 421.292 1711.82 413.502 1717.17 407.4L1717.27 407.303C1718.21 406.459 1719.15 405.518 1720.03 404.544L1720.13 404.447C1726.2 399.059 1733.99 396.105 1742.07 396.105L1742.04 396.138ZM1769.62 398.248H1742.04C1734.51 398.248 1727.2 401.006 1721.52 406.005C1720.61 407.011 1719.67 407.952 1718.7 408.829C1713.7 414.541 1710.94 421.811 1710.94 429.374V457.027H1738.53C1745.87 457.027 1753.01 454.398 1758.62 449.594C1759.79 448.296 1760.96 447.128 1762.19 446.024C1766.96 440.409 1769.56 433.269 1769.56 425.868V398.215L1769.62 398.248Z" fill="white" fill-opacity="0.36"/>
<path d="M1731.71 359.654H1771.57V384.776H1742.07C1738.59 384.776 1735.15 385.165 1731.81 385.977L1730.15 386.366L1730.54 384.711C1731.32 381.368 1731.75 377.928 1731.75 374.455V359.654H1731.71ZM1769.46 361.764H1733.82V374.455C1733.82 377.538 1733.53 380.589 1732.95 383.575C1735.93 382.991 1739.02 382.666 1742.07 382.666H1769.46V361.732V361.764Z" fill="white" fill-opacity="0.36"/>
<path d="M1699.09 417.461L1698.7 419.116C1697.92 422.459 1697.5 425.9 1697.5 429.373V459.363H1672.38V419.051H1687.15C1690.62 419.051 1694.06 418.662 1697.41 417.85L1699.06 417.461H1699.09ZM1695.43 457.253V429.373C1695.43 426.289 1695.72 423.238 1696.33 420.252C1693.35 420.836 1690.26 421.161 1687.21 421.161H1674.52V457.253H1695.43Z" fill="white" fill-opacity="0.36"/>
<path d="M1672.41 359.654H1720.38V374.455C1720.38 382.569 1717.43 390.359 1712.11 396.395C1711.07 397.369 1710.13 398.31 1709.22 399.284L1709.15 399.349C1703.12 404.704 1695.3 407.658 1687.21 407.658H1672.45V359.654H1672.41ZM1718.27 361.764H1674.52V405.581H1687.21C1694.78 405.581 1702.08 402.822 1707.73 397.824C1708.64 396.85 1709.61 395.876 1710.62 394.935C1715.55 389.352 1718.31 382.05 1718.31 374.455V361.764H1718.27Z" fill="white" fill-opacity="0.36"/>
<path d="M1782.9 359.654H1808.18V384.971H1782.9V359.654ZM1806.07 361.764H1785.01V382.893H1806.07V361.764Z" fill="white" fill-opacity="0.36"/>
<path d="M1793.35 447.547H1808.18V495.616H1760.21V480.783C1760.21 472.863 1763.03 465.203 1768.13 459.199L1768.23 459.102C1769.43 458.03 1770.63 456.862 1771.73 455.596L1771.83 455.499C1777.83 450.371 1785.46 447.547 1793.35 447.547ZM1806.07 449.657H1793.35C1785.98 449.657 1778.84 452.286 1773.26 457.057C1772.12 458.323 1770.92 459.523 1769.69 460.627C1764.92 466.242 1762.32 473.415 1762.32 480.783V493.506H1806.1V449.657H1806.07Z" fill="white" fill-opacity="0.36"/>
<path d="M1396.27 398.701L1411.82 414.28L1409.45 414.41C1403.83 414.702 1398.45 416.098 1393.42 418.565L1390.66 419.928L1392.02 417.169C1394.49 412.138 1395.88 406.718 1396.17 401.071L1396.3 398.701H1396.27ZM1407.05 412.495L1398.09 403.505C1397.67 407.659 1396.66 411.684 1395.07 415.546C1398.9 413.956 1402.93 412.95 1407.08 412.528L1407.05 412.495ZM1375.79 434.826L1374.43 437.585C1371.83 442.875 1370.44 448.522 1370.24 454.43L1370.18 456.864L1353.79 440.441L1356.22 440.376C1362.13 440.181 1367.77 438.785 1373.03 436.189L1375.79 434.826ZM1368.29 451.995C1368.68 447.581 1369.72 443.297 1371.38 439.24C1367.29 440.928 1363.04 441.966 1358.62 442.356L1368.29 452.028V451.995Z" fill="white" fill-opacity="0.36"/>
<path d="M1373.23 359.525H1451.35V437.779L1444.89 431.288C1442.39 427.847 1439.37 424.796 1435.9 422.297L1435.77 422.2L1388.22 374.553C1385.72 371.113 1382.7 368.062 1379.26 365.53L1379.13 365.433L1373.19 359.525H1373.23ZM1449.24 361.635H1378.32L1380.59 363.907C1384.16 366.536 1387.31 369.684 1389.91 373.255L1437.23 420.674C1440.8 423.303 1443.95 426.452 1446.55 430.022L1449.24 432.716V361.635Z" fill="white" fill-opacity="0.36"/>
<path d="M1315.62 418.24L1392.77 495.552H1315.62V418.24ZM1387.7 493.443L1317.73 423.336V493.443H1387.7Z" fill="white" fill-opacity="0.36"/>
<path d="M1411.56 425.705C1417.6 425.705 1423.44 427.49 1428.37 430.898L1428.53 431.028L1451.35 453.878V495.552H1408.83L1393.48 480.168L1393.55 480.07L1391.6 478.155C1390.75 477.376 1389.94 476.565 1389.16 475.721C1384.26 470.203 1381.6 463.128 1381.6 455.76C1381.6 439.207 1395.04 425.738 1411.59 425.738L1411.56 425.705ZM1427.11 432.586C1422.53 429.47 1417.14 427.815 1411.56 427.815C1396.17 427.815 1383.68 440.343 1383.68 455.728C1383.68 462.576 1386.18 469.165 1390.72 474.293C1391.47 475.104 1392.22 475.851 1393.03 476.597L1396.24 479.778L1396.17 479.876L1398.48 482.213L1409.68 493.41H1449.24V454.722L1427.11 432.553V432.586Z" fill="white" fill-opacity="0.36"/>
<path d="M1315.61 359.525H1357.19L1371.31 373.774C1371.31 373.774 1371.63 374.066 1371.8 374.196L1371.93 374.293L1379.68 382.115C1383.06 387.114 1384.84 392.924 1384.84 398.961C1384.84 415.514 1371.41 428.983 1354.85 428.983C1347.49 428.983 1340.38 426.289 1334.89 421.356C1334.18 420.707 1333.5 420.025 1332.85 419.311L1332.56 418.986V419.051L1315.58 402.076V359.525H1315.61ZM1356.35 361.635H1317.72V401.233L1332.33 415.871L1332.43 415.708L1334.44 417.915C1335.05 418.597 1335.67 419.214 1336.32 419.798C1341.42 424.374 1348.04 426.873 1354.89 426.873C1370.27 426.873 1382.77 414.345 1382.77 398.961C1382.77 393.345 1381.11 387.958 1378.03 383.381L1370.5 375.819C1370.24 375.624 1370.01 375.429 1369.82 375.202L1368.81 374.131L1356.35 361.635Z" fill="white" fill-opacity="0.36"/>
<path d="M135.866 381.757L134.665 381.562C129.504 380.751 124.603 378.252 120.903 374.552C117.203 370.852 114.704 365.951 113.892 360.758L113.698 359.557H135.866V381.757ZM122.396 373.059C125.512 376.175 129.504 378.349 133.788 379.258V361.666H116.229C117.138 365.951 119.313 369.975 122.428 373.059H122.396Z" fill="white" fill-opacity="0.36"/>
<path d="M1.52415 457.122C6.29531 457.868 10.7095 459.978 14.2797 463.191L19.6351 467.995L13.1438 464.911C9.41117 463.126 5.41898 462.055 1.2645 461.633L0.323242 461.536V456.895L1.52415 457.089V457.122ZM4.5751 460.01C3.86105 459.783 3.14699 459.588 2.40049 459.426V459.686C3.11454 459.783 3.86105 459.881 4.5751 460.01Z" fill="white" fill-opacity="0.36"/>
<path d="M2.07827 403.634C6.2652 410.775 11.3934 417.396 17.268 423.27L89.4197 495.552H33.9184V481.758C33.9184 462.868 19.7997 447.321 1.0721 445.601L0.130859 445.503V400.291L2.07827 403.634ZM36.0281 481.79V493.475H84.3564L15.8075 424.796C10.6793 419.668 6.13538 413.988 2.24055 407.918V443.653C21.5848 445.925 36.0281 462.154 36.0281 481.823V481.79Z" fill="white" fill-opacity="0.36"/>
<path d="M110.289 439.887C117.787 447.385 123.759 456.051 128.076 465.626C132.165 474.746 134.632 484.418 135.411 494.415L135.508 495.551H105.453L25.2851 415.253C10.6471 400.582 1.75393 381.205 0.196003 360.693L0.0986328 359.557H30.1212L110.289 439.855V439.887ZM26.7781 413.76L106.33 493.441H133.237C132.393 484.094 129.991 475.038 126.161 466.47C121.942 457.122 116.132 448.651 108.796 441.348L29.2449 361.666H2.37061C4.12328 381.27 12.7568 399.706 26.7781 413.76Z" fill="white" fill-opacity="0.36"/>
<path d="M102.239 372.929C102.239 391.689 116.293 407.236 134.89 409.086L135.832 409.183V455.597L133.884 452.189C129.632 444.756 124.374 437.908 118.305 431.806L46.1533 359.557H102.239V372.929ZM119.798 430.313C125.088 435.636 129.762 441.51 133.754 447.839V411.033C114.54 408.664 100.162 392.435 100.162 372.896V361.634H51.249L119.798 430.28V430.313Z" fill="white" fill-opacity="0.36"/>
<path d="M123.013 389.776C126.745 391.528 130.738 392.632 134.892 393.054L135.833 393.151V397.792L134.632 397.598C129.861 396.851 125.447 394.741 121.877 391.528L116.521 386.725L123.013 389.808V389.776ZM133.756 395.034C133.042 394.936 132.296 394.839 131.581 394.709C132.296 394.936 133.01 395.131 133.756 395.293V395.034Z" fill="white" fill-opacity="0.36"/>
<path d="M585.912 420.868C593.345 426.32 605.906 432.779 623.368 432.779H673.286V453.617H623.692C623.238 453.617 612.787 453.13 602.628 446.898C597.597 443.815 593.377 439.822 590.164 434.986C587.632 431.189 585.653 426.84 584.257 421.971L583.413 419.018L585.88 420.835L585.912 420.868ZM671.209 451.507V434.889H623.4C607.204 434.889 595.13 429.501 587.243 424.341C588.476 427.813 590.067 430.994 591.949 433.85C595 438.394 598.96 442.192 603.764 445.113C613.436 451.052 623.4 451.507 623.757 451.507H671.209Z" fill="white" fill-opacity="0.36"/>
<path d="M673.318 421.453H623.4C622.978 421.453 622.588 421.453 622.166 421.453L619.7 421.388L673.318 367.672V421.453ZM671.209 419.343V372.735L624.698 419.343H671.209Z" fill="white" fill-opacity="0.36"/>
<path d="M561.699 361.569C557.772 364.198 554.072 367.184 550.664 370.462C546.444 374.519 542.679 378.998 539.499 383.801L537.584 386.69V359.621H564.62L561.732 361.536L561.699 361.569ZM539.661 379.874C542.485 375.979 545.698 372.312 549.203 368.936C551.897 366.34 554.753 363.938 557.772 361.731H539.661V379.874Z" fill="white" fill-opacity="0.36"/>
<path d="M606.262 418.79L605.645 418.563C600.387 416.745 595.453 414.019 591.039 410.481C584.58 405.32 581.4 400.225 581.075 399.64L570.494 381.01V402.464C570.494 416.258 573.22 428.138 578.641 437.777C580.945 441.899 583.769 445.664 587.047 448.975L590.001 451.961L585.976 450.728C578.089 448.293 570.754 444.431 564.23 439.205C555.402 432.162 551.15 425.054 550.988 424.73L540.861 406.976L540.991 406.521C550.046 378.543 575.979 359.718 605.45 359.718L608.241 359.621H665.301L606.262 418.79ZM582.86 398.602C582.99 398.829 586.073 403.86 592.338 408.858C596.395 412.104 600.906 414.635 605.71 416.356L660.237 361.731H608.274L605.45 361.828C591.851 361.828 579.063 365.95 568.417 373.188L582.828 398.602H582.86ZM552.805 423.659C553 424.016 557.089 430.767 565.561 437.55C570.819 441.737 576.564 445.015 582.73 447.352C580.491 444.723 578.511 441.834 576.791 438.783C571.208 428.819 568.384 416.583 568.384 402.464V373.221C556.797 381.108 547.807 392.727 543.133 406.716L552.805 423.626V423.659ZM540.374 418.66V427.521C540.374 445.08 543.847 460.205 550.728 472.441C555.499 480.977 561.925 488.118 569.813 493.733L572.506 495.648H537.615V428.365L537.778 424.697C537.875 422.652 538.037 420.575 538.329 418.563L540.407 418.693L540.374 418.66ZM566.015 493.538C559.037 488.053 553.292 481.334 548.878 473.48C544.399 465.495 541.315 456.31 539.693 446.086V493.538H566.015Z" fill="white" fill-opacity="0.36"/>
<path d="M555.274 446.541C555.826 447.028 556.378 447.482 556.962 447.937C566.731 455.791 583.382 465.171 607.238 465.171H673.287V495.551H607.758C606.265 495.486 592.697 494.642 579.584 486.658C572.249 482.146 566.245 476.239 561.798 469.066C557.968 462.899 555.21 455.694 553.555 447.58L552.938 444.594L555.242 446.574L555.274 446.541ZM671.211 493.441V467.281H607.271C583.285 467.281 566.407 458.063 556.313 450.079C557.968 456.733 560.403 462.737 563.617 467.93C567.901 474.844 573.645 480.524 580.688 484.84C593.346 492.565 606.394 493.376 607.789 493.441H671.178H671.211Z" fill="white" fill-opacity="0.36"/>
<path d="M383.999 425.899C383.999 429.372 384.389 432.812 385.168 436.123L385.557 437.778L383.902 437.389C380.559 436.61 377.151 436.22 373.71 436.22H358.877V396.363H383.999V425.931V425.899ZM360.987 434.111H373.71C376.761 434.111 379.78 434.403 382.766 434.987C382.181 432.001 381.889 428.982 381.889 425.899V398.441H360.987V434.111Z" fill="white" fill-opacity="0.36"/>
<path d="M446.929 404.479L447.027 404.576C447.903 405.55 448.844 406.491 449.786 407.335L449.883 407.432C455.238 413.534 458.192 421.324 458.192 429.406V459.169H428.494C420.607 459.169 412.98 456.345 406.975 451.184L406.878 451.087C405.742 449.821 404.573 448.685 403.372 447.582L403.275 447.484C398.147 441.48 395.355 433.82 395.355 425.933V396.17H425.021C433.103 396.17 440.892 399.123 446.962 404.511L446.929 404.479ZM397.4 425.9C397.4 433.268 400.029 440.409 404.768 446.056C406.001 447.16 407.17 448.328 408.338 449.626C413.953 454.43 421.094 457.059 428.429 457.059H456.017V429.406C456.017 421.843 453.259 414.573 448.26 408.861C447.286 407.984 446.345 407.043 445.436 406.037C439.756 401.038 432.454 398.28 424.924 398.28H397.335V425.933L397.4 425.9Z" fill="white" fill-opacity="0.36"/>
<path d="M435.345 374.455C435.345 377.928 435.735 381.368 436.546 384.711L436.936 386.366L435.28 385.977C431.937 385.198 428.497 384.776 425.024 384.776H395.521V359.654H435.378V374.455H435.345ZM397.598 382.666H424.992C428.075 382.666 431.126 382.958 434.112 383.575C433.528 380.589 433.236 377.538 433.236 374.455V361.764H397.598V382.699V382.666Z" fill="white" fill-opacity="0.36"/>
<path d="M469.587 417.85C472.93 418.629 476.37 419.051 479.843 419.051H494.611V459.363H469.489V429.373C469.489 425.9 469.1 422.459 468.288 419.116L467.899 417.461L469.554 417.85H469.587ZM492.534 457.253V421.161H479.843C476.76 421.161 473.709 420.869 470.723 420.252C471.307 423.238 471.631 426.289 471.631 429.373V457.253H492.534Z" fill="white" fill-opacity="0.36"/>
<path d="M494.642 407.658H479.874C471.792 407.658 463.97 404.704 457.933 399.349L457.868 399.284C456.992 398.343 456.051 397.369 454.98 396.395C449.624 390.359 446.703 382.569 446.703 374.455V359.654H494.674V407.658H494.642ZM448.78 374.455C448.78 382.05 451.539 389.352 456.473 394.935C457.479 395.876 458.453 396.85 459.361 397.824C465.009 402.822 472.312 405.581 479.874 405.581H492.565V361.764H448.813V374.455H448.78Z" fill="white" fill-opacity="0.36"/>
<path d="M384.161 384.971H358.877V359.654H384.161V384.971ZM360.987 382.861H382.052V361.732H360.987V382.861Z" fill="white" fill-opacity="0.36"/>
<path d="M395.229 455.499L395.327 455.596C396.43 456.83 397.598 458.03 398.832 459.102L398.929 459.199C404.057 465.203 406.849 472.863 406.849 480.783V495.616H358.877V447.547H373.71C381.597 447.547 389.225 450.371 395.229 455.499ZM360.987 493.506H404.771V480.783C404.771 473.383 402.142 466.242 397.404 460.627C396.17 459.523 394.969 458.323 393.833 457.057C388.218 452.286 381.078 449.657 373.743 449.657H361.02V493.506H360.987Z" fill="white" fill-opacity="0.36"/>
<path d="M770.885 401.071C771.177 406.686 772.572 412.106 775.039 417.169L776.402 419.928L773.644 418.565C768.613 416.098 763.225 414.702 757.61 414.41L755.24 414.28L770.787 398.701L770.917 401.071H770.885ZM771.988 415.514C770.398 411.651 769.392 407.627 768.97 403.472L760.012 412.463C764.166 412.885 768.158 413.891 772.021 415.481L771.988 415.514ZM793.994 436.156C799.252 438.753 804.932 440.149 810.807 440.343L813.241 440.408L796.85 456.831L796.785 454.397C796.591 448.49 795.195 442.843 792.598 437.552L791.235 434.793L793.994 436.156ZM808.405 442.323C803.991 441.934 799.706 440.895 795.649 439.207C797.337 443.297 798.376 447.549 798.733 451.963L808.405 442.291V442.323Z" fill="white" fill-opacity="0.36"/>
<path d="M787.891 365.464L787.761 365.561C784.32 368.093 781.302 371.144 778.803 374.584L731.253 422.231L731.124 422.328C727.683 424.86 724.665 427.878 722.133 431.319L715.674 437.81V359.557H793.798L787.858 365.464H787.891ZM717.816 432.714L720.51 430.021C723.107 426.45 726.255 423.302 729.825 420.673L777.147 373.253C779.744 369.683 782.892 366.535 786.463 363.906L788.735 361.634H717.816V432.714Z" fill="white" fill-opacity="0.36"/>
<path d="M851.441 495.551H774.291L851.441 418.238V495.551ZM849.331 493.441V423.334L779.354 493.441H849.331Z" fill="white" fill-opacity="0.36"/>
<path d="M1942.45 59.5586L1941.61 62.5122C1940.21 67.3482 1938.23 71.7299 1935.7 75.5274C1932.49 80.331 1928.3 84.3557 1923.24 87.4391C1913.14 93.6383 1902.63 94.1252 1902.17 94.1576H1852.58V73.3203H1902.5C1919.99 73.3203 1932.52 66.8289 1939.95 61.4086L1942.42 59.5911L1942.45 59.5586ZM1902.14 92.0155C1902.53 92.0155 1912.5 91.5286 1922.14 85.6215C1926.91 82.7003 1930.9 78.9029 1933.95 74.3589C1935.83 71.5352 1937.42 68.3544 1938.66 64.8491C1930.77 70.0097 1918.69 75.3975 1902.5 75.3975H1854.69V92.0155H1902.14Z" fill="white" fill-opacity="0.36"/>
<path d="M1852.58 8.11523L1906.17 61.8314L1903.7 61.8963C1903.28 61.8963 1902.89 61.8963 1902.47 61.8963H1852.55V8.11523H1852.58ZM1901.17 59.7866L1854.66 13.1785V59.7866H1901.17Z" fill="white" fill-opacity="0.36"/>
<path d="M1961.31 0.0976562H1988.35V27.1667L1986.43 24.278C1983.25 19.4744 1979.49 14.9954 1975.27 10.9383C1971.86 7.66011 1968.13 4.64162 1964.23 2.04507L1961.34 0.130113L1961.31 0.0976562ZM1986.24 2.20735H1968.13C1971.15 4.41442 1974 6.81623 1976.7 9.41278C1980.2 12.7883 1983.41 16.4559 1986.24 20.3507V2.20735Z" fill="white" fill-opacity="0.36"/>
<path d="M1860.6 0.0976562H1917.66L1920.45 0.195027C1949.92 0.195027 1975.86 18.9876 1984.91 46.9978L1985.04 47.4522L1974.91 65.2062C1974.91 65.2062 1970.66 72.4765 1961.64 79.6819C1955.12 84.9075 1947.78 88.7698 1939.89 91.2041L1935.87 92.4375L1938.82 89.4514C1942.1 86.1408 1944.92 82.3758 1947.23 78.2538C1952.65 68.6141 1955.37 56.7349 1955.37 42.9407V21.4867L1944.79 40.117C1944.63 40.3766 1941.42 45.6996 1934.83 50.9576C1930.38 54.4954 1925.48 57.1893 1920.22 59.0393L1919.61 59.2665L1860.6 0.0976562ZM1957.45 13.6646C1946.81 6.42675 1934.02 2.30472 1920.42 2.30472L1917.6 2.20735H1865.63L1920.16 56.8323C1924.96 55.0796 1929.47 52.548 1933.53 49.3347C1939.83 44.3039 1942.88 39.3056 1943.01 39.0784L1957.42 13.6646H1957.45ZM1982.77 47.225C1978.13 33.2361 1969.1 21.6166 1957.52 13.7295V42.9732C1957.52 57.1244 1954.69 69.3282 1949.11 79.2924C1947.39 82.3434 1945.41 85.1996 1943.17 87.861C1949.34 85.5242 1955.12 82.2136 1960.34 78.0591C1968.88 71.2107 1973 64.3298 1973.1 64.1675L1982.77 47.2575V47.225ZM1987.64 59.0069C1987.9 61.0192 1988.09 63.0965 1988.19 65.1412L1988.35 68.8089V136.092H1953.46L1956.15 134.177C1964.04 128.562 1970.43 121.389 1975.24 112.885C1982.09 100.649 1985.59 85.5242 1985.59 67.965V59.1043L1987.67 58.9744L1987.64 59.0069ZM1986.24 134.015V86.5628C1984.59 96.7867 1981.54 105.972 1977.06 113.956C1972.64 121.811 1966.9 128.562 1959.92 134.015H1986.24Z" fill="white" fill-opacity="0.36"/>
<path d="M1972.93 85.0364L1972.31 88.0224C1970.66 96.1042 1967.87 103.342 1964.07 109.509C1959.62 116.682 1953.62 122.621 1946.28 127.1C1933.17 135.085 1919.64 135.929 1918.11 135.994H1852.58V105.614H1918.63C1942.52 105.614 1959.17 96.234 1968.94 88.3794C1969.49 87.925 1970.07 87.4706 1970.63 86.9838L1972.93 85.0039V85.0364ZM1918.08 133.916C1919.47 133.851 1932.52 133.04 1945.18 125.315C1952.22 120.999 1958 115.286 1962.25 108.405C1965.47 103.212 1967.93 97.2401 1969.55 90.554C1959.46 98.506 1942.58 107.724 1918.6 107.724H1854.66V133.884H1918.05L1918.08 133.916Z" fill="white" fill-opacity="0.36"/>
<path d="M2141.93 36.8078H2167.06V76.6649H2152.22C2148.82 76.6649 2145.37 77.0544 2142.03 77.8333L2140.38 78.2228L2140.77 76.5675C2141.54 73.2569 2141.93 69.8165 2141.93 66.3436V36.7754V36.8078ZM2164.95 38.9175H2144.04V66.3761C2144.04 69.427 2143.75 72.478 2143.17 75.464C2146.15 74.8798 2149.2 74.5877 2152.22 74.5877H2164.95V38.9175Z" fill="white" fill-opacity="0.36"/>
<path d="M2100.91 36.6106H2130.57V66.3735C2130.57 74.2606 2127.75 81.9204 2122.65 87.9249L2122.56 88.0223C2121.32 89.1258 2120.19 90.2618 2119.05 91.5276L2118.95 91.625C2112.95 96.7856 2105.32 99.6094 2097.44 99.6094H2067.74V69.8464C2067.74 61.7647 2070.69 53.975 2076.05 47.8731L2076.14 47.7757C2077.09 46.9319 2077.99 45.9906 2078.9 45.0169L2079 44.9195C2085.07 39.5317 2092.86 36.5781 2100.94 36.5781L2100.91 36.6106ZM2128.5 38.7203H2100.91C2093.38 38.7203 2086.08 41.4791 2080.4 46.4775C2079.49 47.4836 2078.55 48.4249 2077.57 49.3012C2072.57 55.0136 2069.81 62.284 2069.81 69.8464V97.4997H2097.4C2104.74 97.4997 2111.88 94.8707 2117.49 90.0671C2118.66 88.8012 2119.83 87.6328 2121.06 86.4968C2125.84 80.8818 2128.43 73.7412 2128.43 66.3411V38.6878L2128.5 38.7203Z" fill="white" fill-opacity="0.36"/>
<path d="M2090.55 0.0976562H2130.41V25.2193H2100.91C2097.43 25.2193 2093.99 25.6088 2090.65 26.4202L2089 26.8097L2089.38 25.1544C2090.16 21.8113 2090.59 18.3709 2090.59 14.898V0.0976562H2090.55ZM2128.3 2.20735H2092.66V14.898C2092.66 17.9814 2092.37 21.0323 2091.75 24.0184C2094.74 23.4342 2097.79 23.1096 2100.87 23.1096H2128.27V2.20735H2128.3Z" fill="white" fill-opacity="0.36"/>
<path d="M2109.28 109.412L2108.89 111.067C2108.12 114.41 2107.73 117.851 2107.73 121.291V136.124H2067.51V111.003H2097.44C2100.91 111.003 2104.32 110.613 2107.63 109.834L2109.28 109.445V109.412ZM2105.62 134.014V121.291C2105.62 118.24 2105.91 115.189 2106.49 112.203C2103.54 112.788 2100.49 113.08 2097.44 113.08H2069.62V134.014H2105.62Z" fill="white" fill-opacity="0.36"/>
<path d="M2057.97 57.9355L2057.58 59.5908C2056.8 62.9339 2056.38 66.3743 2056.38 69.8472V99.8374H2031.26V59.5259H2046.02C2049.5 59.5259 2052.94 59.1364 2056.28 58.325L2057.93 57.9355H2057.97ZM2054.27 97.7277V69.8472C2054.27 66.7638 2054.56 63.7129 2055.18 60.7268C2052.19 61.3111 2049.11 61.6356 2046.06 61.6356H2033.4V97.7277H2054.3H2054.27Z" fill="white" fill-opacity="0.36"/>
<path d="M2031.26 0.0976562H2079.23V14.898C2079.23 23.0122 2076.27 30.8343 2070.95 36.8713C2069.91 37.845 2068.97 38.7863 2068.09 39.76L2068.03 39.8249C2061.99 45.1803 2054.17 48.1338 2046.09 48.1338H2031.32V0.0976562H2031.26ZM2077.12 2.20735H2033.36V46.0241H2046.02C2053.59 46.0241 2060.89 43.2653 2066.54 38.2669C2067.44 37.2932 2068.42 36.3195 2069.42 35.3783C2074.36 29.7957 2077.12 22.4929 2077.12 14.898V2.20735Z" fill="white" fill-opacity="0.36"/>
<path d="M2141.77 0.0976562H2167.06V25.414H2141.77V0.0976562ZM2164.95 2.20735H2143.88V23.3368H2164.95V2.20735Z" fill="white" fill-opacity="0.36"/>
<path d="M2152.19 88.0234H2167.03V136.092H2119.05V121.259C2119.05 113.34 2121.88 105.68 2126.97 99.6755L2127.07 99.5781C2128.3 98.507 2129.47 97.3061 2130.58 96.0727L2130.67 95.9754C2136.68 90.8472 2144.31 88.0234 2152.19 88.0234ZM2164.92 90.1331H2152.19C2144.83 90.1331 2137.68 92.7621 2132.1 97.5333C2130.97 98.7991 2129.77 100 2128.53 101.104C2123.76 106.719 2121.16 113.892 2121.16 121.259V133.982H2164.95V90.1331H2164.92Z" fill="white" fill-opacity="0.36"/>
<path d="M2031.26 111.197H2056.15V136.124H2031.26V111.197ZM2054.04 113.307H2033.33V134.014H2054.04V113.307Z" fill="white" fill-opacity="0.36"/>
<path d="M2111.97 218.727L2127.52 234.306L2125.15 234.436C2119.54 234.728 2114.15 236.091 2109.15 238.558L2106.39 239.888L2107.72 237.13C2110.19 232.099 2111.55 226.711 2111.84 221.096L2111.97 218.727ZM2122.75 232.488L2113.79 223.498C2113.37 227.652 2112.36 231.644 2110.77 235.507C2114.6 233.916 2118.63 232.91 2122.75 232.488ZM2091.43 254.884L2090.1 257.642C2087.53 262.9 2086.14 268.548 2085.94 274.455L2085.88 276.889L2069.52 260.499L2071.96 260.434C2077.83 260.239 2083.48 258.843 2088.74 256.279L2091.49 254.916L2091.43 254.884ZM2083.96 272.021C2084.35 267.607 2085.36 263.355 2087.05 259.298C2082.99 260.985 2078.74 261.992 2074.32 262.381L2083.96 272.021Z" fill="white" fill-opacity="0.36"/>
<path d="M2088.9 179.551H2167.02V257.804L2160.56 251.313C2158.03 247.84 2155.01 244.822 2151.57 242.29L2151.44 242.193L2103.93 194.546C2101.4 191.105 2098.38 188.054 2094.94 185.555L2094.81 185.458L2088.9 179.551ZM2164.91 181.66H2093.96L2096.24 183.932C2099.81 186.561 2102.95 189.677 2105.58 193.28L2152.87 240.7C2156.44 243.329 2159.59 246.477 2162.22 250.08L2164.91 252.773V181.693V181.66Z" fill="white" fill-opacity="0.36"/>
<path d="M2031.26 238.232L2108.44 315.545H2031.26V238.232ZM2103.37 313.435L2033.36 243.328V313.435H2103.37Z" fill="white" fill-opacity="0.36"/>
<path d="M1755.15 39.1758L1770.69 54.7551L1768.32 54.8849C1762.71 55.177 1757.32 56.5727 1752.29 59.0394L1749.53 60.4026L1750.89 57.6437C1753.36 52.6129 1754.76 47.1926 1755.05 41.5451L1755.18 39.1758H1755.15ZM1765.92 52.97L1756.96 43.9794C1756.54 48.1339 1755.54 52.1585 1753.95 56.0209C1757.78 54.4305 1761.8 53.4244 1765.95 53.0024L1765.92 52.97ZM1734.67 75.3003L1733.3 78.0591C1730.71 83.3496 1729.31 88.9971 1729.12 94.9042L1729.05 97.3385L1712.66 80.9153L1715.09 80.8504C1721 80.6557 1726.65 79.26 1731.91 76.6635L1734.67 75.3003ZM1727.17 92.47C1727.56 88.0558 1728.6 83.7715 1730.25 79.7144C1726.16 81.4022 1721.91 82.4408 1717.5 82.8303L1727.17 92.5024V92.47Z" fill="white" fill-opacity="0.36"/>
<path d="M1732.1 0H1810.22V78.2535L1803.77 71.7622C1801.27 68.3217 1798.25 65.2708 1794.78 62.7716L1794.65 62.6742L1747.1 15.0275C1744.6 11.5871 1741.58 8.53616 1738.14 6.00452L1738.01 5.90715L1732.1 0ZM1808.11 2.1097H1737.2L1739.47 4.38168C1743.04 7.01069 1746.15 10.159 1748.78 13.7293L1796.11 61.1488C1799.68 63.7778 1802.82 66.9261 1805.42 70.4963L1808.11 73.1903V2.1097Z" fill="white" fill-opacity="0.36"/>
<path d="M1674.46 58.7148L1751.61 136.027H1674.46V58.7148ZM1746.54 133.917L1676.57 63.8106V133.917H1746.54Z" fill="white" fill-opacity="0.36"/>
<path d="M1872.35 185.848L1876.67 189.418C1881.44 193.378 1883.32 199.74 1882.18 208.276C1881.18 216.033 1877.9 224.082 1875.3 229.47C1873.78 232.229 1872.25 235.085 1870.73 238.006L1870.63 238.136C1870.37 238.558 1870.08 239.045 1869.98 239.24L1868.81 241.706L1868.42 242.583C1866.41 246.672 1864.4 251.086 1862.42 255.695C1859.69 262.089 1857 268.873 1854.47 275.884L1852.42 281.531V213.826L1854.01 214.8C1854.89 215.319 1855.83 215.773 1856.8 216.098C1858.49 216.682 1860.28 217.007 1862.09 217.007C1866.93 217.007 1871.54 214.832 1874.75 211.002C1879.04 205.906 1879.75 199.253 1876.67 193.638L1872.32 185.783L1872.35 185.848ZM1868.91 237C1870.43 234.047 1871.96 231.19 1873.45 228.496C1875.92 223.303 1879.13 215.481 1880.11 207.984C1880.27 206.685 1880.37 205.452 1880.4 204.284C1879.81 207.14 1878.48 209.931 1876.44 212.365C1872.84 216.65 1867.64 219.116 1862.16 219.116C1860.11 219.116 1858.1 218.759 1856.19 218.11C1855.63 217.916 1855.11 217.688 1854.6 217.461V269.652C1856.51 264.556 1858.52 259.59 1860.53 254.851C1862.42 250.502 1864.33 246.315 1866.21 242.388L1866.54 241.641L1868.1 238.331C1868.1 238.331 1868.29 237.941 1868.84 237.065L1868.91 236.968V237Z" fill="white" fill-opacity="0.36"/>
<path d="M1882.86 179.715H1920.77L1917.43 181.662C1909.87 186.109 1902.47 192.405 1895.46 200.325L1893.87 202.143L1893.64 199.741C1892.89 192.243 1889.97 186.141 1884.88 181.532L1882.86 179.715ZM1913.24 181.825H1888.15C1892.02 186.011 1894.45 191.172 1895.42 197.242C1901.14 191.01 1907.11 185.817 1913.24 181.825Z" fill="white" fill-opacity="0.36"/>
<path d="M1852.49 179.715H1862.97L1861.15 181.532C1858.81 183.837 1856.51 186.304 1854.33 188.868L1852.49 191.042V179.747V179.715ZM1857.91 181.825H1854.59V185.362C1855.67 184.161 1856.8 182.961 1857.91 181.825Z" fill="white" fill-opacity="0.36"/>
<path d="M1972.18 179.715H1988.19V197.923L1986.24 194.677C1983.09 189.452 1979.19 185.07 1974.65 181.63L1972.15 179.747L1972.18 179.715ZM1986.11 181.825H1978.29C1981.21 184.356 1983.8 187.277 1986.11 190.588V181.825Z" fill="white" fill-opacity="0.36"/>
<path d="M1948.14 184.389C1955.11 184.389 1961.38 186.239 1966.67 189.841C1971.99 193.477 1976.18 198.735 1979.13 205.551C1983.29 215.093 1984.33 226.583 1982.05 237.066C1980.85 242.584 1978.78 247.582 1975.89 251.899C1972.77 256.573 1968.81 260.338 1964.07 263.064C1960.21 265.304 1956.19 266.44 1952.16 266.44C1945.18 266.44 1938.56 262.902 1934.89 257.222C1932.43 253.36 1931.62 248.751 1932.69 244.174C1933.3 241.513 1934.54 238.916 1936.32 236.417C1938.33 233.658 1941.06 231.029 1944.44 228.627L1946.97 226.81L1940.35 217.56L1937.82 219.345C1929.12 225.544 1923.5 233.171 1921.52 241.415C1919.74 248.945 1921.1 256.735 1925.32 263.356C1929.57 269.913 1936.42 274.814 1944.14 276.793C1946.77 277.443 1949.47 277.8 1952.13 277.8C1958.17 277.8 1964.11 276.144 1969.72 272.866C1976.31 269.036 1982.02 263.421 1986.18 256.605L1988.12 253.424V315.677H1854.79L1855.12 314.378C1858.78 299.448 1869.75 264.784 1892.34 264.784C1893.09 264.784 1893.84 264.817 1894.58 264.882C1897.76 265.206 1900.39 266.083 1902.44 267.511C1904.45 268.939 1905.88 270.919 1906.72 273.45C1907.96 277.118 1907.89 281.662 1906.59 286.238C1905.39 290.425 1903.25 294.255 1900.78 296.495C1899.71 297.501 1897.99 298.702 1896.11 298.702C1895.43 298.702 1894.78 298.54 1894.06 298.247C1890.2 296.592 1888.97 292.73 1889.1 289.906C1889.23 286.595 1890.92 284.161 1893.71 283.22L1896.66 282.246L1893.06 271.47L1890.1 272.444C1882.8 274.878 1878.06 281.37 1877.74 289.419C1877.38 297.858 1882.02 305.42 1889.55 308.666C1891.69 309.607 1893.9 310.062 1896.11 310.062C1900.46 310.062 1904.71 308.244 1908.44 304.836C1914.77 298.994 1918.86 288.932 1918.86 279.195C1918.86 275.82 1918.37 272.671 1917.4 269.815C1914.25 260.403 1906.53 254.625 1895.65 253.554C1894.52 253.457 1893.38 253.392 1892.25 253.392C1886.5 253.392 1880.98 254.853 1875.89 257.741L1873.1 259.299L1874.39 256.378C1876.34 252.029 1878.39 247.712 1880.5 243.558C1880.79 243.103 1882.9 239.63 1885.43 234.372C1889.68 226.81 1894.16 219.994 1898.7 214.087C1909.87 199.611 1921.72 190.361 1933.92 186.628C1938.79 185.135 1943.53 184.389 1947.97 184.389H1948.14ZM1952.16 264.362C1955.83 264.362 1959.46 263.324 1963.03 261.279C1967.48 258.682 1971.21 255.145 1974.13 250.763C1976.86 246.641 1978.84 241.902 1979.98 236.644C1982.18 226.583 1981.15 215.58 1977.19 206.427C1974.39 200 1970.43 195.002 1965.47 191.627C1960.54 188.251 1954.69 186.531 1948.14 186.531C1943.88 186.531 1939.37 187.245 1934.7 188.673C1922.92 192.276 1911.43 201.266 1900.56 215.417C1896.04 221.227 1891.66 227.978 1887.47 235.378C1884.91 240.669 1882.74 244.239 1882.51 244.629C1880.89 247.809 1879.3 251.152 1877.74 254.56C1882.38 252.418 1887.31 251.347 1892.41 251.347C1893.61 251.347 1894.84 251.412 1896.04 251.542C1907.79 252.678 1916.17 258.975 1919.61 269.231C1920.65 272.314 1921.17 275.69 1921.17 279.293C1921.17 289.581 1916.82 300.26 1910.06 306.491C1905.94 310.289 1901.2 312.269 1896.34 312.269C1893.84 312.269 1891.34 311.749 1888.94 310.711C1880.59 307.108 1875.47 298.767 1875.86 289.419C1876.21 280.493 1881.5 273.256 1889.65 270.562L1894.58 268.906L1899.48 283.642L1894.55 285.297C1892.05 286.141 1891.43 288.348 1891.37 290.068C1891.27 292.21 1892.18 295.132 1895.07 296.397C1895.49 296.592 1895.88 296.689 1896.27 296.689C1897.21 296.689 1898.38 296.105 1899.52 295.034C1901.69 293.022 1903.64 289.549 1904.71 285.752C1905.91 281.565 1905.94 277.475 1904.87 274.197C1904.19 272.12 1902.99 270.464 1901.37 269.328C1899.65 268.095 1897.34 267.348 1894.52 267.089C1893.87 267.024 1893.15 266.991 1892.47 266.991C1871.57 266.991 1860.86 301.169 1857.61 313.697H1986.14V260.76C1982.02 266.537 1976.8 271.373 1970.89 274.814C1964.95 278.286 1958.65 280.039 1952.23 280.039C1949.4 280.039 1946.51 279.682 1943.72 278.968C1935.48 276.858 1928.18 271.633 1923.63 264.622C1919.09 257.514 1917.63 249.173 1919.54 241.058C1921.62 232.327 1927.53 224.278 1936.65 217.754L1940.87 214.736L1949.92 227.394L1945.67 230.445C1942.49 232.717 1939.93 235.184 1938.04 237.748C1936.42 239.987 1935.28 242.357 1934.76 244.726C1933.82 248.751 1934.54 252.808 1936.68 256.151C1939.96 261.247 1945.9 264.427 1952.19 264.427L1952.16 264.362Z" fill="white" fill-opacity="0.36"/>
<path d="M2127.23 245.73C2133.3 245.73 2139.11 247.548 2144.11 250.956L2144.3 251.118L2152 258.843L2167.06 273.903V315.578H2124.51L2109.25 300.323L2109.35 300.193L2107.27 298.148C2106.43 297.402 2105.65 296.623 2104.9 295.779C2099.97 290.261 2097.27 283.186 2097.27 275.786C2097.27 259.233 2110.71 245.763 2127.26 245.763L2127.23 245.73ZM2142.88 252.644C2138.24 249.463 2132.85 247.808 2127.23 247.808C2111.85 247.808 2099.35 260.336 2099.35 275.721C2099.35 282.601 2101.88 289.19 2106.43 294.318C2107.11 295.097 2107.86 295.844 2108.63 296.525L2112.11 299.933L2112.01 300.063L2125.35 313.403H2164.91V274.714L2142.84 252.611L2142.88 252.644Z" fill="white" fill-opacity="0.36"/>
<path d="M2031.26 179.551H2072.86L2095.39 202.173C2098.77 207.139 2100.55 212.949 2100.55 219.018C2100.55 235.571 2087.11 249.041 2070.56 249.041C2063.19 249.041 2056.08 246.315 2050.6 241.381C2049.76 240.635 2048.98 239.856 2048.26 239.044L2046.35 236.87L2046.09 237.064L2031.26 222.199V179.583V179.551ZM2071.99 181.66H2033.36V221.29L2046.28 234.241L2046.64 233.981L2049.82 237.616C2050.47 238.363 2051.18 239.077 2051.96 239.758C2057.09 244.367 2063.68 246.899 2070.56 246.899C2085.95 246.899 2098.44 234.37 2098.44 218.986C2098.44 213.371 2096.79 207.983 2093.7 203.374L2071.99 181.628V181.66Z" fill="white" fill-opacity="0.36"/>
<path d="M1770.43 66.1797C1776.47 66.1797 1782.31 67.9648 1787.25 71.3728L1787.41 71.5026L1810.23 94.3523V136.027H1767.71L1752.35 120.642L1752.42 120.545L1750.47 118.63C1749.63 117.851 1748.82 117.072 1748.04 116.196C1743.14 110.678 1740.48 103.602 1740.48 96.2348C1740.48 79.6818 1753.91 66.2121 1770.47 66.2121L1770.43 66.1797ZM1785.98 73.0605C1781.4 69.9447 1776.02 68.2894 1770.43 68.2894C1755.05 68.2894 1742.55 80.8177 1742.55 96.2023C1742.55 103.051 1745.05 109.639 1749.6 114.768C1750.34 115.579 1751.09 116.326 1751.9 117.072L1755.11 120.253L1755.05 120.35L1768.58 133.885H1808.15V95.1961L1786.01 73.0281L1785.98 73.0605Z" fill="white" fill-opacity="0.36"/>
<path d="M1674.46 0H1716.04L1730.15 14.2486C1730.15 14.2486 1730.48 14.5407 1730.64 14.6705L1730.77 14.7679L1738.56 22.6224C1741.94 27.5883 1743.72 33.3981 1743.72 39.4676C1743.72 56.0206 1730.28 69.4902 1713.73 69.4902C1706.36 69.4902 1699.26 66.7963 1693.77 61.8628C1693.06 61.2137 1692.37 60.5321 1691.73 59.818L1691.43 59.4935V59.5584L1674.46 42.5834V0ZM1715.19 2.1097H1676.57V41.7071L1691.17 56.3451L1691.3 56.1829L1693.32 58.3899C1693.93 59.0715 1694.55 59.6882 1695.2 60.2724C1700.29 64.8488 1706.92 67.348 1713.76 67.348C1729.15 67.348 1741.64 54.8197 1741.64 39.4351C1741.64 33.8201 1739.99 28.4322 1736.91 23.8558L1729.38 16.2934C1729.12 16.0986 1728.89 15.9039 1728.69 15.6767L1727.69 14.6056L1715.22 2.1097H1715.19Z" fill="white" fill-opacity="0.36"/>
<path d="M1404.68 60.207L1403.83 63.1606C1402.44 67.9967 1400.46 72.3784 1397.93 76.1758C1394.71 80.9794 1390.53 85.0041 1385.46 88.0875C1375.34 94.3192 1364.85 94.7736 1364.4 94.8061H1314.8V73.9688H1364.72C1382.22 73.9688 1394.75 67.4774 1402.18 62.0571L1404.64 60.2395L1404.68 60.207ZM1364.37 92.6639C1364.76 92.6639 1374.69 92.2095 1384.36 86.2699C1389.13 83.3488 1393.12 79.5513 1396.17 75.0074C1398.06 72.1836 1399.65 69.0028 1400.88 65.4975C1392.99 70.6582 1380.92 76.046 1364.72 76.046H1316.91V92.6639H1364.37Z" fill="white" fill-opacity="0.36"/>
<path d="M1314.8 8.76367L1368.42 62.4798L1365.96 62.5447C1365.53 62.5447 1365.14 62.5447 1364.72 62.5447H1314.8V8.76367ZM1363.39 60.435L1316.88 13.8269V60.435H1363.39Z" fill="white" fill-opacity="0.36"/>
<path d="M1423.54 0.746094H1450.57V27.8151L1448.66 24.9265C1445.48 20.1228 1441.71 15.6438 1437.49 11.5867C1434.08 8.30855 1430.35 5.29006 1426.46 2.69351L1423.57 0.778551L1423.54 0.746094ZM1448.46 2.85579H1430.35C1433.37 5.06286 1436.23 7.46467 1438.92 10.0612C1442.43 13.4367 1445.64 17.1044 1448.46 20.9992V2.85579Z" fill="white" fill-opacity="0.36"/>
<path d="M1322.82 0.746094H1379.88L1382.67 0.843464C1412.14 0.843464 1438.08 19.636 1447.13 47.6463L1447.26 48.1007L1437.13 65.8546C1437.13 65.8546 1432.88 73.1249 1423.86 80.3304C1417.34 85.5559 1410 89.4183 1402.11 91.8525L1398.09 93.0859L1401.04 90.0999C1404.32 86.7893 1407.14 83.0243 1409.45 78.9023C1414.87 69.2626 1417.59 57.3833 1417.59 43.5892V22.1352L1407.01 40.7654C1406.66 41.3497 1403.48 46.4778 1397.05 51.606C1392.64 55.1438 1387.7 57.8377 1382.44 59.6878L1381.83 59.915L1322.82 0.746094ZM1419.67 14.3131C1409.03 7.07518 1396.24 2.95316 1382.64 2.95316L1379.82 2.85579H1327.85L1382.38 57.4807C1387.18 55.728 1391.69 53.1964 1395.75 49.9832C1401.98 44.9848 1405.1 39.954 1405.23 39.7268L1419.64 14.3131H1419.67ZM1444.99 47.8735C1440.35 33.8846 1431.32 22.265 1419.74 14.378V43.6216C1419.74 57.7728 1416.91 69.9766 1411.33 79.9409C1409.61 82.9918 1407.63 85.848 1405.39 88.5095C1411.56 86.1726 1417.34 82.862 1422.56 78.7075C1431.1 71.8916 1435.22 65.0107 1435.32 64.816L1444.99 47.9059V47.8735ZM1449.86 59.6553C1450.12 61.6677 1450.31 63.7449 1450.41 65.7897L1450.57 69.4573V136.74H1415.68L1418.37 134.825C1426.26 129.21 1432.66 122.037 1437.43 113.534C1444.27 101.297 1447.78 86.1726 1447.78 68.6134V59.7527L1449.86 59.6229V59.6553ZM1448.46 134.663V87.2112C1446.81 97.4351 1443.76 106.62 1439.28 114.605C1434.86 122.459 1429.12 129.21 1422.14 134.663H1448.46Z" fill="white" fill-opacity="0.36"/>
<path d="M1435.15 85.6848L1434.54 88.6708C1432.88 96.7526 1430.09 103.99 1426.29 110.157C1421.85 117.33 1415.87 123.27 1408.51 127.749C1395.43 135.733 1381.86 136.577 1380.33 136.642H1314.8V106.262H1380.85C1404.74 106.262 1421.39 96.8824 1431.13 89.0279C1431.71 88.5735 1432.27 88.1191 1432.82 87.6322L1435.12 85.6523L1435.15 85.6848ZM1380.3 134.565C1381.7 134.5 1394.78 133.689 1407.4 125.964C1414.48 121.647 1420.22 115.935 1424.48 109.054C1427.69 103.861 1430.16 97.8886 1431.78 91.2025C1421.68 99.1544 1404.81 108.372 1380.82 108.372H1316.88V134.532H1380.27L1380.3 134.565Z" fill="white" fill-opacity="0.36"/>
<path d="M1182.86 60.2082L1185.33 62.0258C1192.76 67.4786 1205.32 73.9375 1222.78 73.9375H1272.7V94.7748H1223.14C1222.65 94.7748 1212.17 94.288 1202.04 88.0562C1197.01 84.9728 1192.79 80.9806 1189.58 76.1446C1187.05 72.3471 1185.07 67.9979 1183.67 63.1294L1182.83 60.1758L1182.86 60.2082ZM1270.63 76.0472H1222.82C1206.62 76.0472 1194.55 70.6594 1186.66 65.4987C1187.89 68.9716 1189.48 72.1524 1191.37 75.0086C1194.42 79.5525 1198.38 83.35 1203.18 86.2711C1212.85 92.2107 1222.82 92.6651 1223.24 92.6651H1270.66V76.0472H1270.63Z" fill="white" fill-opacity="0.36"/>
<path d="M1272.74 8.76367V62.5447H1222.82C1222.4 62.5447 1222.01 62.5447 1221.58 62.5447L1219.12 62.4798L1272.74 8.76367ZM1270.63 60.435V13.8594L1224.12 60.4675H1270.63V60.435Z" fill="white" fill-opacity="0.36"/>
<path d="M1137 0.746094H1164.04L1161.15 2.66105C1157.22 5.2576 1153.52 8.27609 1150.11 11.5542C1145.89 15.6113 1142.13 20.0904 1138.95 24.894L1137.03 27.7827V0.746094H1137ZM1157.22 2.85579H1139.11V20.9992C1141.93 17.1044 1145.15 13.4367 1148.65 10.0612C1151.35 7.46467 1154.2 5.06286 1157.22 2.85579Z" fill="white" fill-opacity="0.36"/>
<path d="M1262.19 0.746094H1264.72L1205.68 59.915L1205.06 59.6878C1199.81 57.8702 1194.87 55.1438 1190.46 51.606C1184.03 46.4778 1180.85 41.3497 1180.49 40.7979L1169.91 22.1352V43.5892C1169.91 57.3834 1172.64 69.2626 1178.06 78.9023C1180.36 83.0243 1183.19 86.7893 1186.47 90.0999L1189.42 93.0859L1185.39 91.8526C1177.51 89.4183 1170.17 85.5559 1163.65 80.3304C1154.63 73.1249 1150.44 65.9195 1150.37 65.8546L1140.25 48.1007L1140.38 47.6463C1149.43 19.6685 1175.37 0.843464 1204.84 0.843464L1207.56 0.746094H1262.15H1262.19ZM1259.66 2.85579H1207.66L1204.97 2.95316C1191.33 2.95316 1178.51 7.07519 1167.87 14.3131L1182.31 39.7268C1182.44 39.9216 1185.52 44.9848 1191.79 49.9507C1195.85 53.1964 1200.36 55.7281 1205.16 57.4483L1259.69 2.82333L1259.66 2.85579ZM1182.15 88.477C1179.91 85.848 1177.93 82.9594 1176.21 79.9084C1170.63 69.9442 1167.8 57.7079 1167.8 43.5892V14.3455C1156.22 22.2326 1147.19 33.8521 1142.55 47.841L1152.22 64.7835C1152.22 64.7835 1156.38 71.7942 1164.98 78.6751C1170.2 82.862 1175.98 86.1402 1182.15 88.477ZM1137.72 59.6553L1139.79 59.7852V68.6459C1139.79 86.2051 1143.27 101.33 1150.15 113.566C1154.92 122.102 1161.34 129.243 1169.2 134.858L1171.89 136.773H1137V69.4898L1137.16 65.8221C1137.26 63.7774 1137.42 61.7001 1137.72 59.6878V59.6553ZM1165.43 134.663C1158.46 129.178 1152.71 122.459 1148.3 114.605C1143.82 106.62 1140.73 97.4351 1139.11 87.2112V134.663H1165.43Z" fill="white" fill-opacity="0.36"/>
<path d="M1152.38 85.6855L1154.69 87.6654C1155.24 88.1198 1155.79 88.6067 1156.38 89.0611C1166.15 96.9156 1182.8 106.296 1206.68 106.296H1272.73V136.675H1207.24C1205.68 136.61 1192.11 135.767 1179.03 127.782C1171.7 123.271 1165.69 117.363 1161.25 110.19C1157.42 104.024 1154.66 96.7858 1153 88.704L1152.38 85.718V85.6855ZM1270.62 108.405H1206.68C1182.7 108.405 1165.82 99.1876 1155.73 91.2357C1157.38 97.8893 1159.82 103.894 1163.03 109.087C1167.31 116 1173.06 121.68 1180.1 125.997C1192.73 133.722 1205.81 134.533 1207.27 134.598H1270.62V108.438V108.405Z" fill="white" fill-opacity="0.36"/>
<path d="M1604.16 37.4563H1629.28V77.3133H1614.45C1611.04 77.3133 1607.6 77.7028 1604.25 78.4818L1602.6 78.8713L1602.99 77.216C1603.77 73.9054 1604.16 70.4649 1604.16 66.992V37.4238V37.4563ZM1627.17 39.566H1606.27V67.0245C1606.27 70.0754 1605.97 73.1264 1605.39 76.1124C1608.38 75.5282 1611.43 75.2361 1614.45 75.2361H1627.17V39.566Z" fill="white" fill-opacity="0.36"/>
<path d="M1563.13 37.261H1592.8V67.0239C1592.8 74.911 1589.97 82.5708 1584.88 88.5753L1584.78 88.6727C1583.55 89.7762 1582.41 90.9122 1581.28 92.178L1581.18 92.2754C1575.17 97.436 1567.55 100.26 1559.66 100.26H1529.96V70.4968C1529.96 62.4151 1532.92 54.6254 1538.27 48.5235L1538.37 48.4261C1539.31 47.5823 1540.25 46.641 1541.13 45.6673L1541.22 45.5699C1547.29 40.1821 1555.08 37.2285 1563.16 37.2285L1563.13 37.261ZM1590.72 39.3707H1563.13C1555.6 39.3707 1548.3 42.1295 1542.62 47.1279C1541.71 48.134 1540.77 49.0753 1539.8 49.9516C1534.8 55.664 1532.04 62.9344 1532.04 70.4968V98.1501H1559.63C1566.96 98.1501 1574.1 95.5211 1579.72 90.7175C1580.89 89.4192 1582.05 88.2507 1583.29 87.1472C1588.06 81.5322 1590.66 74.3916 1590.66 66.9915V39.3382L1590.72 39.3707Z" fill="white" fill-opacity="0.36"/>
<path d="M1552.78 0.746094H1592.64V25.8677H1563.13C1559.66 25.8677 1556.22 26.2572 1552.88 27.0686L1551.22 27.4581L1551.61 25.8028C1552.39 22.4597 1552.81 19.0193 1552.81 15.5464V0.746094H1552.78ZM1590.53 2.85579H1554.89V15.5464C1554.89 18.6298 1554.6 21.6808 1554.01 24.6668C1557 24.0826 1560.08 23.758 1563.13 23.758H1590.53V2.85579Z" fill="white" fill-opacity="0.36"/>
<path d="M1571.51 110.061L1571.12 111.716C1570.34 115.059 1569.95 118.499 1569.95 121.94V136.773H1529.73V111.651H1559.66C1563.13 111.651 1566.54 111.261 1569.85 110.482L1571.51 110.093V110.061ZM1567.84 134.663V121.94C1567.84 118.889 1568.13 115.838 1568.71 112.852C1565.76 113.436 1562.71 113.728 1559.66 113.728H1531.84V134.663H1567.84Z" fill="white" fill-opacity="0.36"/>
<path d="M1520.19 58.584L1519.8 60.2393C1519.02 63.5823 1518.6 67.0228 1518.6 70.4957V100.486H1493.48V60.1744H1508.25C1511.72 60.1744 1515.16 59.7849 1518.5 58.9735L1520.16 58.584H1520.19ZM1516.52 98.3761V70.4957C1516.52 67.4123 1516.82 64.3613 1517.43 61.3753C1514.45 61.9595 1511.4 62.2841 1508.31 62.2841H1495.62V98.3761H1516.52Z" fill="white" fill-opacity="0.36"/>
<path d="M1493.48 0.746094H1541.45V15.5464C1541.45 23.6607 1538.5 31.4503 1533.18 37.4873C1532.14 38.461 1531.2 39.4022 1530.29 40.3759L1530.22 40.4409C1524.18 45.7962 1516.36 48.7498 1508.28 48.7498H1493.51V0.746094H1493.48ZM1539.34 2.85579H1495.59V46.6726H1508.28C1515.84 46.6726 1523.15 43.9137 1528.79 38.9154C1529.7 37.9417 1530.68 36.968 1531.68 36.0267C1536.62 30.4441 1539.37 23.1413 1539.37 15.5464V2.85579H1539.34Z" fill="white" fill-opacity="0.36"/>
<path d="M1603.99 0.746094H1629.28V26.0625H1603.99V0.746094ZM1627.17 2.85579H1606.1V23.9852H1627.17V2.85579Z" fill="white" fill-opacity="0.36"/>
<path d="M1614.41 88.6719H1629.25V136.741H1581.27V121.908C1581.27 113.988 1584.1 106.328 1589.19 100.324L1589.29 100.227C1590.52 99.1554 1591.69 97.9545 1592.8 96.7212L1592.89 96.6238C1598.9 91.4956 1606.53 88.6719 1614.41 88.6719ZM1627.14 90.7816H1614.41C1607.05 90.7816 1599.9 93.4106 1594.32 98.1817C1593.19 99.4476 1591.99 100.648 1590.75 101.752C1585.98 107.367 1583.38 114.54 1583.38 121.908V134.631H1627.17V90.7816H1627.14Z" fill="white" fill-opacity="0.36"/>
<path d="M1493.48 111.846H1518.37V136.773H1493.48V111.846ZM1516.26 113.955H1495.56V134.663H1516.26V113.955Z" fill="white" fill-opacity="0.36"/>
<path d="M1574.2 219.377L1589.75 234.956L1587.38 235.086C1581.76 235.378 1576.37 236.741 1571.38 239.208L1568.62 240.571L1569.95 237.812C1572.41 232.782 1573.78 227.394 1574.07 221.779L1574.2 219.409V219.377ZM1584.98 233.139L1576.02 224.148C1575.6 228.303 1574.59 232.295 1573 236.125C1576.83 234.534 1580.82 233.528 1584.98 233.106V233.139ZM1553.65 255.534L1552.32 258.293C1549.76 263.551 1548.36 269.198 1548.17 275.105L1548.1 277.54L1531.75 261.149L1534.18 261.084C1540.06 260.889 1545.7 259.494 1550.96 256.93L1553.72 255.566L1553.65 255.534ZM1546.19 272.671C1546.58 268.257 1547.59 264.005 1549.27 259.948C1545.22 261.636 1540.96 262.642 1536.55 263.031L1546.19 272.671Z" fill="white" fill-opacity="0.36"/>
<path d="M1551.12 180.201H1629.25V258.455L1622.79 251.963C1620.26 248.49 1617.24 245.472 1613.8 242.94L1613.67 242.843L1566.15 195.196C1563.62 191.756 1560.6 188.705 1557.16 186.206L1557.03 186.108L1551.12 180.201ZM1627.14 182.311H1556.19L1558.46 184.583C1562.03 187.212 1565.18 190.328 1567.81 193.93L1615.1 241.35C1618.67 243.979 1621.81 247.127 1624.44 250.73L1627.14 253.424V182.343V182.311Z" fill="white" fill-opacity="0.36"/>
<path d="M1493.48 238.883L1570.66 316.195H1493.48V238.883ZM1565.6 314.085L1495.59 243.979V314.085H1565.6Z" fill="white" fill-opacity="0.36"/>
<path d="M1589.45 246.381C1595.52 246.381 1601.33 248.198 1606.33 251.606L1606.53 251.769L1614.22 259.493L1629.28 274.553V316.228H1586.73L1571.47 300.973L1571.57 300.843L1569.49 298.799C1568.65 298.052 1567.84 297.241 1567.12 296.429C1562.19 290.912 1559.5 283.836 1559.5 276.436C1559.5 259.883 1572.93 246.413 1589.49 246.413L1589.45 246.381ZM1605.1 253.294C1600.46 250.113 1595.07 248.458 1589.45 248.458C1574.07 248.458 1561.57 260.986 1561.57 276.371C1561.57 283.252 1564.11 289.841 1568.68 294.969C1569.36 295.748 1570.11 296.494 1570.89 297.176L1574.36 300.584L1574.27 300.714L1587.6 314.053H1627.17V275.365L1605.1 253.262V253.294Z" fill="white" fill-opacity="0.36"/>
<path d="M1493.48 180.201H1535.09L1557.55 202.726C1560.99 207.757 1562.74 213.599 1562.74 219.636C1562.74 236.189 1549.31 249.659 1532.75 249.659C1525.38 249.659 1518.28 246.933 1512.79 241.999C1511.95 241.253 1511.17 240.474 1510.45 239.662L1508.54 237.488L1508.28 237.682L1493.45 222.817V180.201H1493.48ZM1534.21 182.311H1495.59V221.941L1508.54 234.891L1508.9 234.631L1512.08 238.267C1512.73 239.013 1513.44 239.727 1514.22 240.409C1519.35 245.018 1525.94 247.549 1532.82 247.549C1548.2 247.549 1560.7 235.021 1560.7 219.636C1560.7 214.021 1559.04 208.633 1555.96 204.025L1534.25 182.278L1534.21 182.311Z" fill="white" fill-opacity="0.36"/>
<path d="M227.069 61.3442C234.502 66.7969 247.063 73.2559 264.525 73.2559H314.443V94.0932H264.849C264.395 94.0932 253.879 93.5739 243.785 87.3746C238.754 84.2912 234.535 80.299 231.321 75.4629C228.79 71.6655 226.81 67.3162 225.414 62.4477L224.57 59.4941L227.037 61.3117L227.069 61.3442ZM312.366 91.9835V75.3656H264.557C248.361 75.3656 236.287 69.9777 228.4 64.8171C229.634 68.29 231.224 71.4707 233.106 74.3269C236.157 78.8709 240.117 82.6684 244.921 85.5895C254.56 91.4966 264.557 91.9835 264.914 91.9835H312.366Z" fill="white" fill-opacity="0.36"/>
<path d="M314.444 61.9287H264.526C264.104 61.9287 263.714 61.9287 263.292 61.9287L260.825 61.8638L314.444 8.11523V61.8963V61.9287ZM312.334 59.819V13.211L265.824 59.819H312.334Z" fill="white" fill-opacity="0.36"/>
<path d="M202.856 2.01261C198.929 4.60916 195.229 7.62765 191.821 10.9058C187.602 14.9629 183.837 19.442 180.656 24.2456L178.741 27.1342V0.0976562H205.778L202.889 2.01261H202.856ZM180.818 20.3183C183.642 16.4235 186.855 12.7558 190.361 9.38032C193.054 6.78377 195.911 4.38196 198.929 2.1749H180.818V20.3183Z" fill="white" fill-opacity="0.36"/>
<path d="M247.387 59.2665L246.771 59.0393C241.513 57.2218 236.579 54.4954 232.165 50.9576C225.576 45.6996 222.331 40.3766 222.201 40.117L211.62 21.4867V42.9407C211.62 56.7349 214.346 68.6141 219.766 78.2538C222.071 82.3758 224.895 86.1408 228.173 89.4514L231.126 92.4375L227.102 91.2041C219.215 88.7698 211.879 84.9075 205.356 79.6819C196.333 72.4765 192.146 65.2711 192.081 65.2062L181.954 47.4522L182.084 46.9978C191.172 19.02 217.105 0.195027 246.576 0.195027L249.367 0.0976562H306.426L247.387 59.2665ZM223.986 39.0784C224.116 39.2731 227.167 44.3039 233.463 49.3347C237.52 52.5804 242.032 55.1121 246.835 56.8323L301.363 2.20735H249.4L246.576 2.30472C232.976 2.30472 220.188 6.42675 209.543 13.6646L223.953 39.0784H223.986ZM193.931 64.1675C193.931 64.1675 198.15 71.2107 206.686 78.0591C211.944 82.246 217.689 85.5242 223.856 87.861C221.617 85.232 219.637 82.3434 217.916 79.2924C212.334 69.3282 209.51 57.0919 209.51 42.9732V13.6971C197.923 21.5841 188.932 33.2037 184.259 47.1926L193.931 64.1026V64.1675ZM181.5 59.1692V68.0299C181.5 85.5891 184.973 100.714 191.854 112.95C196.625 121.486 203.051 128.627 210.938 134.242L213.632 136.157H178.741V68.8738L178.903 65.2062C179.001 63.1614 179.163 61.0841 179.455 59.0718L181.532 59.2016L181.5 59.1692ZM207.141 134.047C200.163 128.562 194.418 121.843 190.004 113.989C185.524 106.004 182.441 96.8191 180.818 86.5952V134.047H207.141Z" fill="white" fill-opacity="0.36"/>
<path d="M196.427 87.0177C196.979 87.5046 197.531 87.959 198.115 88.4134C207.885 96.2679 224.535 105.648 248.423 105.648H314.473V136.028H248.943C247.45 135.963 233.883 135.119 220.77 127.134C213.435 122.623 207.463 116.716 202.984 109.543C199.154 103.376 196.395 96.1706 194.74 88.0563L194.123 85.0703L196.427 87.0502V87.0177ZM312.363 133.918V107.758H248.423C224.438 107.758 207.56 98.5399 197.466 90.588C199.121 97.2416 201.556 103.246 204.769 108.439C209.053 115.353 214.798 121.033 221.841 125.349C234.499 133.074 247.547 133.885 248.943 133.95H312.331L312.363 133.918Z" fill="white" fill-opacity="0.36"/>
<path d="M25.1216 66.3737C25.1216 69.8465 25.5111 73.287 26.2901 76.5976L26.6796 78.2529L25.0243 77.8634C21.6812 77.0844 18.2408 76.6949 14.8328 76.6949H0V36.8379H25.1216V66.4061V66.3737ZM2.1097 74.5852H14.8328C17.8837 74.5852 20.9022 74.8774 23.8883 75.4616C23.304 72.4755 23.0119 69.4571 23.0119 66.3737V38.9151H2.1097V74.5852Z" fill="white" fill-opacity="0.36"/>
<path d="M88.0886 44.9515L88.186 45.0489C89.0624 46.0226 90.0035 46.9639 90.9448 47.8077L91.0421 47.9051C96.3975 54.007 99.3512 61.7967 99.3512 69.8784V99.6414H69.6531C61.766 99.6414 54.1387 96.8176 48.1342 91.657L48.0368 91.5596C46.9009 90.2938 45.7648 89.1578 44.5314 88.0543L44.4341 87.9569C39.3059 81.9524 36.5146 74.2926 36.5146 66.4055V36.6426H66.1802C74.2619 36.6426 82.0516 39.5962 88.121 44.984L88.0886 44.9515ZM38.5594 66.3731C38.5594 73.7408 41.1884 80.8813 45.9271 86.5288C47.1929 87.6323 48.3614 88.8008 49.4973 90.0991C55.1124 94.9027 62.2529 97.5317 69.5882 97.5317H97.1766V69.8784C97.1766 62.3484 94.4178 55.0456 89.4193 49.3332C88.4456 48.4569 87.5043 47.5156 86.5956 46.5095C80.9156 41.5111 73.6128 38.7523 66.0828 38.7523H38.4945V66.4055L38.5594 66.3731Z" fill="white" fill-opacity="0.36"/>
<path d="M76.4682 14.898C76.4682 18.3709 76.8577 21.8113 77.6691 25.1544L78.0586 26.8097L76.4033 26.4202C73.0602 25.6412 69.6198 25.2193 66.1469 25.2193H36.6436V0.0976562H76.5007V14.898H76.4682ZM38.7209 23.1096H66.1145C69.1979 23.1096 72.2488 23.4017 75.2348 24.0184C74.6506 21.0323 74.326 17.9814 74.326 14.898V2.20735H38.6884V23.142L38.7209 23.1096Z" fill="white" fill-opacity="0.36"/>
<path d="M59.4279 109.801C62.7385 110.58 66.1789 110.969 69.6193 110.969H99.5445V136.091H59.3305V121.258C59.3305 117.818 58.941 114.377 58.162 111.034L57.7725 109.379L59.4279 109.768V109.801ZM97.4349 134.014V113.079H69.6193C66.5684 113.079 63.5174 112.787 60.5638 112.203C61.1481 115.189 61.4402 118.24 61.4402 121.291V134.014H97.4349Z" fill="white" fill-opacity="0.36"/>
<path d="M110.741 58.325C114.085 59.104 117.525 59.5259 120.998 59.5259H135.766V99.8374H110.644V69.8472C110.644 66.3743 110.255 62.9339 109.443 59.5908L109.054 57.9355L110.709 58.325H110.741ZM133.688 97.7277V61.6356H121.03C117.947 61.6356 114.896 61.3435 111.91 60.7268C112.494 63.7129 112.819 66.7638 112.819 69.8472V97.7277H133.721H133.688Z" fill="white" fill-opacity="0.36"/>
<path d="M135.769 48.1338H121.001C112.887 48.1338 105.097 45.1803 99.0599 39.8249L98.995 39.76C98.1187 38.8187 97.1774 37.845 96.1388 36.8713C90.7834 30.8343 87.8623 23.0447 87.8623 14.898V0.0976562H135.834V48.1014L135.769 48.1338ZM89.9071 14.9304C89.9071 22.5254 92.6659 29.8282 97.5994 35.4107C98.6055 36.352 99.5792 37.2932 100.488 38.2994C106.136 43.2978 113.438 46.0566 121.001 46.0566H133.659V2.23981H89.9071V14.9304Z" fill="white" fill-opacity="0.36"/>
<path d="M25.2839 25.4465H0V0.0976562H25.2839V25.414V25.4465ZM2.10969 23.3368H23.1742V2.20735H2.10969V23.3368Z" fill="white" fill-opacity="0.36"/>
<path d="M36.3517 95.9754L36.4491 96.0727C37.5526 97.3061 38.7211 98.4746 39.9544 99.5781L40.0518 99.6755C45.18 105.68 47.9713 113.34 47.9713 121.259V136.092H0V88.0234H14.8328C22.7198 88.0234 30.3472 90.8472 36.3517 95.9754ZM2.1097 133.982H45.894V121.259C45.894 113.859 43.265 106.719 38.5263 101.104C37.293 100 36.0921 98.7991 34.9561 97.5333C29.341 92.7621 22.2005 90.1331 14.8653 90.1331H2.1097V133.982Z" fill="white" fill-opacity="0.36"/>
<path d="M135.768 136.091H110.874V111.164H135.768V136.091ZM112.983 133.981H133.691V113.274H112.983V133.981Z" fill="white" fill-opacity="0.36"/>
<path d="M55.1767 221.096C55.4688 226.711 56.832 232.099 59.2987 237.13L60.6295 239.888L57.8706 238.558C52.8398 236.091 47.452 234.695 41.8694 234.436L39.5 234.306L55.0469 218.727L55.1767 221.096ZM56.2478 235.507C54.6574 231.677 53.6512 227.652 53.2293 223.498L44.2712 232.488C48.3932 232.91 52.4179 233.916 56.2478 235.507ZM78.3509 256.214C83.6089 258.778 89.2564 260.174 95.1311 260.369L97.5654 260.434L81.2071 276.824L81.1422 274.39C80.9475 268.515 79.5518 262.868 76.9877 257.577L75.657 254.819L78.4158 256.182L78.3509 256.214ZM92.6969 262.349C88.3152 261.959 84.0633 260.953 79.9738 259.265C81.6615 263.322 82.6677 267.607 83.0572 271.988L92.6969 262.349Z" fill="white" fill-opacity="0.36"/>
<path d="M72.2166 185.491L72.0867 185.589C68.6463 188.088 65.6278 191.139 63.0962 194.579L15.5793 242.226L15.4495 242.323C12.009 244.855 8.9581 247.873 6.45892 251.346L0 257.838V179.584H78.1237L72.2166 185.491ZM2.1097 252.742L4.80362 250.048C7.43262 246.478 10.5809 243.297 14.1512 240.668L61.4409 193.248C64.0699 189.678 67.2182 186.53 70.7885 183.901L73.0604 181.629H2.1097V252.709V252.742Z" fill="white" fill-opacity="0.36"/>
<path d="M135.767 315.545H58.585L135.767 238.232V315.545ZM133.657 313.435V243.328L63.6482 313.435H133.657Z" fill="white" fill-opacity="0.36"/>
<path d="M412.009 41.5451C412.301 47.1602 413.696 52.5805 416.163 57.6437L417.526 60.4026L414.768 59.0394C409.737 56.5727 404.349 55.177 398.734 54.8849L396.365 54.7551L411.911 39.1758L412.041 41.5451H412.009ZM413.112 55.9884C411.522 52.1585 410.516 48.1014 410.094 43.9469L401.136 52.9375C405.29 53.3594 409.282 54.3656 413.145 55.956L413.112 55.9884ZM435.118 76.631C440.376 79.2276 446.056 80.6232 451.931 80.818L454.365 80.8829L437.974 97.306L437.909 94.8718C437.715 88.9646 436.319 83.3171 433.722 78.0267L432.359 75.2678L435.118 76.631ZM449.529 82.7978C445.115 82.4083 440.83 81.3697 436.773 79.682C438.461 83.7715 439.5 88.0234 439.857 92.4375L449.529 82.7654V82.7978Z" fill="white" fill-opacity="0.36"/>
<path d="M429.015 5.90715L428.885 6.00452C425.445 8.53616 422.426 11.5871 419.927 15.0275L372.378 62.6742L372.248 62.7716C368.808 65.3032 365.789 68.3217 363.257 71.7622L356.799 78.2535V0H434.922L428.983 5.90715H429.015ZM358.941 73.1903L361.635 70.4963C364.231 66.9261 367.38 63.7778 370.95 61.1488L418.272 13.7293C420.868 10.159 424.017 7.01069 427.587 4.38168L429.859 2.1097H358.941V73.1903Z" fill="white" fill-opacity="0.36"/>
<path d="M492.566 136.027H415.416L492.566 58.7148V136.027ZM490.456 133.917V63.8106L420.479 133.917H490.456Z" fill="white" fill-opacity="0.36"/>
<path d="M290.325 193.702C287.209 199.284 287.956 205.938 292.24 211.066C295.453 214.896 300.062 217.071 304.898 217.071C306.716 217.071 308.469 216.779 310.189 216.162C311.195 215.805 312.104 215.383 312.98 214.864L314.57 213.89V281.595L312.526 275.947C309.994 268.937 307.333 262.121 304.574 255.759C302.594 251.15 300.549 246.736 298.569 242.647L298.18 241.77L297.011 239.304C296.914 239.109 296.622 238.622 296.362 238.2L296.265 238.07C294.772 235.117 293.214 232.261 291.688 229.534C289.124 224.146 285.814 216.097 284.807 208.34C283.704 199.804 285.554 193.475 290.325 189.482L294.642 185.912L290.293 193.767L290.325 193.702ZM298.18 237.097C298.699 237.973 298.861 238.233 298.926 238.362L300.484 241.673L300.809 242.42C302.691 246.347 304.606 250.534 306.489 254.883C308.501 259.622 310.513 264.588 312.428 269.683V217.493C311.909 217.72 311.39 217.947 310.838 218.142C308.923 218.823 306.911 219.148 304.866 219.148C299.413 219.148 294.22 216.681 290.585 212.397C288.54 209.93 287.209 207.171 286.625 204.315C286.625 205.484 286.755 206.717 286.917 208.015C287.891 215.48 291.072 223.335 293.571 228.528C295.064 231.222 296.622 234.078 298.115 237.032L298.18 237.129V237.097Z" fill="white" fill-opacity="0.36"/>
<path d="M282.148 181.532C277.085 186.141 274.131 192.243 273.385 199.741L273.158 202.143L271.567 200.325C264.557 192.373 257.156 186.109 249.594 181.662L246.251 179.715H284.161L282.148 181.532ZM271.6 197.242C272.573 191.172 275.04 186.011 278.87 181.825H253.781C259.883 185.849 265.855 191.01 271.6 197.242Z" fill="white" fill-opacity="0.36"/>
<path d="M314.574 191.009L312.724 188.834C310.549 186.27 308.245 183.804 305.908 181.499L304.09 179.682H314.574V190.977V191.009ZM312.464 185.362V181.824H309.154C310.29 182.992 311.393 184.161 312.464 185.362Z" fill="white" fill-opacity="0.36"/>
<path d="M192.34 181.597C187.796 185.037 183.901 189.451 180.753 194.644L178.805 197.89V179.682H194.807L192.307 181.564L192.34 181.597ZM180.915 190.555C183.22 187.277 185.849 184.323 188.737 181.791H180.915V190.555Z" fill="white" fill-opacity="0.36"/>
<path d="M232.944 186.628C245.148 190.361 256.995 199.611 268.16 214.087C272.736 219.994 277.183 226.81 281.435 234.372C283.966 239.63 286.108 243.103 286.368 243.558C288.478 247.712 290.522 252.029 292.47 256.378L293.768 259.299L290.977 257.741C285.881 254.853 280.363 253.392 274.619 253.392C273.483 253.392 272.314 253.457 271.211 253.554C260.338 254.625 252.58 260.403 249.465 269.815C248.491 272.671 248.004 275.852 248.004 279.195C248.004 288.932 252.094 298.994 258.423 304.836C262.123 308.244 266.407 310.062 270.756 310.062C272.963 310.062 275.203 309.607 277.313 308.666C284.843 305.42 289.484 297.858 289.127 289.419C288.802 281.37 284.064 274.878 276.761 272.444L273.807 271.47L270.204 282.246L273.158 283.22C275.949 284.161 277.637 286.595 277.767 289.906C277.897 292.73 276.663 296.592 272.801 298.247C272.119 298.54 271.438 298.702 270.756 298.702C268.874 298.702 267.186 297.501 266.082 296.495C263.648 294.255 261.474 290.425 260.273 286.238C258.974 281.662 258.909 277.086 260.143 273.45C260.987 270.951 262.415 268.939 264.427 267.511C266.439 266.083 269.101 265.206 272.282 264.882C273.028 264.817 273.775 264.784 274.521 264.784C297.079 264.784 308.082 299.481 311.749 314.378L312.074 315.677H178.741V253.424L180.688 256.605C184.875 263.421 190.555 269.036 197.144 272.866C202.759 276.144 208.699 277.8 214.736 277.8C217.397 277.8 220.091 277.475 222.72 276.793C230.445 274.814 237.326 269.913 241.545 263.356C245.797 256.735 247.128 248.945 245.342 241.415C243.395 233.171 237.748 225.544 229.049 219.345L226.517 217.56L219.896 226.81L222.428 228.627C225.803 231.029 228.53 233.658 230.542 236.417C232.36 238.916 233.561 241.513 234.177 244.174C235.248 248.751 234.437 253.392 231.97 257.222C228.303 262.902 221.681 266.44 214.703 266.44C210.679 266.44 206.654 265.304 202.792 263.064C198.053 260.305 194.093 256.573 190.977 251.899C188.089 247.582 186.044 242.584 184.81 237.066C182.538 226.583 183.577 215.093 187.732 205.551C190.685 198.767 194.872 193.477 200.195 189.841C205.485 186.206 211.75 184.389 218.728 184.389C223.174 184.389 227.913 185.135 232.782 186.628H232.944ZM230.347 256.086C232.522 252.71 233.204 248.653 232.262 244.661C231.711 242.292 230.607 239.922 228.984 237.683C227.102 235.119 224.538 232.652 221.357 230.38L217.105 227.329L226.16 214.671L230.38 217.689C239.5 224.181 245.407 232.263 247.485 240.993C249.4 249.108 247.939 257.449 243.395 264.557C238.884 271.568 231.548 276.793 223.304 278.903C220.513 279.617 217.657 279.974 214.801 279.974C208.374 279.974 202.11 278.222 196.138 274.749C190.198 271.308 185.005 266.505 180.883 260.695V313.632H309.412C306.199 301.104 295.456 266.927 274.554 266.927C273.872 266.927 273.19 266.959 272.509 267.024C269.685 267.316 267.381 268.063 265.66 269.263C264.038 270.432 262.837 272.055 262.155 274.132C261.052 277.41 261.117 281.5 262.317 285.687C263.389 289.516 265.336 292.989 267.511 294.969C268.647 296.04 269.815 296.625 270.756 296.625C271.146 296.625 271.535 296.527 271.957 296.332C274.846 295.099 275.755 292.146 275.657 290.003C275.592 288.283 274.976 286.076 272.476 285.232L267.543 283.577L272.444 268.841L277.377 270.497C285.524 273.223 290.815 280.429 291.172 289.354C291.561 298.669 286.433 307.043 278.091 310.646C275.69 311.685 273.19 312.204 270.691 312.204C265.823 312.204 261.052 310.192 256.962 306.427C250.211 300.195 245.862 289.517 245.862 279.228C245.862 275.625 246.381 272.249 247.42 269.166C250.828 258.91 259.202 252.613 270.983 251.477C272.184 251.347 273.385 251.282 274.619 251.282C279.714 251.282 284.648 252.353 289.289 254.496C287.731 251.088 286.141 247.777 284.518 244.564C284.291 244.174 282.116 240.604 279.552 235.314C275.365 227.881 270.951 221.162 266.472 215.353C255.566 201.201 244.077 192.211 232.327 188.608C227.653 187.18 223.142 186.466 218.89 186.466C212.334 186.466 206.492 188.186 201.558 191.562C196.592 194.97 192.633 199.936 189.841 206.362C185.881 215.515 184.843 226.518 187.05 236.579C188.186 241.837 190.166 246.609 192.892 250.698C195.813 255.08 199.546 258.618 203.992 261.214C207.53 263.259 211.198 264.298 214.865 264.298C221.162 264.298 227.102 261.117 230.38 256.021L230.347 256.086Z" fill="white" fill-opacity="0.36"/>
<path d="M69.7823 275.752C69.7823 283.153 67.0884 290.261 62.1549 295.746C61.4084 296.59 60.597 297.401 59.7856 298.115L57.7083 300.16L57.8057 300.29L42.551 315.544H0V273.87L15.06 258.81L22.7523 251.085L22.947 250.923C27.9129 247.515 33.7552 245.697 39.8246 245.697C56.3451 245.697 69.8147 259.167 69.8147 275.72L69.7823 275.752ZM2.1097 274.779V313.467H41.6746L55.0144 300.127L54.917 299.998L58.3899 296.59C59.1689 295.908 59.9154 295.162 60.597 294.383C65.1734 289.254 67.6726 282.666 67.6726 275.785C67.6726 260.4 55.1767 247.872 39.7921 247.872C34.2096 247.872 28.8217 249.527 24.1479 252.708L2.07724 274.811L2.1097 274.779Z" fill="white" fill-opacity="0.36"/>
<path d="M135.769 222.199L120.936 237.064L120.677 236.87L118.762 239.044C118.048 239.856 117.269 240.635 116.425 241.381C110.907 246.315 103.832 249.041 96.4638 249.041C79.9432 249.041 66.4736 235.571 66.4736 219.018C66.4736 212.949 68.2588 207.139 71.6343 202.173L94.1593 179.551H135.769V222.167V222.199ZM73.322 203.407C70.2062 208.015 68.5833 213.403 68.5833 219.018C68.5833 234.403 81.0792 246.931 96.4638 246.931C103.312 246.931 109.933 244.4 115.062 239.791C115.841 239.109 116.555 238.395 117.204 237.649L120.385 234.013L120.742 234.273L133.659 221.323V181.693H95.0357L73.322 203.439V203.407Z" fill="white" fill-opacity="0.36"/>
<path d="M426.583 96.2016C426.583 103.569 423.889 110.645 419.021 116.163C418.242 117.039 417.43 117.85 416.586 118.597L414.639 120.512L414.704 120.609L399.352 135.994H356.833V94.3191L379.65 71.4694L379.813 71.3396C384.779 67.9641 390.588 66.1465 396.625 66.1465C413.146 66.1465 426.616 79.6161 426.616 96.1691L426.583 96.2016ZM358.91 95.1954V133.884H398.475L412.01 120.349L411.945 120.252L415.158 117.071C415.97 116.325 416.716 115.578 417.463 114.767C422.007 109.639 424.506 103.05 424.506 96.2016C424.506 80.817 412.01 68.2886 396.625 68.2886C391.043 68.2886 385.655 69.9439 381.079 73.0598L358.943 95.2279L358.91 95.1954Z" fill="white" fill-opacity="0.36"/>
<path d="M492.568 42.551L475.625 59.5259V59.461L475.268 59.7856C474.619 60.4996 473.937 61.1812 473.223 61.8304C467.706 66.7638 460.63 69.4577 453.262 69.4577C436.742 69.4577 423.272 55.9881 423.272 39.4351C423.272 33.3981 425.057 27.5883 428.433 22.59L436.223 14.7354L436.352 14.6381C436.547 14.5082 436.709 14.3459 436.839 14.2161L450.99 0H492.568V42.551ZM439.371 14.6056L438.365 15.6767C438.137 15.9039 437.91 16.0986 437.683 16.2934L430.153 23.8558C427.037 28.4322 425.414 33.8201 425.414 39.4351C425.414 54.8197 437.91 67.348 453.295 67.348C460.143 67.348 466.732 64.8164 471.86 60.2724C472.509 59.6557 473.158 59.0391 473.743 58.3899L475.755 56.1829L475.885 56.3451L490.49 41.7071V2.1097H451.867L439.403 14.6056H439.371Z" fill="white" fill-opacity="0.36"/>
<path d="M764.847 61.9926C772.279 67.4454 784.84 73.9043 802.302 73.9043H852.221V94.7416H802.627C802.172 94.7416 791.721 94.2548 781.562 88.023C776.531 84.9396 772.312 80.9474 769.099 76.1114C766.567 72.3139 764.587 67.9647 763.192 63.0962L762.348 60.1426L764.814 61.9602L764.847 61.9926ZM850.144 92.6319V76.014H802.335C786.139 76.014 774.065 70.6261 766.178 65.4655C767.411 68.9384 769.001 72.1192 770.884 74.9754C773.935 79.5193 777.895 83.3168 782.698 86.2379C792.37 92.1775 802.335 92.6319 802.692 92.6319H850.144Z" fill="white" fill-opacity="0.36"/>
<path d="M852.219 62.576H802.301C801.879 62.576 801.489 62.576 801.067 62.576L798.601 62.5111L852.219 8.79492V62.576ZM850.11 60.4663V13.8582L803.599 60.4663H850.11Z" fill="white" fill-opacity="0.36"/>
<path d="M740.633 2.66105C736.706 5.2576 733.006 8.27609 729.598 11.5542C725.378 15.6113 721.613 20.0904 718.433 24.894L716.518 27.7827V0.746094H743.554L740.666 2.66105H740.633ZM718.595 20.9667C721.419 17.0719 724.632 13.4043 728.137 10.0288C730.831 7.43221 733.687 5.0304 736.706 2.82333H718.595V20.9667Z" fill="white" fill-opacity="0.36"/>
<path d="M785.165 59.8837L784.548 59.6565C779.29 57.839 774.357 55.1126 769.943 51.5748C763.516 46.4466 760.335 41.3184 759.978 40.7342L749.397 22.1039V43.5579C749.397 57.3521 752.124 69.2313 757.544 78.871C759.849 82.993 762.672 86.758 765.95 90.0686L768.904 93.0547L764.879 91.8213C756.992 89.387 749.657 85.5247 743.133 80.2991C734.11 73.0937 729.923 65.8883 729.858 65.8233L719.732 48.0694L719.862 47.615C728.917 19.6372 754.85 0.812214 784.321 0.812214L787.112 0.714844H844.171L785.132 59.8837H785.165ZM761.763 39.6956C761.893 39.9228 765.009 44.9536 771.241 49.9519C775.298 53.1976 779.809 55.7293 784.613 57.4495L839.141 2.857H787.177L784.353 2.95437C770.754 2.95437 757.966 7.07639 747.32 14.3143L761.731 39.728L761.763 39.6956ZM731.708 64.7847C731.806 64.947 735.928 71.8279 744.464 78.6763C749.69 82.8632 755.467 86.1414 761.634 88.4782C759.394 85.8492 757.414 82.9606 755.694 79.9096C750.111 69.9454 747.288 57.7091 747.288 43.5904V14.3467C735.701 22.2338 726.71 33.8533 722.036 47.8422L731.708 64.7523V64.7847ZM719.277 59.7864V68.6471C719.277 86.2063 722.75 101.331 729.631 113.567C734.402 122.104 740.829 129.244 748.683 134.859L751.377 136.774H716.486V69.491L716.648 65.8233C716.746 63.7786 716.908 61.7013 717.2 59.689L719.277 59.8188V59.7864ZM744.918 134.664C737.94 129.179 732.195 122.461 727.781 114.606C723.302 106.622 720.219 97.4364 718.596 87.2124V134.664H744.918Z" fill="white" fill-opacity="0.36"/>
<path d="M734.209 87.6661C734.761 88.1529 735.313 88.6073 735.897 89.0617C745.667 96.9163 762.317 106.296 786.173 106.296H852.223V136.676H786.692C785.199 136.611 771.632 135.767 758.52 127.783C751.184 123.271 745.18 117.364 740.733 110.191C736.903 104.024 734.145 96.8189 732.489 88.7048L731.873 85.7188L734.177 87.6985L734.209 87.6661ZM850.145 134.566V108.406H786.205C762.22 108.406 745.342 99.1883 735.248 91.2363C736.903 97.89 739.338 103.895 742.551 109.088C746.835 116.001 752.58 121.681 759.623 125.998C772.281 133.722 785.329 134.534 786.725 134.599H850.113L850.145 134.566Z" fill="white" fill-opacity="0.36"/>
<path d="M983.315 63.1282C981.919 67.9642 979.94 72.3459 977.408 76.1434C974.195 80.947 970.008 84.9716 964.944 88.055C954.818 94.2868 944.334 94.7412 943.848 94.7736H894.286V73.9363H944.205C961.699 73.9363 974.227 67.4449 981.66 62.0246L984.127 60.207L983.283 63.1606L983.315 63.1282ZM896.396 92.6315H943.815C944.237 92.6315 954.169 92.1771 963.873 86.2375C968.645 83.3163 972.637 79.5189 975.688 74.9749C977.57 72.1512 979.161 68.9704 980.394 65.465C972.507 70.6257 960.433 76.0135 944.237 76.0135H896.428V92.6315H896.396Z" fill="white" fill-opacity="0.36"/>
<path d="M947.905 62.5123L945.438 62.5772C945.016 62.5772 944.627 62.5772 944.205 62.5772H894.286V8.76367L947.905 62.4798V62.5123ZM942.906 60.4675L896.396 13.8594V60.4675H942.906Z" fill="white" fill-opacity="0.36"/>
<path d="M1030.02 27.8159L1028.1 24.9272C1024.92 20.1236 1021.16 15.6445 1016.94 11.5874C1013.53 8.30929 1009.8 5.2908 1005.9 2.69425L1003.02 0.779297H1030.05V27.8483L1030.02 27.8159ZM1018.4 10.062C1021.91 13.4375 1025.12 17.1051 1027.94 20.9999V2.85654H1009.83C1012.85 5.0636 1015.71 7.46541 1018.4 10.062Z" fill="white" fill-opacity="0.36"/>
<path d="M959.426 0.746094L962.152 0.843464C991.655 0.843464 1017.56 19.636 1026.61 47.6463L1026.74 48.1007L1016.61 65.8546C1016.61 65.8546 1012.36 73.1249 1003.34 80.3304C996.816 85.5559 989.481 89.4183 981.594 91.8525L977.569 93.0859L980.523 90.0999C983.801 86.7893 986.624 83.0243 988.929 78.9023C994.349 69.2626 997.076 57.3833 997.076 43.5892V22.1352L986.495 40.7979C986.138 41.3496 982.957 46.4778 976.53 51.606C972.084 55.1438 967.183 57.8377 961.925 59.6878L961.308 59.915L902.302 0.746094H904.833H959.426ZM961.892 57.4807C966.696 55.728 971.207 53.1964 975.265 49.9832C981.496 44.9848 984.612 39.954 984.742 39.7593L999.185 14.3455C988.539 7.10764 975.719 2.98562 962.087 2.98562L959.393 2.88825H907.397L961.925 57.5132L961.892 57.4807ZM1002.04 78.6751C1010.64 71.7942 1014.76 64.8484 1014.8 64.7835L1024.47 47.841C1019.83 33.8521 1010.84 22.2325 999.218 14.3455V43.5892C999.218 57.7404 996.394 69.9442 990.811 79.9084C989.091 82.9594 987.111 85.8156 984.872 88.477C991.039 86.1401 996.816 82.8295 1002.04 78.6751ZM1029.86 65.7897L1030.02 69.4573V136.74H995.128L997.822 134.825C1005.71 129.21 1012.1 122.037 1016.87 113.534C1023.72 101.297 1027.23 86.1726 1027.23 68.6134V59.7527L1029.31 59.6229C1029.56 61.6352 1029.76 63.7124 1029.86 65.7572V65.7897ZM1027.91 134.663V87.2112C1026.25 97.4351 1023.2 106.62 1018.72 114.605C1014.31 122.459 1008.57 129.21 1001.59 134.663H1027.91Z" fill="white" fill-opacity="0.36"/>
<path d="M1014.02 88.6708C1012.36 96.7526 1009.61 103.99 1005.78 110.157C1001.33 117.33 995.357 123.27 987.989 127.749C974.909 135.733 961.342 136.577 959.784 136.642H894.286V106.262H960.336C984.224 106.262 1000.87 96.8824 1010.64 89.0279C1011.23 88.5735 1011.78 88.1191 1012.33 87.6322L1014.64 85.6523L1014.02 88.6384V88.6708ZM896.396 134.565H959.751C961.212 134.5 974.26 133.689 986.918 125.964C993.993 121.647 999.738 115.935 1003.99 109.054C1007.2 103.861 1009.67 97.8886 1011.29 91.2025C1001.2 99.1544 984.321 108.372 960.336 108.372H896.396V134.532V134.565Z" fill="white" fill-opacity="0.36"/>
<path d="M562.901 67.024C562.901 70.4969 563.291 73.9374 564.07 77.248L564.459 78.9033L562.804 78.5138C559.461 77.7348 556.021 77.3453 552.613 77.3453H537.78V37.4883H562.901V67.0565V67.024ZM539.89 75.2356H552.613C555.631 75.2356 558.682 75.5277 561.668 76.112C561.084 73.1259 560.792 70.1074 560.792 67.024V39.5655H539.89V75.2356Z" fill="white" fill-opacity="0.36"/>
<path d="M625.867 45.6019L625.965 45.6993C626.841 46.673 627.782 47.6143 628.724 48.4581L628.821 48.5555C634.176 54.6574 637.13 62.447 637.13 70.5288V100.292H607.432C599.545 100.292 591.918 97.468 585.913 92.3074L585.816 92.21C584.68 90.9442 583.511 89.8082 582.31 88.7047L582.213 88.6073C577.085 82.6028 574.293 74.9429 574.293 67.0559V37.293H603.959C612.041 37.293 619.83 40.2465 625.9 45.6344L625.867 45.6019ZM576.338 67.0235C576.338 74.3912 578.967 81.5317 583.706 87.1792C584.939 88.2827 586.108 89.4512 587.276 90.7494C592.891 95.5531 600.032 98.1821 607.367 98.1821H634.955V70.5288C634.955 62.9988 632.197 55.696 627.198 49.9836C626.224 49.1073 625.283 48.166 624.374 47.1599C618.694 42.1615 611.392 39.4027 603.862 39.4027H576.273V67.0559L576.338 67.0235Z" fill="white" fill-opacity="0.36"/>
<path d="M614.248 15.5464C614.248 19.0193 614.637 22.4597 615.449 25.8028L615.838 27.4581L614.183 27.0686C610.84 26.2897 607.4 25.8677 603.927 25.8677H574.423V0.746094H614.28V15.5464H614.248ZM576.501 23.758H603.894C606.978 23.758 610.029 24.0501 613.015 24.6668C612.43 21.6808 612.138 18.6298 612.138 15.5464V2.85579H576.501V23.7905V23.758Z" fill="white" fill-opacity="0.36"/>
<path d="M597.208 110.449C600.519 111.228 603.959 111.618 607.4 111.618H637.325V136.739H597.111V121.907C597.111 118.466 596.721 115.026 595.942 111.683L595.553 110.027L597.208 110.417V110.449ZM635.215 134.662V113.727H607.4C604.349 113.727 601.298 113.435 598.344 112.851C598.928 115.837 599.221 118.888 599.221 121.939V134.662H635.215Z" fill="white" fill-opacity="0.36"/>
<path d="M648.521 58.9735C651.864 59.7524 655.305 60.1744 658.778 60.1744H673.545V100.486H648.424V70.4957C648.424 67.0228 648.034 63.5823 647.223 60.2393L646.833 58.584L648.489 58.9735H648.521ZM671.468 98.3761V62.2841H658.778C655.694 62.2841 652.643 61.992 649.657 61.3753C650.241 64.3613 650.566 67.4123 650.566 70.4957V98.3761H671.468Z" fill="white" fill-opacity="0.36"/>
<path d="M673.545 48.7823H658.777C650.695 48.7823 642.873 45.8287 636.836 40.4733L636.771 40.4084C635.895 39.4671 634.954 38.4934 633.883 37.5197C628.527 31.4828 625.606 23.6931 625.606 15.5789V0.746094H673.578V48.7498L673.545 48.7823ZM627.683 15.5789C627.683 23.1738 630.442 30.4766 635.376 36.0592C636.382 37.0004 637.356 37.9741 638.264 38.9478C643.912 43.9462 651.215 46.705 658.777 46.705H671.468V2.88825H627.716V15.5789H627.683Z" fill="white" fill-opacity="0.36"/>
<path d="M563.064 26.0949H537.78V0.746094H563.064V26.0625V26.0949ZM539.89 23.9852H560.954V2.85579H539.89V23.9852Z" fill="white" fill-opacity="0.36"/>
<path d="M574.131 96.6238L574.229 96.7212C575.332 97.9545 576.501 99.1554 577.734 100.227L577.832 100.324C582.96 106.328 585.751 113.988 585.751 121.908V136.741H537.78V88.6719H552.613C560.5 88.6719 568.127 91.4956 574.131 96.6238ZM539.89 134.631H583.674V121.908C583.674 114.508 581.045 107.367 576.306 101.752C575.073 100.648 573.872 99.4476 572.736 98.1817C567.121 93.4106 559.98 90.7816 552.645 90.7816H539.922V134.631H539.89Z" fill="white" fill-opacity="0.36"/>
<path d="M673.543 136.741H648.649V111.814H673.543V136.741ZM650.759 134.632H671.466V113.924H650.759V134.632Z" fill="white" fill-opacity="0.36"/>
<path d="M592.956 221.746C593.248 227.361 594.612 232.748 597.078 237.779L598.409 240.538L595.65 239.175C590.619 236.708 585.232 235.313 579.649 235.053L577.28 234.923L592.826 219.344L592.956 221.713V221.746ZM594.027 236.156C592.437 232.327 591.431 228.302 591.009 224.18L582.051 233.17C586.173 233.592 590.197 234.598 594.027 236.189V236.156ZM616.13 256.864C621.388 259.428 627.036 260.824 632.911 261.018L635.345 261.083L618.987 277.474L618.922 275.04C618.727 269.165 617.331 263.518 614.767 258.227L613.437 255.468L616.195 256.831L616.13 256.864ZM630.476 262.998C626.095 262.609 621.843 261.603 617.753 259.915C619.441 263.972 620.447 268.256 620.837 272.638L630.476 262.998Z" fill="white" fill-opacity="0.36"/>
<path d="M609.996 186.14L609.867 186.237C606.426 188.736 603.408 191.787 600.876 195.228L553.359 242.874L553.229 242.972C549.789 245.503 546.738 248.522 544.239 251.995L537.78 258.486V180.232H615.904L609.996 186.14ZM539.89 253.423L542.583 250.729C545.212 247.159 548.361 243.978 551.931 241.349L599.221 193.929C601.85 190.359 604.998 187.211 608.568 184.582L610.84 182.31H539.89V253.39V253.423Z" fill="white" fill-opacity="0.36"/>
<path d="M673.545 316.195H596.363L673.545 238.883V316.195ZM671.435 314.085V243.979L601.426 314.085H671.435Z" fill="white" fill-opacity="0.36"/>
<path d="M607.562 276.403C607.562 283.803 604.868 290.911 599.935 296.396C599.188 297.24 598.409 298.019 597.565 298.766L595.488 300.81L595.585 300.94L580.331 316.195H537.78V274.52L552.84 259.46L560.532 251.735L560.727 251.573C565.693 248.165 571.535 246.348 577.604 246.348C594.125 246.348 607.595 259.817 607.595 276.37L607.562 276.403ZM539.89 275.429V314.118H579.454L592.794 300.778L592.697 300.648L596.17 297.24C596.949 296.558 597.695 295.812 598.377 295.033C602.953 289.905 605.485 283.316 605.485 276.435C605.485 261.051 592.989 248.522 577.604 248.522C572.022 248.522 566.634 250.178 561.96 253.358L539.89 275.461V275.429Z" fill="white" fill-opacity="0.36"/>
<path d="M673.546 222.848L658.713 237.714L658.453 237.519L656.538 239.693C655.824 240.505 655.045 241.284 654.201 242.03C648.684 246.964 641.608 249.69 634.24 249.69C617.72 249.69 604.25 236.221 604.25 219.668C604.25 213.598 606.035 207.788 609.443 202.758L631.903 180.232H673.513V222.848H673.546ZM611.099 204.056C607.983 208.665 606.36 214.052 606.36 219.668C606.36 235.052 618.856 247.58 634.24 247.58C641.089 247.58 647.71 245.049 652.838 240.44C653.617 239.758 654.331 239.012 654.98 238.298L658.161 234.663L658.518 234.922L671.468 221.972V182.342H632.845L611.131 204.088L611.099 204.056Z" fill="white" fill-opacity="0.36"/>
<path d="M785.456 455.76C785.456 463.128 782.762 470.203 777.893 475.721C777.114 476.597 776.303 477.376 775.459 478.155L773.512 480.07L773.577 480.168L758.225 495.552H715.706V453.878L738.523 431.028L738.686 430.898C743.619 427.523 749.461 425.705 755.498 425.705C772.019 425.705 785.488 439.175 785.488 455.728L785.456 455.76ZM717.783 454.754V493.443H757.348L768.546 482.245L770.85 479.908L770.785 479.811L773.999 476.63C774.81 475.883 775.557 475.137 776.303 474.325C780.847 469.197 783.346 462.609 783.346 455.76C783.346 440.376 770.85 427.847 755.466 427.847C749.883 427.847 744.495 429.502 739.919 432.618L717.783 454.786V454.754Z" fill="white" fill-opacity="0.36"/>
<path d="M851.443 402.108L834.5 419.083V419.018L834.143 419.342C833.494 420.056 832.813 420.738 832.099 421.387C826.581 426.288 819.505 429.014 812.138 429.014C795.617 429.014 782.146 415.545 782.146 398.992C782.146 392.955 783.932 387.145 787.307 382.147L795.065 374.325L795.195 374.227C795.39 374.097 795.552 373.935 795.682 373.805L809.801 359.557H851.378V402.108H851.443ZM798.245 374.162L797.24 375.233C797.013 375.461 796.785 375.655 796.557 375.85L789.028 383.412C785.912 387.989 784.289 393.377 784.289 398.992C784.289 414.376 796.785 426.905 812.169 426.905C819.017 426.905 825.606 424.373 830.734 419.829C831.383 419.212 832 418.596 832.617 417.947L834.63 415.739L834.728 415.902L849.333 401.264V361.666H810.71L798.245 374.162Z" fill="white" fill-opacity="0.36"/>
</svg>
