<svg width="3223" height="496" viewBox="0 0 3223 496" fill="none" xmlns="http://www.w3.org/2000/svg">
<path d="M3086.39 359.557H3108.56L3108.36 360.758C3107.55 365.918 3105.09 370.819 3101.35 374.552C3097.62 378.284 3092.75 380.751 3087.59 381.562L3086.39 381.757V359.557ZM3106.06 361.666H3088.5V379.258C3092.79 378.349 3096.78 376.175 3099.89 373.059C3103.01 369.943 3105.18 365.951 3106.09 361.666H3106.06Z" fill="white" fill-opacity="0.36"/>
<path d="M3221.93 456.928V461.569L3220.99 461.666C3216.84 462.056 3212.84 463.159 3209.11 464.945L3202.62 468.028L3207.97 463.224C3211.58 459.979 3215.99 457.901 3220.73 457.155L3221.93 456.96V456.928ZM3219.82 459.654V459.394C3219.08 459.557 3218.36 459.751 3217.65 459.979C3218.36 459.849 3219.08 459.751 3219.82 459.654Z" fill="white" fill-opacity="0.36"/>
<path d="M3222.12 400.291V445.503L3221.18 445.601C3202.45 447.353 3188.34 462.868 3188.34 481.758V495.552H3132.83L3204.99 423.27C3210.86 417.363 3215.99 410.775 3220.18 403.634L3222.12 400.291ZM3220.01 443.621V407.886C3216.12 413.955 3211.57 419.635 3206.45 424.763L3137.9 493.442H3186.23V481.758C3186.23 462.121 3200.7 445.86 3220.01 443.588V443.621Z" fill="white" fill-opacity="0.36"/>
<path d="M3192.14 359.557H3222.16L3222.06 360.693C3220.51 381.205 3211.61 400.582 3196.97 415.253L3116.81 495.551H3086.75L3086.85 494.415C3087.63 484.418 3090.09 474.714 3094.18 465.626C3098.5 456.051 3104.47 447.385 3111.97 439.887L3192.14 359.589V359.557ZM3219.89 361.666H3193.01L3113.46 441.348C3106.16 448.683 3100.32 457.122 3096.1 466.47C3092.27 475.006 3089.87 484.061 3089.02 493.441H3115.93L3195.48 413.76C3209.5 399.706 3218.14 381.27 3219.89 361.666Z" fill="white" fill-opacity="0.36"/>
<path d="M3119.98 359.557H3176.07L3103.92 431.806C3097.85 437.908 3092.62 444.756 3088.34 452.189L3086.39 455.597V409.183L3087.33 409.086C3105.96 407.268 3119.98 391.721 3119.98 372.929V359.557ZM3170.97 361.666H3122.06V372.929C3122.06 392.468 3107.68 408.696 3088.47 411.066V447.872C3092.43 441.543 3097.1 435.668 3102.43 430.345L3170.97 361.699V361.666Z" fill="white" fill-opacity="0.36"/>
<path d="M3105.7 386.724L3100.35 391.527C3096.75 394.773 3092.33 396.85 3087.59 397.597L3086.39 397.792V393.15L3087.33 393.053C3091.49 392.631 3095.48 391.56 3099.21 389.775L3105.7 386.691V386.724ZM3088.47 395.325C3089.22 395.163 3089.93 394.968 3090.64 394.741C3089.93 394.871 3089.22 394.968 3088.47 395.065V395.325Z" fill="white" fill-opacity="0.36"/>
<path d="M2638.78 419.082L2637.94 422.036C2636.54 426.872 2634.56 431.253 2632.03 435.051C2628.82 439.854 2624.63 443.879 2619.57 446.963C2609.44 453.194 2598.96 453.649 2598.5 453.681H2548.91V432.844H2598.83C2616.32 432.844 2628.85 426.352 2636.28 420.932L2638.75 419.115L2638.78 419.082ZM2598.47 451.539C2598.86 451.539 2608.79 451.085 2618.46 445.145C2623.23 442.224 2627.23 438.426 2630.28 433.882C2632.16 431.059 2633.75 427.878 2634.98 424.373C2627.1 429.533 2615.02 434.921 2598.83 434.921H2551.02V451.539H2598.47Z" fill="white" fill-opacity="0.36"/>
<path d="M2548.94 367.672L2602.56 421.388L2600.09 421.453C2599.67 421.453 2599.28 421.453 2598.86 421.453H2548.94V367.672ZM2597.53 419.343L2551.02 372.735V419.343H2597.53Z" fill="white" fill-opacity="0.36"/>
<path d="M2657.64 359.623H2684.67V386.692L2682.76 383.803C2679.58 379 2675.81 374.521 2671.59 370.464C2668.19 367.185 2664.45 364.167 2660.56 361.57L2657.67 359.655L2657.64 359.623ZM2682.56 361.733H2664.45C2667.47 363.94 2670.33 366.342 2673.02 368.938C2676.53 372.314 2679.74 375.981 2682.56 379.876V361.733Z" fill="white" fill-opacity="0.36"/>
<path d="M2556.95 359.623H2614.01L2616.8 359.72C2646.28 359.72 2672.21 378.513 2681.26 406.523L2681.39 406.978L2671.27 424.732C2671.1 425.024 2666.82 432.132 2658.02 439.207C2651.5 444.433 2644.17 448.295 2636.28 450.729L2632.25 451.963L2635.21 448.977C2638.49 445.666 2641.31 441.901 2643.61 437.779C2649.03 428.14 2651.76 416.26 2651.76 402.466V381.012L2641.18 399.642C2640.82 400.227 2637.67 405.322 2631.22 410.483C2626.8 414.021 2621.87 416.715 2616.61 418.565L2615.99 418.792L2556.95 359.623ZM2653.81 373.19C2643.16 365.952 2630.37 361.83 2616.77 361.83L2613.95 361.733H2561.98L2616.51 416.358C2621.32 414.605 2625.83 412.073 2629.88 408.86C2636.15 403.862 2639.23 398.831 2639.36 398.604L2653.77 373.19H2653.81ZM2679.12 406.75C2674.48 392.762 2665.46 381.142 2653.87 373.255V402.499C2653.87 416.65 2651.05 428.854 2645.46 438.818C2643.74 441.869 2641.76 444.725 2639.52 447.386C2645.69 445.05 2651.47 441.739 2656.69 437.584C2665.17 430.801 2669.22 424.05 2669.45 423.693L2679.12 406.783V406.75ZM2683.99 418.532C2684.25 420.577 2684.44 422.622 2684.54 424.667L2684.7 428.334V495.617H2649.81L2652.51 493.702C2660.39 488.087 2666.79 480.914 2671.59 472.411C2678.44 460.174 2681.95 445.05 2681.95 427.49V418.63L2684.02 418.5L2683.99 418.532ZM2682.59 493.54V446.088C2680.94 456.312 2677.89 465.465 2673.41 473.482C2669 481.336 2663.25 488.087 2656.27 493.54H2682.59Z" fill="white" fill-opacity="0.36"/>
<path d="M2669.26 444.56L2668.64 447.546C2666.98 455.66 2664.19 462.865 2660.4 469.032C2655.95 476.205 2649.98 482.145 2642.61 486.624C2629.53 494.608 2615.96 495.452 2614.44 495.517H2548.91V465.137H2614.96C2638.84 465.137 2655.5 455.757 2665.23 447.903C2665.82 447.448 2666.37 446.994 2666.92 446.507L2669.22 444.527L2669.26 444.56ZM2614.4 493.44C2615.8 493.375 2628.88 492.564 2641.51 484.839C2648.58 480.522 2654.33 474.81 2658.58 467.929C2661.79 462.736 2664.26 456.764 2665.88 450.077C2655.79 458.029 2638.91 467.28 2614.92 467.28H2550.98V493.44H2614.37H2614.4Z" fill="white" fill-opacity="0.36"/>
<path d="M2838.26 396.333H2863.38V436.19H2848.55C2845.11 436.19 2841.7 436.58 2838.36 437.359L2836.7 437.748L2837.09 436.093C2837.87 432.782 2838.26 429.342 2838.26 425.869V396.301V396.333ZM2861.27 398.443H2840.37V425.901C2840.37 428.952 2840.08 432.003 2839.49 434.989C2842.48 434.405 2845.53 434.113 2848.55 434.113H2861.27V398.443Z" fill="white" fill-opacity="0.36"/>
<path d="M2797.24 396.138H2826.9V425.901C2826.9 433.788 2824.08 441.448 2818.98 447.452L2818.88 447.55C2817.65 448.653 2816.52 449.789 2815.38 451.055L2815.28 451.152C2809.28 456.313 2801.65 459.137 2793.76 459.137H2764.07V429.374C2764.07 421.292 2767.02 413.502 2772.37 407.4L2772.47 407.303C2773.41 406.459 2774.35 405.518 2775.23 404.544L2775.33 404.447C2781.4 399.059 2789.19 396.105 2797.27 396.105L2797.24 396.138ZM2824.82 398.248H2797.24C2789.71 398.248 2782.4 401.006 2776.72 406.005C2775.81 407.011 2774.87 407.952 2773.9 408.829C2768.9 414.541 2766.14 421.811 2766.14 429.374V457.027H2793.73C2801.07 457.027 2808.21 454.398 2813.82 449.594C2814.99 448.296 2816.16 447.128 2817.39 446.024C2822.16 440.409 2824.76 433.269 2824.76 425.868V398.215L2824.82 398.248Z" fill="white" fill-opacity="0.36"/>
<path d="M2786.91 359.654H2826.77V384.776H2797.27C2793.79 384.776 2790.35 385.165 2787.01 385.977L2785.35 386.366L2785.74 384.711C2786.52 381.368 2786.95 377.928 2786.95 374.455V359.654H2786.91ZM2824.66 361.764H2789.02V374.455C2789.02 377.538 2788.73 380.589 2788.15 383.575C2791.13 382.991 2794.22 382.666 2797.27 382.666H2824.66V361.732V361.764Z" fill="white" fill-opacity="0.36"/>
<path d="M2754.29 417.461L2753.9 419.116C2753.12 422.459 2752.7 425.9 2752.7 429.373V459.363H2727.58V419.051H2742.35C2745.82 419.051 2749.26 418.662 2752.61 417.85L2754.26 417.461H2754.29ZM2750.63 457.253V429.373C2750.63 426.289 2750.92 423.238 2751.53 420.252C2748.55 420.836 2745.46 421.161 2742.41 421.161H2729.72V457.253H2750.63Z" fill="white" fill-opacity="0.36"/>
<path d="M2727.61 359.654H2775.58V374.455C2775.58 382.569 2772.63 390.359 2767.31 396.395C2766.27 397.369 2765.33 398.31 2764.42 399.284L2764.35 399.349C2758.32 404.704 2750.5 407.658 2742.41 407.658H2727.65V359.654H2727.61ZM2773.47 361.764H2729.72V405.581H2742.41C2749.98 405.581 2757.28 402.822 2762.93 397.824C2763.84 396.85 2764.81 395.876 2765.82 394.935C2770.75 389.352 2773.51 382.05 2773.51 374.455V361.764H2773.47Z" fill="white" fill-opacity="0.36"/>
<path d="M2838.1 359.654H2863.38V384.971H2838.1V359.654ZM2861.27 361.764H2840.21V382.893H2861.27V361.764Z" fill="white" fill-opacity="0.36"/>
<path d="M2848.55 447.547H2863.38V495.616H2815.41V480.783C2815.41 472.863 2818.23 465.203 2823.33 459.199L2823.43 459.102C2824.63 458.03 2825.83 456.862 2826.93 455.596L2827.03 455.499C2833.03 450.371 2840.66 447.547 2848.55 447.547ZM2861.27 449.657H2848.55C2841.18 449.657 2834.04 452.286 2828.46 457.057C2827.32 458.323 2826.12 459.523 2824.89 460.627C2820.12 466.242 2817.52 473.415 2817.52 480.783V493.506H2861.3V449.657H2861.27Z" fill="white" fill-opacity="0.36"/>
<path d="M2451.47 398.701L2467.02 414.28L2464.65 414.41C2459.03 414.702 2453.65 416.098 2448.62 418.565L2445.86 419.928L2447.22 417.169C2449.69 412.138 2451.08 406.718 2451.37 401.071L2451.5 398.701H2451.47ZM2462.25 412.495L2453.29 403.505C2452.87 407.659 2451.86 411.684 2450.27 415.546C2454.1 413.956 2458.13 412.95 2462.28 412.528L2462.25 412.495ZM2430.99 434.826L2429.63 437.585C2427.03 442.875 2425.64 448.522 2425.44 454.43L2425.38 456.864L2408.99 440.441L2411.42 440.376C2417.33 440.181 2422.97 438.785 2428.23 436.189L2430.99 434.826ZM2423.49 451.995C2423.88 447.581 2424.92 443.297 2426.58 439.24C2422.49 440.928 2418.24 441.966 2413.82 442.356L2423.49 452.028V451.995Z" fill="white" fill-opacity="0.36"/>
<path d="M2428.43 359.525H2506.55V437.779L2500.09 431.288C2497.59 427.847 2494.57 424.796 2491.1 422.297L2490.97 422.2L2443.42 374.553C2440.92 371.113 2437.9 368.062 2434.46 365.53L2434.33 365.433L2428.39 359.525H2428.43ZM2504.44 361.635H2433.52L2435.79 363.907C2439.36 366.536 2442.51 369.684 2445.11 373.255L2492.43 420.674C2496 423.303 2499.15 426.452 2501.75 430.022L2504.44 432.716V361.635Z" fill="white" fill-opacity="0.36"/>
<path d="M2370.82 418.24L2447.97 495.552H2370.82V418.24ZM2442.9 493.443L2372.93 423.336V493.443H2442.9Z" fill="white" fill-opacity="0.36"/>
<path d="M2466.76 425.705C2472.8 425.705 2478.64 427.49 2483.57 430.898L2483.73 431.028L2506.55 453.878V495.552H2464.03L2448.68 480.168L2448.75 480.07L2446.8 478.155C2445.95 477.376 2445.14 476.565 2444.36 475.721C2439.46 470.203 2436.8 463.128 2436.8 455.76C2436.8 439.207 2450.24 425.738 2466.79 425.738L2466.76 425.705ZM2482.31 432.586C2477.73 429.47 2472.34 427.815 2466.76 427.815C2451.37 427.815 2438.88 440.343 2438.88 455.728C2438.88 462.576 2441.38 469.165 2445.92 474.293C2446.67 475.104 2447.42 475.851 2448.23 476.597L2451.44 479.778L2451.37 479.876L2453.68 482.213L2464.88 493.41H2504.44V454.722L2482.31 432.553V432.586Z" fill="white" fill-opacity="0.36"/>
<path d="M2370.81 359.525H2412.39L2426.51 373.774C2426.51 373.774 2426.83 374.066 2427 374.196L2427.13 374.293L2434.88 382.115C2438.26 387.114 2440.04 392.924 2440.04 398.961C2440.04 415.514 2426.61 428.983 2410.05 428.983C2402.69 428.983 2395.58 426.289 2390.09 421.356C2389.38 420.707 2388.7 420.025 2388.05 419.311L2387.76 418.986V419.051L2370.78 402.076V359.525H2370.81ZM2411.55 361.635H2372.92V401.233L2387.53 415.871L2387.63 415.708L2389.64 417.915C2390.25 418.597 2390.87 419.214 2391.52 419.798C2396.62 424.374 2403.24 426.873 2410.09 426.873C2425.47 426.873 2437.97 414.345 2437.97 398.961C2437.97 393.345 2436.31 387.958 2433.23 383.381L2425.7 375.819C2425.44 375.624 2425.21 375.429 2425.02 375.202L2424.01 374.131L2411.55 361.635Z" fill="white" fill-opacity="0.36"/>
<path d="M135.866 381.757L134.665 381.562C129.504 380.751 124.603 378.252 120.903 374.552C117.203 370.852 114.704 365.951 113.892 360.758L113.698 359.557H135.866V381.757ZM122.396 373.059C125.512 376.175 129.504 378.349 133.788 379.258V361.666H116.229C117.138 365.951 119.313 369.975 122.428 373.059H122.396Z" fill="white" fill-opacity="0.36"/>
<path d="M1.52415 457.122C6.29531 457.868 10.7095 459.978 14.2797 463.191L19.6351 467.995L13.1438 464.911C9.41117 463.126 5.41898 462.055 1.2645 461.633L0.323242 461.536V456.895L1.52415 457.089V457.122ZM4.5751 460.01C3.86105 459.783 3.14699 459.588 2.40049 459.426V459.686C3.11454 459.783 3.86105 459.881 4.5751 460.01Z" fill="white" fill-opacity="0.36"/>
<path d="M2.07827 403.634C6.2652 410.775 11.3934 417.396 17.268 423.27L89.4197 495.552H33.9184V481.758C33.9184 462.868 19.7997 447.321 1.0721 445.601L0.130859 445.503V400.291L2.07827 403.634ZM36.0281 481.79V493.475H84.3564L15.8075 424.796C10.6793 419.668 6.13538 413.988 2.24055 407.918V443.653C21.5848 445.925 36.0281 462.154 36.0281 481.823V481.79Z" fill="white" fill-opacity="0.36"/>
<path d="M110.289 439.887C117.787 447.385 123.759 456.051 128.076 465.626C132.165 474.746 134.632 484.418 135.411 494.415L135.508 495.551H105.453L25.2851 415.253C10.6471 400.582 1.75393 381.205 0.196003 360.693L0.0986328 359.557H30.1212L110.289 439.855V439.887ZM26.7781 413.76L106.33 493.441H133.237C132.393 484.094 129.991 475.038 126.161 466.47C121.942 457.122 116.132 448.651 108.796 441.348L29.2449 361.666H2.37061C4.12328 381.27 12.7568 399.706 26.7781 413.76Z" fill="white" fill-opacity="0.36"/>
<path d="M102.239 372.929C102.239 391.689 116.293 407.236 134.89 409.086L135.832 409.183V455.597L133.884 452.189C129.632 444.756 124.374 437.908 118.305 431.806L46.1533 359.557H102.239V372.929ZM119.798 430.313C125.088 435.636 129.762 441.51 133.754 447.839V411.033C114.54 408.664 100.162 392.435 100.162 372.896V361.634H51.249L119.798 430.28V430.313Z" fill="white" fill-opacity="0.36"/>
<path d="M123.013 389.776C126.745 391.528 130.738 392.632 134.892 393.054L135.833 393.151V397.792L134.632 397.598C129.861 396.851 125.447 394.741 121.877 391.528L116.521 386.725L123.013 389.808V389.776ZM133.756 395.034C133.042 394.936 132.296 394.839 131.581 394.709C132.296 394.936 133.01 395.131 133.756 395.293V395.034Z" fill="white" fill-opacity="0.36"/>
<path d="M585.912 420.868C593.345 426.32 605.906 432.779 623.368 432.779H673.286V453.617H623.692C623.238 453.617 612.787 453.13 602.628 446.898C597.597 443.815 593.377 439.822 590.164 434.986C587.632 431.189 585.653 426.84 584.257 421.971L583.413 419.018L585.88 420.835L585.912 420.868ZM671.209 451.507V434.889H623.4C607.204 434.889 595.13 429.501 587.243 424.341C588.476 427.813 590.067 430.994 591.949 433.85C595 438.394 598.96 442.192 603.764 445.113C613.436 451.052 623.4 451.507 623.757 451.507H671.209Z" fill="white" fill-opacity="0.36"/>
<path d="M673.318 421.453H623.4C622.978 421.453 622.588 421.453 622.166 421.453L619.7 421.388L673.318 367.672V421.453ZM671.209 419.343V372.735L624.698 419.343H671.209Z" fill="white" fill-opacity="0.36"/>
<path d="M561.699 361.569C557.772 364.198 554.072 367.184 550.664 370.462C546.444 374.519 542.679 378.998 539.499 383.801L537.584 386.69V359.621H564.62L561.732 361.536L561.699 361.569ZM539.661 379.874C542.485 375.979 545.698 372.312 549.203 368.936C551.897 366.34 554.753 363.938 557.772 361.731H539.661V379.874Z" fill="white" fill-opacity="0.36"/>
<path d="M606.262 418.79L605.645 418.563C600.387 416.745 595.453 414.019 591.039 410.481C584.58 405.32 581.4 400.225 581.075 399.64L570.494 381.01V402.464C570.494 416.258 573.22 428.138 578.641 437.777C580.945 441.899 583.769 445.664 587.047 448.975L590.001 451.961L585.976 450.728C578.089 448.293 570.754 444.431 564.23 439.205C555.402 432.162 551.15 425.054 550.988 424.73L540.861 406.976L540.991 406.521C550.046 378.543 575.979 359.718 605.45 359.718L608.241 359.621H665.301L606.262 418.79ZM582.86 398.602C582.99 398.829 586.073 403.86 592.338 408.858C596.395 412.104 600.906 414.635 605.71 416.356L660.237 361.731H608.274L605.45 361.828C591.851 361.828 579.063 365.95 568.417 373.188L582.828 398.602H582.86ZM552.805 423.659C553 424.016 557.089 430.767 565.561 437.55C570.819 441.737 576.564 445.015 582.73 447.352C580.491 444.723 578.511 441.834 576.791 438.783C571.208 428.819 568.384 416.583 568.384 402.464V373.221C556.797 381.108 547.807 392.727 543.133 406.716L552.805 423.626V423.659ZM540.374 418.66V427.521C540.374 445.08 543.847 460.205 550.728 472.441C555.499 480.977 561.925 488.118 569.813 493.733L572.506 495.648H537.615V428.365L537.778 424.697C537.875 422.652 538.037 420.575 538.329 418.563L540.407 418.693L540.374 418.66ZM566.015 493.538C559.037 488.053 553.292 481.334 548.878 473.48C544.399 465.495 541.315 456.31 539.693 446.086V493.538H566.015Z" fill="white" fill-opacity="0.36"/>
<path d="M555.274 446.541C555.826 447.028 556.378 447.482 556.962 447.937C566.731 455.791 583.382 465.171 607.238 465.171H673.287V495.551H607.758C606.265 495.486 592.697 494.642 579.584 486.658C572.249 482.146 566.245 476.239 561.798 469.066C557.968 462.899 555.21 455.694 553.555 447.58L552.938 444.594L555.242 446.574L555.274 446.541ZM671.211 493.441V467.281H607.271C583.285 467.281 566.407 458.063 556.313 450.079C557.968 456.733 560.403 462.737 563.617 467.93C567.901 474.844 573.645 480.524 580.688 484.84C593.346 492.565 606.394 493.376 607.789 493.441H671.178H671.211Z" fill="white" fill-opacity="0.36"/>
<path d="M383.999 425.899C383.999 429.372 384.389 432.812 385.168 436.123L385.557 437.778L383.902 437.389C380.559 436.61 377.151 436.22 373.71 436.22H358.877V396.363H383.999V425.931V425.899ZM360.987 434.111H373.71C376.761 434.111 379.78 434.403 382.766 434.987C382.181 432.001 381.889 428.982 381.889 425.899V398.441H360.987V434.111Z" fill="white" fill-opacity="0.36"/>
<path d="M446.929 404.479L447.027 404.576C447.903 405.55 448.844 406.491 449.786 407.335L449.883 407.432C455.238 413.534 458.192 421.324 458.192 429.406V459.169H428.494C420.607 459.169 412.98 456.345 406.975 451.184L406.878 451.087C405.742 449.821 404.573 448.685 403.372 447.582L403.275 447.484C398.147 441.48 395.355 433.82 395.355 425.933V396.17H425.021C433.103 396.17 440.892 399.123 446.962 404.511L446.929 404.479ZM397.4 425.9C397.4 433.268 400.029 440.409 404.768 446.056C406.001 447.16 407.17 448.328 408.338 449.626C413.953 454.43 421.094 457.059 428.429 457.059H456.017V429.406C456.017 421.843 453.259 414.573 448.26 408.861C447.286 407.984 446.345 407.043 445.436 406.037C439.756 401.038 432.454 398.28 424.924 398.28H397.335V425.933L397.4 425.9Z" fill="white" fill-opacity="0.36"/>
<path d="M435.345 374.455C435.345 377.928 435.735 381.368 436.546 384.711L436.936 386.366L435.28 385.977C431.937 385.198 428.497 384.776 425.024 384.776H395.521V359.654H435.378V374.455H435.345ZM397.598 382.666H424.992C428.075 382.666 431.126 382.958 434.112 383.575C433.528 380.589 433.236 377.538 433.236 374.455V361.764H397.598V382.699V382.666Z" fill="white" fill-opacity="0.36"/>
<path d="M469.587 417.85C472.93 418.629 476.37 419.051 479.843 419.051H494.611V459.363H469.489V429.373C469.489 425.9 469.1 422.459 468.288 419.116L467.899 417.461L469.554 417.85H469.587ZM492.534 457.253V421.161H479.843C476.76 421.161 473.709 420.869 470.723 420.252C471.307 423.238 471.631 426.289 471.631 429.373V457.253H492.534Z" fill="white" fill-opacity="0.36"/>
<path d="M494.642 407.658H479.874C471.792 407.658 463.97 404.704 457.933 399.349L457.868 399.284C456.992 398.343 456.051 397.369 454.98 396.395C449.624 390.359 446.703 382.569 446.703 374.455V359.654H494.674V407.658H494.642ZM448.78 374.455C448.78 382.05 451.539 389.352 456.473 394.935C457.479 395.876 458.453 396.85 459.361 397.824C465.009 402.822 472.312 405.581 479.874 405.581H492.565V361.764H448.813V374.455H448.78Z" fill="white" fill-opacity="0.36"/>
<path d="M384.161 384.971H358.877V359.654H384.161V384.971ZM360.987 382.861H382.052V361.732H360.987V382.861Z" fill="white" fill-opacity="0.36"/>
<path d="M395.229 455.499L395.327 455.596C396.43 456.83 397.598 458.03 398.832 459.102L398.929 459.199C404.057 465.203 406.849 472.863 406.849 480.783V495.616H358.877V447.547H373.71C381.597 447.547 389.225 450.371 395.229 455.499ZM360.987 493.506H404.771V480.783C404.771 473.383 402.142 466.242 397.404 460.627C396.17 459.523 394.969 458.323 393.833 457.057C388.218 452.286 381.078 449.657 373.743 449.657H361.02V493.506H360.987Z" fill="white" fill-opacity="0.36"/>
<path d="M770.885 401.071C771.177 406.686 772.572 412.106 775.039 417.169L776.402 419.928L773.644 418.565C768.613 416.098 763.225 414.702 757.61 414.41L755.24 414.28L770.787 398.701L770.917 401.071H770.885ZM771.988 415.514C770.398 411.651 769.392 407.627 768.97 403.472L760.012 412.463C764.166 412.885 768.158 413.891 772.021 415.481L771.988 415.514ZM793.994 436.156C799.252 438.753 804.932 440.149 810.807 440.343L813.241 440.408L796.85 456.831L796.785 454.397C796.591 448.49 795.195 442.843 792.598 437.552L791.235 434.793L793.994 436.156ZM808.405 442.323C803.991 441.934 799.706 440.895 795.649 439.207C797.337 443.297 798.376 447.549 798.733 451.963L808.405 442.291V442.323Z" fill="white" fill-opacity="0.36"/>
<path d="M787.891 365.464L787.761 365.561C784.32 368.093 781.302 371.144 778.803 374.584L731.253 422.231L731.124 422.328C727.683 424.86 724.665 427.878 722.133 431.319L715.674 437.81V359.557H793.798L787.858 365.464H787.891ZM717.816 432.714L720.51 430.021C723.107 426.45 726.255 423.302 729.825 420.673L777.147 373.253C779.744 369.683 782.892 366.535 786.463 363.906L788.735 361.634H717.816V432.714Z" fill="white" fill-opacity="0.36"/>
<path d="M851.441 495.551H774.291L851.441 418.238V495.551ZM849.331 493.441V423.334L779.354 493.441H849.331Z" fill="white" fill-opacity="0.36"/>
<path d="M2997.65 59.5586L2996.81 62.5122C2995.41 67.3482 2993.43 71.7299 2990.9 75.5274C2987.69 80.331 2983.5 84.3557 2978.44 87.4391C2968.34 93.6383 2957.83 94.1252 2957.37 94.1576H2907.78V73.3203H2957.7C2975.19 73.3203 2987.72 66.8289 2995.15 61.4086L2997.62 59.5911L2997.65 59.5586ZM2957.34 92.0155C2957.73 92.0155 2967.7 91.5286 2977.34 85.6215C2982.11 82.7003 2986.1 78.9029 2989.15 74.3589C2991.03 71.5352 2992.62 68.3544 2993.86 64.8491C2985.97 70.0097 2973.89 75.3975 2957.7 75.3975H2909.89V92.0155H2957.34Z" fill="white" fill-opacity="0.36"/>
<path d="M2907.78 8.11523L2961.37 61.8314L2958.9 61.8963C2958.48 61.8963 2958.09 61.8963 2957.67 61.8963H2907.75V8.11523H2907.78ZM2956.37 59.7866L2909.86 13.1785V59.7866H2956.37Z" fill="white" fill-opacity="0.36"/>
<path d="M3016.51 0.0976562H3043.55V27.1667L3041.63 24.278C3038.45 19.4744 3034.69 14.9954 3030.47 10.9383C3027.06 7.66011 3023.33 4.64162 3019.43 2.04507L3016.54 0.130113L3016.51 0.0976562ZM3041.44 2.20735H3023.33C3026.35 4.41442 3029.2 6.81623 3031.9 9.41278C3035.4 12.7883 3038.61 16.4559 3041.44 20.3507V2.20735Z" fill="white" fill-opacity="0.36"/>
<path d="M2915.8 0.0976562H2972.86L2975.65 0.195027C3005.12 0.195027 3031.06 18.9876 3040.11 46.9978L3040.24 47.4522L3030.11 65.2062C3030.11 65.2062 3025.86 72.4765 3016.84 79.6819C3010.32 84.9075 3002.98 88.7698 2995.09 91.2041L2991.07 92.4375L2994.02 89.4514C2997.3 86.1408 3000.12 82.3758 3002.43 78.2538C3007.85 68.6141 3010.57 56.7349 3010.57 42.9407V21.4867L2999.99 40.117C2999.83 40.3766 2996.62 45.6996 2990.03 50.9576C2985.58 54.4954 2980.68 57.1893 2975.42 59.0393L2974.81 59.2665L2915.8 0.0976562ZM3012.65 13.6646C3002.01 6.42675 2989.22 2.30472 2975.62 2.30472L2972.8 2.20735H2920.83L2975.36 56.8323C2980.16 55.0796 2984.67 52.548 2988.73 49.3347C2995.03 44.3039 2998.08 39.3056 2998.21 39.0784L3012.62 13.6646H3012.65ZM3037.97 47.225C3033.33 33.2361 3024.3 21.6166 3012.72 13.7295V42.9732C3012.72 57.1244 3009.89 69.3282 3004.31 79.2924C3002.59 82.3434 3000.61 85.1996 2998.37 87.861C3004.54 85.5242 3010.32 82.2136 3015.54 78.0591C3024.08 71.2107 3028.2 64.3298 3028.3 64.1675L3037.97 47.2575V47.225ZM3042.84 59.0069C3043.1 61.0192 3043.29 63.0965 3043.39 65.1412L3043.55 68.8089V136.092H3008.66L3011.35 134.177C3019.24 128.562 3025.63 121.389 3030.44 112.885C3037.29 100.649 3040.79 85.5242 3040.79 67.965V59.1043L3042.87 58.9744L3042.84 59.0069ZM3041.44 134.015V86.5628C3039.79 96.7867 3036.74 105.972 3032.26 113.956C3027.84 121.811 3022.1 128.562 3015.12 134.015H3041.44Z" fill="white" fill-opacity="0.36"/>
<path d="M3028.13 85.0364L3027.51 88.0224C3025.86 96.1042 3023.07 103.342 3019.27 109.509C3014.82 116.682 3008.82 122.621 3001.48 127.1C2988.37 135.085 2974.84 135.929 2973.31 135.994H2907.78V105.614H2973.83C2997.72 105.614 3014.37 96.234 3024.14 88.3794C3024.69 87.925 3025.27 87.4706 3025.83 86.9838L3028.13 85.0039V85.0364ZM2973.28 133.916C2974.67 133.851 2987.72 133.04 3000.38 125.315C3007.42 120.999 3013.2 115.286 3017.45 108.405C3020.67 103.212 3023.13 97.2401 3024.75 90.554C3014.66 98.506 2997.78 107.724 2973.8 107.724H2909.86V133.884H2973.25L2973.28 133.916Z" fill="white" fill-opacity="0.36"/>
<path d="M3197.13 36.8078H3222.26V76.6649H3207.42C3204.02 76.6649 3200.57 77.0544 3197.23 77.8333L3195.58 78.2228L3195.97 76.5675C3196.74 73.2569 3197.13 69.8165 3197.13 66.3436V36.7754V36.8078ZM3220.15 38.9175H3199.24V66.3761C3199.24 69.427 3198.95 72.478 3198.37 75.464C3201.35 74.8798 3204.4 74.5877 3207.42 74.5877H3220.15V38.9175Z" fill="white" fill-opacity="0.36"/>
<path d="M3156.11 36.6106H3185.77V66.3735C3185.77 74.2606 3182.95 81.9204 3177.85 87.9249L3177.76 88.0223C3176.52 89.1258 3175.39 90.2618 3174.25 91.5276L3174.15 91.625C3168.15 96.7856 3160.52 99.6094 3152.64 99.6094H3122.94V69.8464C3122.94 61.7647 3125.89 53.975 3131.25 47.8731L3131.34 47.7757C3132.29 46.9319 3133.19 45.9906 3134.1 45.0169L3134.2 44.9195C3140.27 39.5317 3148.06 36.5781 3156.14 36.5781L3156.11 36.6106ZM3183.7 38.7203H3156.11C3148.58 38.7203 3141.28 41.4791 3135.6 46.4775C3134.69 47.4836 3133.75 48.4249 3132.77 49.3012C3127.77 55.0136 3125.01 62.284 3125.01 69.8464V97.4997H3152.6C3159.94 97.4997 3167.08 94.8707 3172.69 90.0671C3173.86 88.8012 3175.03 87.6328 3176.26 86.4968C3181.04 80.8818 3183.63 73.7412 3183.63 66.3411V38.6878L3183.7 38.7203Z" fill="white" fill-opacity="0.36"/>
<path d="M3145.75 0.0976562H3185.61V25.2193H3156.11C3152.63 25.2193 3149.19 25.6088 3145.85 26.4202L3144.2 26.8097L3144.58 25.1544C3145.36 21.8113 3145.79 18.3709 3145.79 14.898V0.0976562H3145.75ZM3183.5 2.20735H3147.86V14.898C3147.86 17.9814 3147.57 21.0323 3146.95 24.0184C3149.94 23.4342 3152.99 23.1096 3156.07 23.1096H3183.47V2.20735H3183.5Z" fill="white" fill-opacity="0.36"/>
<path d="M3164.48 109.412L3164.09 111.067C3163.32 114.41 3162.93 117.851 3162.93 121.291V136.124H3122.71V111.003H3152.64C3156.11 111.003 3159.52 110.613 3162.83 109.834L3164.48 109.445V109.412ZM3160.82 134.014V121.291C3160.82 118.24 3161.11 115.189 3161.69 112.203C3158.74 112.788 3155.69 113.08 3152.64 113.08H3124.82V134.014H3160.82Z" fill="white" fill-opacity="0.36"/>
<path d="M3113.17 57.9355L3112.78 59.5908C3112 62.9339 3111.58 66.3743 3111.58 69.8472V99.8374H3086.46V59.5259H3101.22C3104.7 59.5259 3108.14 59.1364 3111.48 58.325L3113.13 57.9355H3113.17ZM3109.47 97.7277V69.8472C3109.47 66.7638 3109.76 63.7129 3110.38 60.7268C3107.39 61.3111 3104.31 61.6356 3101.26 61.6356H3088.6V97.7277H3109.5H3109.47Z" fill="white" fill-opacity="0.36"/>
<path d="M3086.46 0.0976562H3134.43V14.898C3134.43 23.0122 3131.47 30.8343 3126.15 36.8713C3125.11 37.845 3124.17 38.7863 3123.29 39.76L3123.23 39.8249C3117.19 45.1803 3109.37 48.1338 3101.29 48.1338H3086.52V0.0976562H3086.46ZM3132.32 2.20735H3088.56V46.0241H3101.22C3108.79 46.0241 3116.09 43.2653 3121.74 38.2669C3122.64 37.2932 3123.62 36.3195 3124.62 35.3783C3129.56 29.7957 3132.32 22.4929 3132.32 14.898V2.20735Z" fill="white" fill-opacity="0.36"/>
<path d="M3196.97 0.0976562H3222.26V25.414H3196.97V0.0976562ZM3220.15 2.20735H3199.08V23.3368H3220.15V2.20735Z" fill="white" fill-opacity="0.36"/>
<path d="M3207.39 88.0234H3222.23V136.092H3174.25V121.259C3174.25 113.34 3177.08 105.68 3182.17 99.6755L3182.27 99.5781C3183.5 98.507 3184.67 97.3061 3185.78 96.0727L3185.87 95.9754C3191.88 90.8472 3199.51 88.0234 3207.39 88.0234ZM3220.12 90.1331H3207.39C3200.03 90.1331 3192.88 92.7621 3187.3 97.5333C3186.17 98.7991 3184.97 100 3183.73 101.104C3178.96 106.719 3176.36 113.892 3176.36 121.259V133.982H3220.15V90.1331H3220.12Z" fill="white" fill-opacity="0.36"/>
<path d="M3086.46 111.197H3111.35V136.124H3086.46V111.197ZM3109.24 113.307H3088.53V134.014H3109.24V113.307Z" fill="white" fill-opacity="0.36"/>
<path d="M3167.17 218.727L3182.72 234.306L3180.35 234.436C3174.74 234.728 3169.35 236.091 3164.35 238.558L3161.59 239.888L3162.92 237.13C3165.39 232.099 3166.75 226.711 3167.04 221.096L3167.17 218.727ZM3177.95 232.488L3168.99 223.498C3168.57 227.652 3167.56 231.644 3165.97 235.507C3169.8 233.916 3173.83 232.91 3177.95 232.488ZM3146.63 254.884L3145.3 257.642C3142.73 262.9 3141.34 268.548 3141.14 274.455L3141.08 276.889L3124.72 260.499L3127.16 260.434C3133.03 260.239 3138.68 258.843 3143.94 256.279L3146.69 254.916L3146.63 254.884ZM3139.16 272.021C3139.55 267.607 3140.56 263.355 3142.25 259.298C3138.19 260.985 3133.94 261.992 3129.52 262.381L3139.16 272.021Z" fill="white" fill-opacity="0.36"/>
<path d="M3144.1 179.551H3222.22V257.804L3215.76 251.313C3213.23 247.84 3210.21 244.822 3206.77 242.29L3206.64 242.193L3159.13 194.546C3156.6 191.105 3153.58 188.054 3150.14 185.555L3150.01 185.458L3144.1 179.551ZM3220.11 181.66H3149.16L3151.44 183.932C3155.01 186.561 3158.15 189.677 3160.78 193.28L3208.07 240.7C3211.64 243.329 3214.79 246.477 3217.42 250.08L3220.11 252.773V181.693V181.66Z" fill="white" fill-opacity="0.36"/>
<path d="M3086.46 238.232L3163.64 315.545H3086.46V238.232ZM3158.57 313.435L3088.56 243.328V313.435H3158.57Z" fill="white" fill-opacity="0.36"/>
<path d="M2810.35 39.1758L2825.89 54.7551L2823.52 54.8849C2817.91 55.177 2812.52 56.5727 2807.49 59.0394L2804.73 60.4026L2806.09 57.6437C2808.56 52.6129 2809.96 47.1926 2810.25 41.5451L2810.38 39.1758H2810.35ZM2821.12 52.97L2812.16 43.9794C2811.74 48.1339 2810.74 52.1585 2809.15 56.0209C2812.98 54.4305 2817 53.4244 2821.15 53.0024L2821.12 52.97ZM2789.87 75.3003L2788.5 78.0591C2785.91 83.3496 2784.51 88.9971 2784.32 94.9042L2784.25 97.3385L2767.86 80.9153L2770.29 80.8504C2776.2 80.6557 2781.85 79.26 2787.11 76.6635L2789.87 75.3003ZM2782.37 92.47C2782.76 88.0558 2783.8 83.7715 2785.45 79.7144C2781.36 81.4022 2777.11 82.4408 2772.7 82.8303L2782.37 92.5024V92.47Z" fill="white" fill-opacity="0.36"/>
<path d="M2787.3 0H2865.42V78.2535L2858.97 71.7622C2856.47 68.3217 2853.45 65.2708 2849.98 62.7716L2849.85 62.6742L2802.3 15.0275C2799.8 11.5871 2796.78 8.53616 2793.34 6.00452L2793.21 5.90715L2787.3 0ZM2863.31 2.1097H2792.4L2794.67 4.38168C2798.24 7.01069 2801.35 10.159 2803.98 13.7293L2851.31 61.1488C2854.88 63.7778 2858.02 66.9261 2860.62 70.4963L2863.31 73.1903V2.1097Z" fill="white" fill-opacity="0.36"/>
<path d="M2729.66 58.7148L2806.81 136.027H2729.66V58.7148ZM2801.74 133.917L2731.77 63.8106V133.917H2801.74Z" fill="white" fill-opacity="0.36"/>
<path d="M2927.55 185.848L2931.87 189.418C2936.64 193.378 2938.52 199.74 2937.38 208.276C2936.38 216.033 2933.1 224.082 2930.5 229.47C2928.98 232.229 2927.45 235.085 2925.93 238.006L2925.83 238.136C2925.57 238.558 2925.28 239.045 2925.18 239.24L2924.01 241.706L2923.62 242.583C2921.61 246.672 2919.6 251.086 2917.62 255.695C2914.89 262.089 2912.2 268.873 2909.67 275.884L2907.62 281.531V213.826L2909.21 214.8C2910.09 215.319 2911.03 215.773 2912 216.098C2913.69 216.682 2915.48 217.007 2917.29 217.007C2922.13 217.007 2926.74 214.832 2929.95 211.002C2934.24 205.906 2934.95 199.253 2931.87 193.638L2927.52 185.783L2927.55 185.848ZM2924.11 237C2925.63 234.047 2927.16 231.19 2928.65 228.496C2931.12 223.303 2934.33 215.481 2935.31 207.984C2935.47 206.685 2935.57 205.452 2935.6 204.284C2935.01 207.14 2933.68 209.931 2931.64 212.365C2928.04 216.65 2922.84 219.116 2917.36 219.116C2915.31 219.116 2913.3 218.759 2911.39 218.11C2910.83 217.916 2910.31 217.688 2909.8 217.461V269.652C2911.71 264.556 2913.72 259.59 2915.73 254.851C2917.62 250.502 2919.53 246.315 2921.41 242.388L2921.74 241.641L2923.3 238.331C2923.3 238.331 2923.49 237.941 2924.04 237.065L2924.11 236.968V237Z" fill="white" fill-opacity="0.36"/>
<path d="M2938.06 179.715H2975.97L2972.63 181.662C2965.07 186.109 2957.67 192.405 2950.66 200.325L2949.07 202.143L2948.84 199.741C2948.09 192.243 2945.17 186.141 2940.08 181.532L2938.06 179.715ZM2968.44 181.825H2943.35C2947.22 186.011 2949.65 191.172 2950.62 197.242C2956.34 191.01 2962.31 185.817 2968.44 181.825Z" fill="white" fill-opacity="0.36"/>
<path d="M2907.69 179.715H2918.17L2916.35 181.532C2914.01 183.837 2911.71 186.304 2909.53 188.868L2907.69 191.042V179.747V179.715ZM2913.11 181.825H2909.79V185.362C2910.87 184.161 2912 182.961 2913.11 181.825Z" fill="white" fill-opacity="0.36"/>
<path d="M3027.38 179.715H3043.39V197.923L3041.44 194.677C3038.29 189.452 3034.39 185.07 3029.85 181.63L3027.35 179.747L3027.38 179.715ZM3041.31 181.825H3033.49C3036.41 184.356 3039 187.277 3041.31 190.588V181.825Z" fill="white" fill-opacity="0.36"/>
<path d="M3003.34 184.389C3010.31 184.389 3016.58 186.239 3021.87 189.841C3027.19 193.477 3031.38 198.735 3034.33 205.551C3038.49 215.093 3039.53 226.583 3037.25 237.066C3036.05 242.584 3033.98 247.582 3031.09 251.899C3027.97 256.573 3024.01 260.338 3019.27 263.064C3015.41 265.304 3011.39 266.44 3007.36 266.44C3000.38 266.44 2993.76 262.902 2990.09 257.222C2987.63 253.36 2986.82 248.751 2987.89 244.174C2988.5 241.513 2989.74 238.916 2991.52 236.417C2993.53 233.658 2996.26 231.029 2999.64 228.627L3002.17 226.81L2995.55 217.56L2993.02 219.345C2984.32 225.544 2978.7 233.171 2976.72 241.415C2974.94 248.945 2976.3 256.735 2980.52 263.356C2984.77 269.913 2991.62 274.814 2999.34 276.793C3001.97 277.443 3004.67 277.8 3007.33 277.8C3013.37 277.8 3019.31 276.144 3024.92 272.866C3031.51 269.036 3037.22 263.421 3041.38 256.605L3043.32 253.424V315.677H2909.99L2910.32 314.378C2913.98 299.448 2924.95 264.784 2947.54 264.784C2948.29 264.784 2949.04 264.817 2949.78 264.882C2952.96 265.206 2955.59 266.083 2957.64 267.511C2959.65 268.939 2961.08 270.919 2961.92 273.45C2963.16 277.118 2963.09 281.662 2961.79 286.238C2960.59 290.425 2958.45 294.255 2955.98 296.495C2954.91 297.501 2953.19 298.702 2951.31 298.702C2950.63 298.702 2949.98 298.54 2949.26 298.247C2945.4 296.592 2944.17 292.73 2944.3 289.906C2944.43 286.595 2946.12 284.161 2948.91 283.22L2951.86 282.246L2948.26 271.47L2945.3 272.444C2938 274.878 2933.26 281.37 2932.94 289.419C2932.58 297.858 2937.22 305.42 2944.75 308.666C2946.89 309.607 2949.1 310.062 2951.31 310.062C2955.66 310.062 2959.91 308.244 2963.64 304.836C2969.97 298.994 2974.06 288.932 2974.06 279.195C2974.06 275.82 2973.57 272.671 2972.6 269.815C2969.45 260.403 2961.73 254.625 2950.85 253.554C2949.72 253.457 2948.58 253.392 2947.45 253.392C2941.7 253.392 2936.18 254.853 2931.09 257.741L2928.3 259.299L2929.59 256.378C2931.54 252.029 2933.59 247.712 2935.7 243.558C2935.99 243.103 2938.1 239.63 2940.63 234.372C2944.88 226.81 2949.36 219.994 2953.9 214.087C2965.07 199.611 2976.92 190.361 2989.12 186.628C2993.99 185.135 2998.73 184.389 3003.17 184.389H3003.34ZM3007.36 264.362C3011.03 264.362 3014.66 263.324 3018.23 261.279C3022.68 258.682 3026.41 255.145 3029.33 250.763C3032.06 246.641 3034.04 241.902 3035.18 236.644C3037.38 226.583 3036.35 215.58 3032.39 206.427C3029.59 200 3025.63 195.002 3020.67 191.627C3015.74 188.251 3009.89 186.531 3003.34 186.531C2999.08 186.531 2994.57 187.245 2989.9 188.673C2978.12 192.276 2966.63 201.266 2955.76 215.417C2951.24 221.227 2946.86 227.978 2942.67 235.378C2940.11 240.669 2937.94 244.239 2937.71 244.629C2936.09 247.809 2934.5 251.152 2932.94 254.56C2937.58 252.418 2942.51 251.347 2947.61 251.347C2948.81 251.347 2950.04 251.412 2951.24 251.542C2962.99 252.678 2971.37 258.975 2974.81 269.231C2975.85 272.314 2976.37 275.69 2976.37 279.293C2976.37 289.581 2972.02 300.26 2965.26 306.491C2961.14 310.289 2956.4 312.269 2951.54 312.269C2949.04 312.269 2946.54 311.749 2944.14 310.711C2935.79 307.108 2930.67 298.767 2931.06 289.419C2931.41 280.493 2936.7 273.256 2944.85 270.562L2949.78 268.906L2954.68 283.642L2949.75 285.297C2947.25 286.141 2946.63 288.348 2946.57 290.068C2946.47 292.21 2947.38 295.132 2950.27 296.397C2950.69 296.592 2951.08 296.689 2951.47 296.689C2952.41 296.689 2953.58 296.105 2954.72 295.034C2956.89 293.022 2958.84 289.549 2959.91 285.752C2961.11 281.565 2961.14 277.475 2960.07 274.197C2959.39 272.12 2958.19 270.464 2956.57 269.328C2954.85 268.095 2952.54 267.348 2949.72 267.089C2949.07 267.024 2948.35 266.991 2947.67 266.991C2926.77 266.991 2916.06 301.169 2912.81 313.697H3041.34V260.76C3037.22 266.537 3032 271.373 3026.09 274.814C3020.15 278.286 3013.85 280.039 3007.43 280.039C3004.6 280.039 3001.71 279.682 2998.92 278.968C2990.68 276.858 2983.38 271.633 2978.83 264.622C2974.29 257.514 2972.83 249.173 2974.74 241.058C2976.82 232.327 2982.73 224.278 2991.85 217.754L2996.07 214.736L3005.12 227.394L3000.87 230.445C2997.69 232.717 2995.13 235.184 2993.24 237.748C2991.62 239.987 2990.48 242.357 2989.96 244.726C2989.02 248.751 2989.74 252.808 2991.88 256.151C2995.16 261.247 3001.1 264.427 3007.39 264.427L3007.36 264.362Z" fill="white" fill-opacity="0.36"/>
<path d="M3182.43 245.73C3188.5 245.73 3194.31 247.548 3199.31 250.956L3199.5 251.118L3207.2 258.843L3222.26 273.903V315.578H3179.71L3164.45 300.323L3164.55 300.193L3162.47 298.148C3161.63 297.402 3160.85 296.623 3160.1 295.779C3155.17 290.261 3152.47 283.186 3152.47 275.786C3152.47 259.233 3165.91 245.763 3182.46 245.763L3182.43 245.73ZM3198.08 252.644C3193.44 249.463 3188.05 247.808 3182.43 247.808C3167.05 247.808 3154.55 260.336 3154.55 275.721C3154.55 282.601 3157.08 289.19 3161.63 294.318C3162.31 295.097 3163.06 295.844 3163.83 296.525L3167.31 299.933L3167.21 300.063L3180.55 313.403H3220.11V274.714L3198.04 252.611L3198.08 252.644Z" fill="white" fill-opacity="0.36"/>
<path d="M3086.46 179.551H3128.06L3150.59 202.173C3153.97 207.139 3155.75 212.949 3155.75 219.018C3155.75 235.571 3142.31 249.041 3125.76 249.041C3118.39 249.041 3111.28 246.315 3105.8 241.381C3104.96 240.635 3104.18 239.856 3103.46 239.044L3101.55 236.87L3101.29 237.064L3086.46 222.199V179.583V179.551ZM3127.19 181.66H3088.56V221.29L3101.48 234.241L3101.84 233.981L3105.02 237.616C3105.67 238.363 3106.38 239.077 3107.16 239.758C3112.29 244.367 3118.88 246.899 3125.76 246.899C3141.15 246.899 3153.64 234.37 3153.64 218.986C3153.64 213.371 3151.99 207.983 3148.9 203.374L3127.19 181.628V181.66Z" fill="white" fill-opacity="0.36"/>
<path d="M2825.63 66.1797C2831.67 66.1797 2837.51 67.9648 2842.45 71.3728L2842.61 71.5026L2865.43 94.3523V136.027H2822.91L2807.55 120.642L2807.62 120.545L2805.67 118.63C2804.83 117.851 2804.02 117.072 2803.24 116.196C2798.34 110.678 2795.68 103.602 2795.68 96.2348C2795.68 79.6818 2809.11 66.2121 2825.67 66.2121L2825.63 66.1797ZM2841.18 73.0605C2836.6 69.9447 2831.22 68.2894 2825.63 68.2894C2810.25 68.2894 2797.75 80.8177 2797.75 96.2023C2797.75 103.051 2800.25 109.639 2804.8 114.768C2805.54 115.579 2806.29 116.326 2807.1 117.072L2810.31 120.253L2810.25 120.35L2823.78 133.885H2863.35V95.1961L2841.21 73.0281L2841.18 73.0605Z" fill="white" fill-opacity="0.36"/>
<path d="M2729.66 0H2771.24L2785.35 14.2486C2785.35 14.2486 2785.68 14.5407 2785.84 14.6705L2785.97 14.7679L2793.76 22.6224C2797.14 27.5883 2798.92 33.3981 2798.92 39.4676C2798.92 56.0206 2785.48 69.4902 2768.93 69.4902C2761.56 69.4902 2754.46 66.7963 2748.97 61.8628C2748.26 61.2137 2747.57 60.5321 2746.93 59.818L2746.63 59.4935V59.5584L2729.66 42.5834V0ZM2770.39 2.1097H2731.77V41.7071L2746.37 56.3451L2746.5 56.1829L2748.52 58.3899C2749.13 59.0715 2749.75 59.6882 2750.4 60.2724C2755.49 64.8488 2762.12 67.348 2768.96 67.348C2784.35 67.348 2796.84 54.8197 2796.84 39.4351C2796.84 33.8201 2795.19 28.4322 2792.11 23.8558L2784.58 16.2934C2784.32 16.0986 2784.09 15.9039 2783.89 15.6767L2782.89 14.6056L2770.42 2.1097H2770.39Z" fill="white" fill-opacity="0.36"/>
<path d="M2459.88 60.207L2459.03 63.1606C2457.64 67.9967 2455.66 72.3784 2453.13 76.1758C2449.91 80.9794 2445.73 85.0041 2440.66 88.0875C2430.54 94.3192 2420.05 94.7736 2419.6 94.8061H2370V73.9688H2419.92C2437.42 73.9688 2449.95 67.4774 2457.38 62.0571L2459.84 60.2395L2459.88 60.207ZM2419.57 92.6639C2419.96 92.6639 2429.89 92.2095 2439.56 86.2699C2444.33 83.3488 2448.32 79.5513 2451.37 75.0074C2453.26 72.1836 2454.85 69.0028 2456.08 65.4975C2448.19 70.6582 2436.12 76.046 2419.92 76.046H2372.11V92.6639H2419.57Z" fill="white" fill-opacity="0.36"/>
<path d="M2370 8.76367L2423.62 62.4798L2421.16 62.5447C2420.73 62.5447 2420.34 62.5447 2419.92 62.5447H2370V8.76367ZM2418.59 60.435L2372.08 13.8269V60.435H2418.59Z" fill="white" fill-opacity="0.36"/>
<path d="M2478.74 0.746094H2505.77V27.8151L2503.86 24.9265C2500.68 20.1228 2496.91 15.6438 2492.69 11.5867C2489.28 8.30855 2485.55 5.29006 2481.66 2.69351L2478.77 0.778551L2478.74 0.746094ZM2503.66 2.85579H2485.55C2488.57 5.06286 2491.43 7.46467 2494.12 10.0612C2497.63 13.4367 2500.84 17.1044 2503.66 20.9992V2.85579Z" fill="white" fill-opacity="0.36"/>
<path d="M2378.02 0.746094H2435.08L2437.87 0.843464C2467.34 0.843464 2493.28 19.636 2502.33 47.6463L2502.46 48.1007L2492.33 65.8546C2492.33 65.8546 2488.08 73.1249 2479.06 80.3304C2472.54 85.5559 2465.2 89.4183 2457.31 91.8525L2453.29 93.0859L2456.24 90.0999C2459.52 86.7893 2462.34 83.0243 2464.65 78.9023C2470.07 69.2626 2472.79 57.3833 2472.79 43.5892V22.1352L2462.21 40.7654C2461.86 41.3497 2458.68 46.4778 2452.25 51.606C2447.84 55.1438 2442.9 57.8377 2437.64 59.6878L2437.03 59.915L2378.02 0.746094ZM2474.87 14.3131C2464.23 7.07518 2451.44 2.95316 2437.84 2.95316L2435.02 2.85579H2383.05L2437.58 57.4807C2442.38 55.728 2446.89 53.1964 2450.95 49.9832C2457.18 44.9848 2460.3 39.954 2460.43 39.7268L2474.84 14.3131H2474.87ZM2500.19 47.8735C2495.55 33.8846 2486.52 22.265 2474.94 14.378V43.6216C2474.94 57.7728 2472.11 69.9766 2466.53 79.9409C2464.81 82.9918 2462.83 85.848 2460.59 88.5095C2466.76 86.1726 2472.54 82.862 2477.76 78.7075C2486.3 71.8916 2490.42 65.0107 2490.52 64.816L2500.19 47.9059V47.8735ZM2505.06 59.6553C2505.32 61.6677 2505.51 63.7449 2505.61 65.7897L2505.77 69.4573V136.74H2470.88L2473.57 134.825C2481.46 129.21 2487.86 122.037 2492.63 113.534C2499.47 101.297 2502.98 86.1726 2502.98 68.6134V59.7527L2505.06 59.6229V59.6553ZM2503.66 134.663V87.2112C2502.01 97.4351 2498.96 106.62 2494.48 114.605C2490.06 122.459 2484.32 129.21 2477.34 134.663H2503.66Z" fill="white" fill-opacity="0.36"/>
<path d="M2490.35 85.6848L2489.74 88.6708C2488.08 96.7526 2485.29 103.99 2481.49 110.157C2477.05 117.33 2471.07 123.27 2463.71 127.749C2450.63 135.733 2437.06 136.577 2435.53 136.642H2370V106.262H2436.05C2459.94 106.262 2476.59 96.8824 2486.33 89.0279C2486.91 88.5735 2487.47 88.1191 2488.02 87.6322L2490.32 85.6523L2490.35 85.6848ZM2435.5 134.565C2436.9 134.5 2449.98 133.689 2462.6 125.964C2469.68 121.647 2475.42 115.935 2479.68 109.054C2482.89 103.861 2485.36 97.8886 2486.98 91.2025C2476.88 99.1544 2460.01 108.372 2436.02 108.372H2372.08V134.532H2435.47L2435.5 134.565Z" fill="white" fill-opacity="0.36"/>
<path d="M2238.06 60.2082L2240.53 62.0258C2247.96 67.4786 2260.52 73.9375 2277.98 73.9375H2327.9V94.7748H2278.34C2277.85 94.7748 2267.37 94.288 2257.24 88.0562C2252.21 84.9728 2247.99 80.9806 2244.78 76.1446C2242.25 72.3471 2240.27 67.9979 2238.87 63.1294L2238.03 60.1758L2238.06 60.2082ZM2325.83 76.0472H2278.02C2261.82 76.0472 2249.75 70.6594 2241.86 65.4987C2243.09 68.9716 2244.68 72.1524 2246.57 75.0086C2249.62 79.5525 2253.58 83.35 2258.38 86.2711C2268.05 92.2107 2278.02 92.6651 2278.44 92.6651H2325.86V76.0472H2325.83Z" fill="white" fill-opacity="0.36"/>
<path d="M2327.94 8.76367V62.5447H2278.02C2277.6 62.5447 2277.21 62.5447 2276.78 62.5447L2274.32 62.4798L2327.94 8.76367ZM2325.83 60.435V13.8594L2279.32 60.4675H2325.83V60.435Z" fill="white" fill-opacity="0.36"/>
<path d="M2192.2 0.746094H2219.24L2216.35 2.66105C2212.42 5.2576 2208.72 8.27609 2205.31 11.5542C2201.09 15.6113 2197.33 20.0904 2194.15 24.894L2192.23 27.7827V0.746094H2192.2ZM2212.42 2.85579H2194.31V20.9992C2197.13 17.1044 2200.35 13.4367 2203.85 10.0612C2206.55 7.46467 2209.4 5.06286 2212.42 2.85579Z" fill="white" fill-opacity="0.36"/>
<path d="M2317.39 0.746094H2319.92L2260.88 59.915L2260.26 59.6878C2255.01 57.8702 2250.07 55.1438 2245.66 51.606C2239.23 46.4778 2236.05 41.3497 2235.69 40.7979L2225.11 22.1352V43.5892C2225.11 57.3834 2227.84 69.2626 2233.26 78.9023C2235.56 83.0243 2238.39 86.7893 2241.67 90.0999L2244.62 93.0859L2240.59 91.8526C2232.71 89.4183 2225.37 85.5559 2218.85 80.3304C2209.83 73.1249 2205.64 65.9195 2205.57 65.8546L2195.45 48.1007L2195.58 47.6463C2204.63 19.6685 2230.57 0.843464 2260.04 0.843464L2262.76 0.746094H2317.35H2317.39ZM2314.86 2.85579H2262.86L2260.17 2.95316C2246.53 2.95316 2233.71 7.07519 2223.07 14.3131L2237.51 39.7268C2237.64 39.9216 2240.72 44.9848 2246.99 49.9507C2251.05 53.1964 2255.56 55.7281 2260.36 57.4483L2314.89 2.82333L2314.86 2.85579ZM2237.35 88.477C2235.11 85.848 2233.13 82.9594 2231.41 79.9084C2225.83 69.9442 2223 57.7079 2223 43.5892V14.3455C2211.42 22.2326 2202.39 33.8521 2197.75 47.841L2207.42 64.7835C2207.42 64.7835 2211.58 71.7942 2220.18 78.6751C2225.4 82.862 2231.18 86.1402 2237.35 88.477ZM2192.92 59.6553L2194.99 59.7852V68.6459C2194.99 86.2051 2198.47 101.33 2205.35 113.566C2210.12 122.102 2216.54 129.243 2224.4 134.858L2227.09 136.773H2192.2V69.4898L2192.36 65.8221C2192.46 63.7774 2192.62 61.7001 2192.92 59.6878V59.6553ZM2220.63 134.663C2213.66 129.178 2207.91 122.459 2203.5 114.605C2199.02 106.62 2195.93 97.4351 2194.31 87.2112V134.663H2220.63Z" fill="white" fill-opacity="0.36"/>
<path d="M2207.58 85.6855L2209.89 87.6654C2210.44 88.1198 2210.99 88.6067 2211.58 89.0611C2221.35 96.9156 2238 106.296 2261.88 106.296H2327.93V136.675H2262.44C2260.88 136.61 2247.31 135.767 2234.23 127.782C2226.9 123.271 2220.89 117.363 2216.45 110.19C2212.62 104.024 2209.86 96.7858 2208.2 88.704L2207.58 85.718V85.6855ZM2325.82 108.405H2261.88C2237.9 108.405 2221.02 99.1876 2210.93 91.2357C2212.58 97.8893 2215.02 103.894 2218.23 109.087C2222.51 116 2228.26 121.68 2235.3 125.997C2247.93 133.722 2261.01 134.533 2262.47 134.598H2325.82V108.438V108.405Z" fill="white" fill-opacity="0.36"/>
<path d="M2659.36 37.4563H2684.48V77.3133H2669.65C2666.24 77.3133 2662.8 77.7028 2659.45 78.4818L2657.8 78.8713L2658.19 77.216C2658.97 73.9054 2659.36 70.4649 2659.36 66.992V37.4238V37.4563ZM2682.37 39.566H2661.47V67.0245C2661.47 70.0754 2661.17 73.1264 2660.59 76.1124C2663.58 75.5282 2666.63 75.2361 2669.65 75.2361H2682.37V39.566Z" fill="white" fill-opacity="0.36"/>
<path d="M2618.33 37.261H2648V67.0239C2648 74.911 2645.17 82.5708 2640.08 88.5753L2639.98 88.6727C2638.75 89.7762 2637.61 90.9122 2636.48 92.178L2636.38 92.2754C2630.37 97.436 2622.75 100.26 2614.86 100.26H2585.16V70.4968C2585.16 62.4151 2588.12 54.6254 2593.47 48.5235L2593.57 48.4261C2594.51 47.5823 2595.45 46.641 2596.33 45.6673L2596.42 45.5699C2602.49 40.1821 2610.28 37.2285 2618.36 37.2285L2618.33 37.261ZM2645.92 39.3707H2618.33C2610.8 39.3707 2603.5 42.1295 2597.82 47.1279C2596.91 48.134 2595.97 49.0753 2595 49.9516C2590 55.664 2587.24 62.9344 2587.24 70.4968V98.1501H2614.83C2622.16 98.1501 2629.3 95.5211 2634.92 90.7175C2636.09 89.4192 2637.25 88.2507 2638.49 87.1472C2643.26 81.5322 2645.86 74.3916 2645.86 66.9915V39.3382L2645.92 39.3707Z" fill="white" fill-opacity="0.36"/>
<path d="M2607.98 0.746094H2647.84V25.8677H2618.33C2614.86 25.8677 2611.42 26.2572 2608.08 27.0686L2606.42 27.4581L2606.81 25.8028C2607.59 22.4597 2608.01 19.0193 2608.01 15.5464V0.746094H2607.98ZM2645.73 2.85579H2610.09V15.5464C2610.09 18.6298 2609.8 21.6808 2609.21 24.6668C2612.2 24.0826 2615.28 23.758 2618.33 23.758H2645.73V2.85579Z" fill="white" fill-opacity="0.36"/>
<path d="M2626.71 110.061L2626.32 111.716C2625.54 115.059 2625.15 118.499 2625.15 121.94V136.773H2584.93V111.651H2614.86C2618.33 111.651 2621.74 111.261 2625.05 110.482L2626.71 110.093V110.061ZM2623.04 134.663V121.94C2623.04 118.889 2623.33 115.838 2623.91 112.852C2620.96 113.436 2617.91 113.728 2614.86 113.728H2587.04V134.663H2623.04Z" fill="white" fill-opacity="0.36"/>
<path d="M2575.39 58.584L2575 60.2393C2574.22 63.5823 2573.8 67.0228 2573.8 70.4957V100.486H2548.68V60.1744H2563.45C2566.92 60.1744 2570.36 59.7849 2573.7 58.9735L2575.36 58.584H2575.39ZM2571.72 98.3761V70.4957C2571.72 67.4123 2572.02 64.3613 2572.63 61.3753C2569.65 61.9595 2566.6 62.2841 2563.51 62.2841H2550.82V98.3761H2571.72Z" fill="white" fill-opacity="0.36"/>
<path d="M2548.68 0.746094H2596.65V15.5464C2596.65 23.6607 2593.7 31.4503 2588.38 37.4873C2587.34 38.461 2586.4 39.4022 2585.49 40.3759L2585.42 40.4409C2579.38 45.7962 2571.56 48.7498 2563.48 48.7498H2548.71V0.746094H2548.68ZM2594.54 2.85579H2550.79V46.6726H2563.48C2571.04 46.6726 2578.35 43.9137 2583.99 38.9154C2584.9 37.9417 2585.88 36.968 2586.88 36.0267C2591.82 30.4441 2594.57 23.1413 2594.57 15.5464V2.85579H2594.54Z" fill="white" fill-opacity="0.36"/>
<path d="M2659.19 0.746094H2684.48V26.0625H2659.19V0.746094ZM2682.37 2.85579H2661.3V23.9852H2682.37V2.85579Z" fill="white" fill-opacity="0.36"/>
<path d="M2669.61 88.6719H2684.45V136.741H2636.47V121.908C2636.47 113.988 2639.3 106.328 2644.39 100.324L2644.49 100.227C2645.72 99.1554 2646.89 97.9545 2648 96.7212L2648.09 96.6238C2654.1 91.4956 2661.73 88.6719 2669.61 88.6719ZM2682.34 90.7816H2669.61C2662.25 90.7816 2655.1 93.4106 2649.52 98.1817C2648.39 99.4476 2647.19 100.648 2645.95 101.752C2641.18 107.367 2638.58 114.54 2638.58 121.908V134.631H2682.37V90.7816H2682.34Z" fill="white" fill-opacity="0.36"/>
<path d="M2548.68 111.846H2573.57V136.773H2548.68V111.846ZM2571.46 113.955H2550.76V134.663H2571.46V113.955Z" fill="white" fill-opacity="0.36"/>
<path d="M2629.4 219.377L2644.95 234.956L2642.58 235.086C2636.96 235.378 2631.57 236.741 2626.58 239.208L2623.82 240.571L2625.15 237.812C2627.61 232.782 2628.98 227.394 2629.27 221.779L2629.4 219.409V219.377ZM2640.18 233.139L2631.22 224.148C2630.8 228.303 2629.79 232.295 2628.2 236.125C2632.03 234.534 2636.02 233.528 2640.18 233.106V233.139ZM2608.85 255.534L2607.52 258.293C2604.96 263.551 2603.56 269.198 2603.37 275.105L2603.3 277.54L2586.95 261.149L2589.38 261.084C2595.26 260.889 2600.9 259.494 2606.16 256.93L2608.92 255.566L2608.85 255.534ZM2601.39 272.671C2601.78 268.257 2602.79 264.005 2604.47 259.948C2600.42 261.636 2596.16 262.642 2591.75 263.031L2601.39 272.671Z" fill="white" fill-opacity="0.36"/>
<path d="M2606.32 180.201H2684.45V258.455L2677.99 251.963C2675.46 248.49 2672.44 245.472 2669 242.94L2668.87 242.843L2621.35 195.196C2618.82 191.756 2615.8 188.705 2612.36 186.206L2612.23 186.108L2606.32 180.201ZM2682.34 182.311H2611.39L2613.66 184.583C2617.23 187.212 2620.38 190.328 2623.01 193.93L2670.3 241.35C2673.87 243.979 2677.01 247.127 2679.64 250.73L2682.34 253.424V182.343V182.311Z" fill="white" fill-opacity="0.36"/>
<path d="M2548.68 238.883L2625.86 316.195H2548.68V238.883ZM2620.8 314.085L2550.79 243.979V314.085H2620.8Z" fill="white" fill-opacity="0.36"/>
<path d="M2644.65 246.381C2650.72 246.381 2656.53 248.198 2661.53 251.606L2661.73 251.769L2669.42 259.493L2684.48 274.553V316.228H2641.93L2626.67 300.973L2626.77 300.843L2624.69 298.799C2623.85 298.052 2623.04 297.241 2622.32 296.429C2617.39 290.912 2614.7 283.836 2614.7 276.436C2614.7 259.883 2628.13 246.413 2644.69 246.413L2644.65 246.381ZM2660.3 253.294C2655.66 250.113 2650.27 248.458 2644.65 248.458C2629.27 248.458 2616.77 260.986 2616.77 276.371C2616.77 283.252 2619.31 289.841 2623.88 294.969C2624.56 295.748 2625.31 296.494 2626.09 297.176L2629.56 300.584L2629.47 300.714L2642.8 314.053H2682.37V275.365L2660.3 253.262V253.294Z" fill="white" fill-opacity="0.36"/>
<path d="M2548.68 180.201H2590.29L2612.75 202.726C2616.19 207.757 2617.94 213.599 2617.94 219.636C2617.94 236.189 2604.51 249.659 2587.95 249.659C2580.58 249.659 2573.48 246.933 2567.99 241.999C2567.15 241.253 2566.37 240.474 2565.65 239.662L2563.74 237.488L2563.48 237.682L2548.65 222.817V180.201H2548.68ZM2589.41 182.311H2550.79V221.941L2563.74 234.891L2564.1 234.631L2567.28 238.267C2567.93 239.013 2568.64 239.727 2569.42 240.409C2574.55 245.018 2581.14 247.549 2588.02 247.549C2603.4 247.549 2615.9 235.021 2615.9 219.636C2615.9 214.021 2614.24 208.633 2611.16 204.025L2589.45 182.278L2589.41 182.311Z" fill="white" fill-opacity="0.36"/>
<path d="M227.069 61.3442C234.502 66.7969 247.063 73.2559 264.525 73.2559H314.443V94.0932H264.849C264.395 94.0932 253.879 93.5739 243.785 87.3746C238.754 84.2912 234.535 80.299 231.321 75.4629C228.79 71.6655 226.81 67.3162 225.414 62.4477L224.57 59.4941L227.037 61.3117L227.069 61.3442ZM312.366 91.9835V75.3656H264.557C248.361 75.3656 236.287 69.9777 228.4 64.8171C229.634 68.29 231.224 71.4707 233.106 74.3269C236.157 78.8709 240.117 82.6684 244.921 85.5895C254.56 91.4966 264.557 91.9835 264.914 91.9835H312.366Z" fill="white" fill-opacity="0.36"/>
<path d="M314.444 61.9287H264.526C264.104 61.9287 263.714 61.9287 263.292 61.9287L260.825 61.8638L314.444 8.11523V61.8963V61.9287ZM312.334 59.819V13.211L265.824 59.819H312.334Z" fill="white" fill-opacity="0.36"/>
<path d="M202.856 2.01261C198.929 4.60916 195.229 7.62765 191.821 10.9058C187.602 14.9629 183.837 19.442 180.656 24.2456L178.741 27.1342V0.0976562H205.778L202.889 2.01261H202.856ZM180.818 20.3183C183.642 16.4235 186.855 12.7558 190.361 9.38032C193.054 6.78377 195.911 4.38196 198.929 2.1749H180.818V20.3183Z" fill="white" fill-opacity="0.36"/>
<path d="M247.387 59.2665L246.771 59.0393C241.513 57.2218 236.579 54.4954 232.165 50.9576C225.576 45.6996 222.331 40.3766 222.201 40.117L211.62 21.4867V42.9407C211.62 56.7349 214.346 68.6141 219.766 78.2538C222.071 82.3758 224.895 86.1408 228.173 89.4514L231.126 92.4375L227.102 91.2041C219.215 88.7698 211.879 84.9075 205.356 79.6819C196.333 72.4765 192.146 65.2711 192.081 65.2062L181.954 47.4522L182.084 46.9978C191.172 19.02 217.105 0.195027 246.576 0.195027L249.367 0.0976562H306.426L247.387 59.2665ZM223.986 39.0784C224.116 39.2731 227.167 44.3039 233.463 49.3347C237.52 52.5804 242.032 55.1121 246.835 56.8323L301.363 2.20735H249.4L246.576 2.30472C232.976 2.30472 220.188 6.42675 209.543 13.6646L223.953 39.0784H223.986ZM193.931 64.1675C193.931 64.1675 198.15 71.2107 206.686 78.0591C211.944 82.246 217.689 85.5242 223.856 87.861C221.617 85.232 219.637 82.3434 217.916 79.2924C212.334 69.3282 209.51 57.0919 209.51 42.9732V13.6971C197.923 21.5841 188.932 33.2037 184.259 47.1926L193.931 64.1026V64.1675ZM181.5 59.1692V68.0299C181.5 85.5891 184.973 100.714 191.854 112.95C196.625 121.486 203.051 128.627 210.938 134.242L213.632 136.157H178.741V68.8738L178.903 65.2062C179.001 63.1614 179.163 61.0841 179.455 59.0718L181.532 59.2016L181.5 59.1692ZM207.141 134.047C200.163 128.562 194.418 121.843 190.004 113.989C185.524 106.004 182.441 96.8191 180.818 86.5952V134.047H207.141Z" fill="white" fill-opacity="0.36"/>
<path d="M196.427 87.0177C196.979 87.5046 197.531 87.959 198.115 88.4134C207.885 96.2679 224.535 105.648 248.423 105.648H314.473V136.028H248.943C247.45 135.963 233.883 135.119 220.77 127.134C213.435 122.623 207.463 116.716 202.984 109.543C199.154 103.376 196.395 96.1706 194.74 88.0563L194.123 85.0703L196.427 87.0502V87.0177ZM312.363 133.918V107.758H248.423C224.438 107.758 207.56 98.5399 197.466 90.588C199.121 97.2416 201.556 103.246 204.769 108.439C209.053 115.353 214.798 121.033 221.841 125.349C234.499 133.074 247.547 133.885 248.943 133.95H312.331L312.363 133.918Z" fill="white" fill-opacity="0.36"/>
<path d="M25.1216 66.3737C25.1216 69.8465 25.5111 73.287 26.2901 76.5976L26.6796 78.2529L25.0243 77.8634C21.6812 77.0844 18.2408 76.6949 14.8328 76.6949H0V36.8379H25.1216V66.4061V66.3737ZM2.1097 74.5852H14.8328C17.8837 74.5852 20.9022 74.8774 23.8883 75.4616C23.304 72.4755 23.0119 69.4571 23.0119 66.3737V38.9151H2.1097V74.5852Z" fill="white" fill-opacity="0.36"/>
<path d="M88.0886 44.9515L88.186 45.0489C89.0624 46.0226 90.0035 46.9639 90.9448 47.8077L91.0421 47.9051C96.3975 54.007 99.3512 61.7967 99.3512 69.8784V99.6414H69.6531C61.766 99.6414 54.1387 96.8176 48.1342 91.657L48.0368 91.5596C46.9008 90.2938 45.7648 89.1578 44.5314 88.0543L44.4341 87.9569C39.3059 81.9524 36.5146 74.2926 36.5146 66.4055V36.6426H66.1802C74.2619 36.6426 82.0516 39.5962 88.121 44.984L88.0886 44.9515ZM38.5594 66.3731C38.5594 73.7408 41.1884 80.8813 45.9271 86.5288C47.1929 87.6323 48.3614 88.8008 49.4973 90.0991C55.1124 94.9027 62.2529 97.5317 69.5882 97.5317H97.1766V69.8784C97.1766 62.3484 94.4177 55.0456 89.4193 49.3332C88.4456 48.4569 87.5043 47.5156 86.5956 46.5095C80.9156 41.5111 73.6128 38.7523 66.0828 38.7523H38.4945V66.4055L38.5594 66.3731Z" fill="white" fill-opacity="0.36"/>
<path d="M76.4682 14.898C76.4682 18.3709 76.8577 21.8113 77.6691 25.1544L78.0586 26.8097L76.4033 26.4202C73.0602 25.6412 69.6198 25.2193 66.1469 25.2193H36.6436V0.0976562H76.5007V14.898H76.4682ZM38.7209 23.1096H66.1145C69.1979 23.1096 72.2488 23.4017 75.2348 24.0184C74.6506 21.0323 74.326 17.9814 74.326 14.898V2.20735H38.6884V23.142L38.7209 23.1096Z" fill="white" fill-opacity="0.36"/>
<path d="M59.4279 109.801C62.7385 110.58 66.1789 110.969 69.6193 110.969H99.5445V136.091H59.3305V121.258C59.3305 117.818 58.941 114.377 58.162 111.034L57.7725 109.379L59.4279 109.768V109.801ZM97.4349 134.014V113.079H69.6193C66.5684 113.079 63.5174 112.787 60.5638 112.203C61.1481 115.189 61.4402 118.24 61.4402 121.291V134.014H97.4349Z" fill="white" fill-opacity="0.36"/>
<path d="M110.741 58.325C114.085 59.104 117.525 59.5259 120.998 59.5259H135.766V99.8374H110.644V69.8472C110.644 66.3743 110.255 62.9339 109.443 59.5908L109.054 57.9355L110.709 58.325H110.741ZM133.688 97.7277V61.6356H121.03C117.947 61.6356 114.896 61.3435 111.91 60.7268C112.494 63.7129 112.819 66.7638 112.819 69.8472V97.7277H133.721H133.688Z" fill="white" fill-opacity="0.36"/>
<path d="M135.769 48.1338H121.001C112.887 48.1338 105.097 45.1803 99.0599 39.8249L98.995 39.76C98.1187 38.8187 97.1774 37.845 96.1388 36.8713C90.7834 30.8343 87.8623 23.0447 87.8623 14.898V0.0976562H135.834V48.1014L135.769 48.1338ZM89.9071 14.9304C89.9071 22.5254 92.6659 29.8282 97.5994 35.4107C98.6055 36.352 99.5792 37.2932 100.488 38.2994C106.136 43.2978 113.438 46.0566 121.001 46.0566H133.659V2.23981H89.9071V14.9304Z" fill="white" fill-opacity="0.36"/>
<path d="M25.2839 25.4465H0V0.0976562H25.2839V25.414V25.4465ZM2.10969 23.3368H23.1742V2.20735H2.10969V23.3368Z" fill="white" fill-opacity="0.36"/>
<path d="M36.3517 95.9754L36.4491 96.0727C37.5526 97.3061 38.7211 98.4746 39.9544 99.5781L40.0518 99.6755C45.18 105.68 47.9713 113.34 47.9713 121.259V136.092H0V88.0234H14.8328C22.7198 88.0234 30.3472 90.8472 36.3517 95.9754ZM2.1097 133.982H45.894V121.259C45.894 113.859 43.265 106.719 38.5263 101.104C37.293 100 36.0921 98.7991 34.9561 97.5333C29.341 92.7621 22.2005 90.1331 14.8653 90.1331H2.1097V133.982Z" fill="white" fill-opacity="0.36"/>
<path d="M135.768 136.091H110.874V111.164H135.768V136.091ZM112.983 133.981H133.691V113.274H112.983V133.981Z" fill="white" fill-opacity="0.36"/>
<path d="M55.1767 221.096C55.4688 226.711 56.832 232.099 59.2987 237.13L60.6295 239.888L57.8706 238.558C52.8398 236.091 47.452 234.695 41.8694 234.436L39.5 234.306L55.0469 218.727L55.1767 221.096ZM56.2478 235.507C54.6574 231.677 53.6512 227.652 53.2293 223.498L44.2712 232.488C48.3932 232.91 52.4179 233.916 56.2478 235.507ZM78.3509 256.214C83.6089 258.778 89.2564 260.174 95.1311 260.369L97.5654 260.434L81.2071 276.824L81.1422 274.39C80.9475 268.515 79.5518 262.868 76.9877 257.577L75.657 254.819L78.4158 256.182L78.3509 256.214ZM92.6969 262.349C88.3152 261.959 84.0633 260.953 79.9738 259.265C81.6615 263.322 82.6677 267.607 83.0572 271.988L92.6969 262.349Z" fill="white" fill-opacity="0.36"/>
<path d="M72.2166 185.491L72.0867 185.589C68.6463 188.088 65.6278 191.139 63.0962 194.579L15.5793 242.226L15.4495 242.323C12.009 244.855 8.9581 247.873 6.45892 251.346L0 257.838V179.584H78.1237L72.2166 185.491ZM2.1097 252.742L4.80362 250.048C7.43262 246.478 10.5809 243.297 14.1512 240.668L61.4409 193.248C64.0699 189.678 67.2182 186.53 70.7885 183.901L73.0604 181.629H2.1097V252.709V252.742Z" fill="white" fill-opacity="0.36"/>
<path d="M135.767 315.545H58.585L135.767 238.232V315.545ZM133.657 313.435V243.328L63.6482 313.435H133.657Z" fill="white" fill-opacity="0.36"/>
<path d="M412.009 41.5451C412.301 47.1602 413.696 52.5805 416.163 57.6437L417.526 60.4026L414.768 59.0394C409.737 56.5727 404.349 55.177 398.734 54.8849L396.365 54.7551L411.911 39.1758L412.041 41.5451H412.009ZM413.112 55.9884C411.522 52.1585 410.516 48.1014 410.094 43.9469L401.136 52.9375C405.29 53.3594 409.282 54.3656 413.145 55.956L413.112 55.9884ZM435.118 76.631C440.376 79.2276 446.056 80.6232 451.931 80.818L454.365 80.8829L437.974 97.306L437.909 94.8718C437.715 88.9646 436.319 83.3171 433.722 78.0267L432.359 75.2678L435.118 76.631ZM449.529 82.7978C445.115 82.4083 440.83 81.3697 436.773 79.682C438.461 83.7715 439.5 88.0234 439.857 92.4375L449.529 82.7654V82.7978Z" fill="white" fill-opacity="0.36"/>
<path d="M429.015 5.90715L428.885 6.00452C425.445 8.53616 422.426 11.5871 419.927 15.0275L372.378 62.6742L372.248 62.7716C368.808 65.3032 365.789 68.3217 363.257 71.7622L356.799 78.2535V0H434.922L428.983 5.90715H429.015ZM358.941 73.1903L361.635 70.4963C364.231 66.9261 367.38 63.7778 370.95 61.1488L418.272 13.7293C420.868 10.159 424.017 7.01069 427.587 4.38168L429.859 2.1097H358.941V73.1903Z" fill="white" fill-opacity="0.36"/>
<path d="M492.566 136.027H415.416L492.566 58.7148V136.027ZM490.456 133.917V63.8106L420.479 133.917H490.456Z" fill="white" fill-opacity="0.36"/>
<path d="M290.325 193.702C287.209 199.284 287.956 205.938 292.24 211.066C295.453 214.896 300.062 217.071 304.898 217.071C306.716 217.071 308.469 216.779 310.189 216.162C311.195 215.805 312.104 215.383 312.98 214.864L314.57 213.89V281.595L312.526 275.947C309.994 268.937 307.333 262.121 304.574 255.759C302.594 251.15 300.549 246.736 298.569 242.647L298.18 241.77L297.011 239.304C296.914 239.109 296.622 238.622 296.362 238.2L296.265 238.07C294.772 235.117 293.214 232.261 291.688 229.534C289.124 224.146 285.814 216.097 284.807 208.34C283.704 199.804 285.554 193.475 290.325 189.482L294.642 185.912L290.293 193.767L290.325 193.702ZM298.18 237.097C298.699 237.973 298.861 238.233 298.926 238.362L300.484 241.673L300.809 242.42C302.691 246.347 304.606 250.534 306.489 254.883C308.501 259.622 310.513 264.588 312.428 269.683V217.493C311.909 217.72 311.39 217.947 310.838 218.142C308.923 218.823 306.911 219.148 304.866 219.148C299.413 219.148 294.22 216.681 290.585 212.397C288.54 209.93 287.209 207.171 286.625 204.315C286.625 205.484 286.755 206.717 286.917 208.015C287.891 215.48 291.072 223.335 293.571 228.528C295.064 231.222 296.622 234.078 298.115 237.032L298.18 237.129V237.097Z" fill="white" fill-opacity="0.36"/>
<path d="M282.148 181.532C277.085 186.141 274.131 192.243 273.385 199.741L273.158 202.143L271.567 200.325C264.557 192.373 257.156 186.109 249.594 181.662L246.251 179.715H284.161L282.148 181.532ZM271.6 197.242C272.573 191.172 275.04 186.011 278.87 181.825H253.781C259.883 185.849 265.855 191.01 271.6 197.242Z" fill="white" fill-opacity="0.36"/>
<path d="M314.574 191.009L312.724 188.834C310.549 186.27 308.245 183.804 305.908 181.499L304.09 179.682H314.574V190.977V191.009ZM312.464 185.362V181.824H309.154C310.29 182.992 311.393 184.161 312.464 185.362Z" fill="white" fill-opacity="0.36"/>
<path d="M192.34 181.597C187.796 185.037 183.901 189.451 180.753 194.644L178.805 197.89V179.682H194.807L192.307 181.564L192.34 181.597ZM180.915 190.555C183.22 187.277 185.849 184.323 188.737 181.791H180.915V190.555Z" fill="white" fill-opacity="0.36"/>
<path d="M232.944 186.628C245.148 190.361 256.995 199.611 268.16 214.087C272.736 219.994 277.183 226.81 281.435 234.372C283.966 239.63 286.108 243.103 286.368 243.558C288.478 247.712 290.522 252.029 292.47 256.378L293.768 259.299L290.977 257.741C285.881 254.853 280.363 253.392 274.619 253.392C273.483 253.392 272.314 253.457 271.211 253.554C260.338 254.625 252.58 260.403 249.465 269.815C248.491 272.671 248.004 275.852 248.004 279.195C248.004 288.932 252.094 298.994 258.423 304.836C262.123 308.244 266.407 310.062 270.756 310.062C272.963 310.062 275.203 309.607 277.313 308.666C284.843 305.42 289.484 297.858 289.127 289.419C288.802 281.37 284.064 274.878 276.761 272.444L273.807 271.47L270.204 282.246L273.158 283.22C275.949 284.161 277.637 286.595 277.767 289.906C277.897 292.73 276.663 296.592 272.801 298.247C272.119 298.54 271.438 298.702 270.756 298.702C268.874 298.702 267.186 297.501 266.082 296.495C263.648 294.255 261.474 290.425 260.273 286.238C258.974 281.662 258.909 277.086 260.143 273.45C260.987 270.951 262.415 268.939 264.427 267.511C266.439 266.083 269.101 265.206 272.282 264.882C273.028 264.817 273.775 264.784 274.521 264.784C297.079 264.784 308.082 299.481 311.749 314.378L312.074 315.677H178.741V253.424L180.688 256.605C184.875 263.421 190.555 269.036 197.144 272.866C202.759 276.144 208.699 277.8 214.736 277.8C217.397 277.8 220.091 277.475 222.72 276.793C230.445 274.814 237.326 269.913 241.545 263.356C245.797 256.735 247.128 248.945 245.342 241.415C243.395 233.171 237.748 225.544 229.049 219.345L226.517 217.56L219.896 226.81L222.428 228.627C225.803 231.029 228.53 233.658 230.542 236.417C232.36 238.916 233.561 241.513 234.177 244.174C235.248 248.751 234.437 253.392 231.97 257.222C228.303 262.902 221.681 266.44 214.703 266.44C210.679 266.44 206.654 265.304 202.792 263.064C198.053 260.305 194.093 256.573 190.977 251.899C188.089 247.582 186.044 242.584 184.81 237.066C182.538 226.583 183.577 215.093 187.732 205.551C190.685 198.767 194.872 193.477 200.195 189.841C205.485 186.206 211.75 184.389 218.728 184.389C223.174 184.389 227.913 185.135 232.782 186.628H232.944ZM230.347 256.086C232.522 252.71 233.204 248.653 232.262 244.661C231.711 242.292 230.607 239.922 228.984 237.683C227.102 235.119 224.538 232.652 221.357 230.38L217.105 227.329L226.16 214.671L230.38 217.689C239.5 224.181 245.407 232.263 247.485 240.993C249.4 249.108 247.939 257.449 243.395 264.557C238.884 271.568 231.548 276.793 223.304 278.903C220.513 279.617 217.657 279.974 214.801 279.974C208.374 279.974 202.11 278.222 196.138 274.749C190.198 271.308 185.005 266.505 180.883 260.695V313.632H309.412C306.199 301.104 295.456 266.927 274.554 266.927C273.872 266.927 273.19 266.959 272.509 267.024C269.685 267.316 267.381 268.063 265.66 269.263C264.038 270.432 262.837 272.055 262.155 274.132C261.052 277.41 261.117 281.5 262.317 285.687C263.389 289.516 265.336 292.989 267.511 294.969C268.647 296.04 269.815 296.625 270.756 296.625C271.146 296.625 271.535 296.527 271.957 296.332C274.846 295.099 275.755 292.146 275.657 290.003C275.592 288.283 274.976 286.076 272.476 285.232L267.543 283.577L272.444 268.841L277.377 270.497C285.524 273.223 290.815 280.429 291.172 289.354C291.561 298.669 286.433 307.043 278.091 310.646C275.69 311.685 273.19 312.204 270.691 312.204C265.823 312.204 261.052 310.192 256.962 306.427C250.211 300.195 245.862 289.517 245.862 279.228C245.862 275.625 246.381 272.249 247.42 269.166C250.828 258.91 259.202 252.613 270.983 251.477C272.184 251.347 273.385 251.282 274.619 251.282C279.714 251.282 284.648 252.353 289.289 254.496C287.731 251.088 286.141 247.777 284.518 244.564C284.291 244.174 282.116 240.604 279.552 235.314C275.365 227.881 270.951 221.162 266.472 215.353C255.566 201.201 244.077 192.211 232.327 188.608C227.653 187.18 223.142 186.466 218.89 186.466C212.334 186.466 206.492 188.186 201.558 191.562C196.592 194.97 192.633 199.936 189.841 206.362C185.881 215.515 184.843 226.518 187.05 236.579C188.186 241.837 190.166 246.609 192.892 250.698C195.813 255.08 199.546 258.618 203.992 261.214C207.53 263.259 211.198 264.298 214.865 264.298C221.162 264.298 227.102 261.117 230.38 256.021L230.347 256.086Z" fill="white" fill-opacity="0.36"/>
<path d="M69.7823 275.752C69.7823 283.153 67.0884 290.261 62.1549 295.746C61.4084 296.59 60.597 297.401 59.7856 298.115L57.7083 300.16L57.8057 300.29L42.551 315.544H0V273.87L15.06 258.81L22.7523 251.085L22.947 250.923C27.9129 247.515 33.7552 245.697 39.8246 245.697C56.3451 245.697 69.8147 259.167 69.8147 275.72L69.7823 275.752ZM2.1097 274.779V313.467H41.6746L55.0144 300.127L54.917 299.998L58.3899 296.59C59.1689 295.908 59.9154 295.162 60.597 294.383C65.1734 289.254 67.6726 282.666 67.6726 275.785C67.6726 260.4 55.1767 247.872 39.7921 247.872C34.2096 247.872 28.8217 249.527 24.1479 252.708L2.07724 274.811L2.1097 274.779Z" fill="white" fill-opacity="0.36"/>
<path d="M135.769 222.199L120.936 237.064L120.677 236.87L118.762 239.044C118.048 239.856 117.269 240.635 116.425 241.381C110.907 246.315 103.832 249.041 96.4638 249.041C79.9432 249.041 66.4736 235.571 66.4736 219.018C66.4736 212.949 68.2588 207.139 71.6343 202.173L94.1593 179.551H135.769V222.167V222.199ZM73.322 203.407C70.2062 208.015 68.5833 213.403 68.5833 219.018C68.5833 234.403 81.0792 246.931 96.4638 246.931C103.312 246.931 109.933 244.4 115.062 239.791C115.841 239.109 116.555 238.395 117.204 237.649L120.385 234.013L120.742 234.273L133.659 221.323V181.693H95.0357L73.322 203.439V203.407Z" fill="white" fill-opacity="0.36"/>
<path d="M426.583 96.2016C426.583 103.569 423.889 110.645 419.021 116.163C418.242 117.039 417.43 117.85 416.586 118.597L414.639 120.512L414.704 120.609L399.352 135.994H356.833V94.3191L379.65 71.4694L379.813 71.3396C384.779 67.9641 390.588 66.1465 396.625 66.1465C413.146 66.1465 426.616 79.6161 426.616 96.1691L426.583 96.2016ZM358.91 95.1954V133.884H398.475L412.01 120.349L411.945 120.252L415.158 117.071C415.97 116.325 416.716 115.578 417.463 114.767C422.007 109.639 424.506 103.05 424.506 96.2016C424.506 80.817 412.01 68.2886 396.625 68.2886C391.043 68.2886 385.655 69.9439 381.079 73.0598L358.943 95.2279L358.91 95.1954Z" fill="white" fill-opacity="0.36"/>
<path d="M492.568 42.551L475.625 59.5259V59.461L475.268 59.7856C474.619 60.4996 473.937 61.1812 473.223 61.8304C467.706 66.7638 460.63 69.4577 453.262 69.4577C436.742 69.4577 423.272 55.9881 423.272 39.4351C423.272 33.3981 425.057 27.5883 428.433 22.59L436.223 14.7354L436.352 14.6381C436.547 14.5082 436.709 14.3459 436.839 14.2161L450.99 0H492.568V42.551ZM439.371 14.6056L438.365 15.6767C438.137 15.9039 437.91 16.0986 437.683 16.2934L430.153 23.8558C427.037 28.4322 425.414 33.8201 425.414 39.4351C425.414 54.8197 437.91 67.348 453.295 67.348C460.143 67.348 466.732 64.8164 471.86 60.2724C472.509 59.6557 473.158 59.0391 473.743 58.3899L475.755 56.1829L475.885 56.3451L490.49 41.7071V2.1097H451.867L439.403 14.6056H439.371Z" fill="white" fill-opacity="0.36"/>
<path d="M764.847 61.9926C772.279 67.4454 784.84 73.9043 802.302 73.9043H852.221V94.7416H802.627C802.172 94.7416 791.721 94.2548 781.562 88.023C776.531 84.9396 772.312 80.9474 769.099 76.1114C766.567 72.3139 764.587 67.9647 763.192 63.0962L762.348 60.1426L764.814 61.9602L764.847 61.9926ZM850.144 92.6319V76.014H802.335C786.139 76.014 774.065 70.6261 766.178 65.4655C767.411 68.9384 769.001 72.1192 770.884 74.9754C773.935 79.5193 777.895 83.3168 782.698 86.2379C792.37 92.1775 802.335 92.6319 802.692 92.6319H850.144Z" fill="white" fill-opacity="0.36"/>
<path d="M852.219 62.576H802.301C801.879 62.576 801.489 62.576 801.067 62.576L798.601 62.5111L852.219 8.79492V62.576ZM850.11 60.4663V13.8582L803.599 60.4663H850.11Z" fill="white" fill-opacity="0.36"/>
<path d="M740.633 2.66105C736.706 5.2576 733.006 8.27609 729.598 11.5542C725.378 15.6113 721.613 20.0904 718.433 24.894L716.518 27.7827V0.746094H743.554L740.666 2.66105H740.633ZM718.595 20.9667C721.419 17.0719 724.632 13.4043 728.137 10.0288C730.831 7.43221 733.687 5.0304 736.706 2.82333H718.595V20.9667Z" fill="white" fill-opacity="0.36"/>
<path d="M785.165 59.8837L784.548 59.6565C779.29 57.839 774.357 55.1126 769.943 51.5748C763.516 46.4466 760.335 41.3184 759.978 40.7342L749.397 22.1039V43.5579C749.397 57.3521 752.124 69.2313 757.544 78.871C759.849 82.993 762.672 86.758 765.95 90.0686L768.904 93.0547L764.879 91.8213C756.992 89.387 749.657 85.5247 743.133 80.2991C734.11 73.0937 729.923 65.8883 729.858 65.8233L719.732 48.0694L719.862 47.615C728.917 19.6372 754.85 0.812214 784.321 0.812214L787.112 0.714844H844.171L785.132 59.8837H785.165ZM761.763 39.6956C761.893 39.9228 765.009 44.9536 771.241 49.9519C775.298 53.1976 779.809 55.7293 784.613 57.4495L839.141 2.857H787.177L784.353 2.95437C770.754 2.95437 757.966 7.07639 747.32 14.3143L761.731 39.728L761.763 39.6956ZM731.708 64.7847C731.806 64.947 735.928 71.8279 744.464 78.6763C749.69 82.8632 755.467 86.1414 761.634 88.4782C759.394 85.8492 757.414 82.9606 755.694 79.9096C750.111 69.9454 747.288 57.7091 747.288 43.5904V14.3467C735.701 22.2338 726.71 33.8533 722.036 47.8422L731.708 64.7523V64.7847ZM719.277 59.7864V68.6471C719.277 86.2063 722.75 101.331 729.631 113.567C734.402 122.104 740.829 129.244 748.683 134.859L751.377 136.774H716.486V69.491L716.648 65.8233C716.746 63.7786 716.908 61.7013 717.2 59.689L719.277 59.8188V59.7864ZM744.918 134.664C737.94 129.179 732.195 122.461 727.781 114.606C723.302 106.622 720.219 97.4364 718.596 87.2124V134.664H744.918Z" fill="white" fill-opacity="0.36"/>
<path d="M734.209 87.6661C734.761 88.1529 735.313 88.6073 735.897 89.0617C745.667 96.9163 762.317 106.296 786.173 106.296H852.223V136.676H786.692C785.199 136.611 771.632 135.767 758.52 127.783C751.184 123.271 745.18 117.364 740.733 110.191C736.903 104.024 734.145 96.8189 732.489 88.7048L731.873 85.7188L734.177 87.6985L734.209 87.6661ZM850.145 134.566V108.406H786.205C762.22 108.406 745.342 99.1883 735.248 91.2363C736.903 97.89 739.338 103.895 742.551 109.088C746.835 116.001 752.58 121.681 759.623 125.998C772.281 133.722 785.329 134.534 786.725 134.599H850.113L850.145 134.566Z" fill="white" fill-opacity="0.36"/>
<path d="M983.315 63.1282C981.919 67.9642 979.94 72.3459 977.408 76.1434C974.195 80.947 970.008 84.9716 964.944 88.055C954.818 94.2868 944.334 94.7412 943.848 94.7736H894.286V73.9363H944.205C961.699 73.9363 974.227 67.4449 981.66 62.0246L984.127 60.207L983.283 63.1606L983.315 63.1282ZM896.396 92.6315H943.815C944.237 92.6315 954.169 92.1771 963.873 86.2375C968.645 83.3163 972.637 79.5189 975.688 74.9749C977.57 72.1512 979.161 68.9704 980.394 65.465C972.507 70.6257 960.433 76.0135 944.237 76.0135H896.428V92.6315H896.396Z" fill="white" fill-opacity="0.36"/>
<path d="M947.905 62.5123L945.438 62.5772C945.016 62.5772 944.627 62.5772 944.205 62.5772H894.286V8.76367L947.905 62.4798V62.5123ZM942.906 60.4675L896.396 13.8594V60.4675H942.906Z" fill="white" fill-opacity="0.36"/>
<path d="M1030.02 27.8159L1028.1 24.9272C1024.92 20.1236 1021.16 15.6445 1016.94 11.5874C1013.53 8.30929 1009.8 5.2908 1005.9 2.69425L1003.02 0.779297H1030.05V27.8483L1030.02 27.8159ZM1018.4 10.062C1021.91 13.4375 1025.12 17.1051 1027.94 20.9999V2.85654H1009.83C1012.85 5.0636 1015.71 7.46541 1018.4 10.062Z" fill="white" fill-opacity="0.36"/>
<path d="M959.426 0.746094L962.152 0.843464C991.655 0.843464 1017.56 19.636 1026.61 47.6463L1026.74 48.1007L1016.61 65.8546C1016.61 65.8546 1012.36 73.1249 1003.34 80.3304C996.816 85.5559 989.481 89.4183 981.594 91.8525L977.569 93.0859L980.523 90.0999C983.801 86.7893 986.624 83.0243 988.929 78.9023C994.349 69.2626 997.076 57.3833 997.076 43.5892V22.1352L986.495 40.7979C986.138 41.3496 982.957 46.4778 976.53 51.606C972.084 55.1438 967.183 57.8377 961.925 59.6878L961.308 59.915L902.302 0.746094H904.833H959.426ZM961.892 57.4807C966.696 55.728 971.207 53.1964 975.265 49.9832C981.496 44.9848 984.612 39.954 984.742 39.7593L999.185 14.3455C988.539 7.10764 975.719 2.98562 962.087 2.98562L959.393 2.88825H907.397L961.925 57.5132L961.892 57.4807ZM1002.04 78.6751C1010.64 71.7942 1014.76 64.8484 1014.8 64.7835L1024.47 47.841C1019.83 33.8521 1010.84 22.2325 999.218 14.3455V43.5892C999.218 57.7404 996.394 69.9442 990.811 79.9084C989.091 82.9594 987.111 85.8156 984.872 88.477C991.039 86.1401 996.816 82.8295 1002.04 78.6751ZM1029.86 65.7897L1030.02 69.4573V136.74H995.128L997.822 134.825C1005.71 129.21 1012.1 122.037 1016.87 113.534C1023.72 101.297 1027.23 86.1726 1027.23 68.6134V59.7527L1029.31 59.6229C1029.56 61.6352 1029.76 63.7124 1029.86 65.7572V65.7897ZM1027.91 134.663V87.2112C1026.25 97.4351 1023.2 106.62 1018.72 114.605C1014.31 122.459 1008.57 129.21 1001.59 134.663H1027.91Z" fill="white" fill-opacity="0.36"/>
<path d="M1014.02 88.6708C1012.36 96.7526 1009.61 103.99 1005.78 110.157C1001.33 117.33 995.357 123.27 987.989 127.749C974.909 135.733 961.342 136.577 959.784 136.642H894.286V106.262H960.336C984.224 106.262 1000.87 96.8824 1010.64 89.0279C1011.23 88.5735 1011.78 88.1191 1012.33 87.6322L1014.64 85.6523L1014.02 88.6384V88.6708ZM896.396 134.565H959.751C961.212 134.5 974.26 133.689 986.918 125.964C993.993 121.647 999.738 115.935 1003.99 109.054C1007.2 103.861 1009.67 97.8886 1011.29 91.2025C1001.2 99.1544 984.321 108.372 960.336 108.372H896.396V134.532V134.565Z" fill="white" fill-opacity="0.36"/>
<path d="M562.901 67.024C562.901 70.4969 563.291 73.9374 564.07 77.248L564.459 78.9033L562.804 78.5138C559.461 77.7348 556.021 77.3453 552.613 77.3453H537.78V37.4883H562.901V67.0565V67.024ZM539.89 75.2356H552.613C555.631 75.2356 558.682 75.5277 561.668 76.112C561.084 73.1259 560.792 70.1074 560.792 67.024V39.5655H539.89V75.2356Z" fill="white" fill-opacity="0.36"/>
<path d="M625.867 45.6019L625.965 45.6993C626.841 46.673 627.782 47.6143 628.724 48.4581L628.821 48.5555C634.176 54.6574 637.13 62.447 637.13 70.5288V100.292H607.432C599.545 100.292 591.918 97.468 585.913 92.3074L585.816 92.21C584.68 90.9442 583.511 89.8082 582.31 88.7047L582.213 88.6073C577.085 82.6028 574.293 74.9429 574.293 67.0559V37.293H603.959C612.041 37.293 619.83 40.2465 625.9 45.6344L625.867 45.6019ZM576.338 67.0235C576.338 74.3912 578.967 81.5317 583.706 87.1792C584.939 88.2827 586.108 89.4512 587.276 90.7494C592.891 95.5531 600.032 98.1821 607.367 98.1821H634.955V70.5288C634.955 62.9988 632.197 55.696 627.198 49.9836C626.224 49.1073 625.283 48.166 624.374 47.1599C618.694 42.1615 611.392 39.4027 603.862 39.4027H576.273V67.0559L576.338 67.0235Z" fill="white" fill-opacity="0.36"/>
<path d="M614.248 15.5464C614.248 19.0193 614.637 22.4597 615.449 25.8028L615.838 27.4581L614.183 27.0686C610.84 26.2897 607.4 25.8677 603.927 25.8677H574.423V0.746094H614.28V15.5464H614.248ZM576.501 23.758H603.894C606.978 23.758 610.029 24.0501 613.015 24.6668C612.43 21.6808 612.138 18.6298 612.138 15.5464V2.85579H576.501V23.7905V23.758Z" fill="white" fill-opacity="0.36"/>
<path d="M597.208 110.449C600.519 111.228 603.959 111.618 607.4 111.618H637.325V136.739H597.111V121.907C597.111 118.466 596.721 115.026 595.942 111.683L595.553 110.027L597.208 110.417V110.449ZM635.215 134.662V113.727H607.4C604.349 113.727 601.298 113.435 598.344 112.851C598.928 115.837 599.221 118.888 599.221 121.939V134.662H635.215Z" fill="white" fill-opacity="0.36"/>
<path d="M648.521 58.9735C651.864 59.7524 655.305 60.1744 658.778 60.1744H673.545V100.486H648.424V70.4957C648.424 67.0228 648.034 63.5823 647.223 60.2393L646.833 58.584L648.489 58.9735H648.521ZM671.468 98.3761V62.2841H658.778C655.694 62.2841 652.643 61.992 649.657 61.3753C650.241 64.3613 650.566 67.4123 650.566 70.4957V98.3761H671.468Z" fill="white" fill-opacity="0.36"/>
<path d="M673.545 48.7823H658.777C650.695 48.7823 642.873 45.8287 636.836 40.4733L636.771 40.4084C635.895 39.4671 634.954 38.4934 633.883 37.5197C628.527 31.4828 625.606 23.6931 625.606 15.5789V0.746094H673.578V48.7498L673.545 48.7823ZM627.683 15.5789C627.683 23.1738 630.442 30.4766 635.376 36.0592C636.382 37.0004 637.356 37.9741 638.264 38.9478C643.912 43.9462 651.215 46.705 658.777 46.705H671.468V2.88825H627.716V15.5789H627.683Z" fill="white" fill-opacity="0.36"/>
<path d="M563.064 26.0949H537.78V0.746094H563.064V26.0625V26.0949ZM539.89 23.9852H560.954V2.85579H539.89V23.9852Z" fill="white" fill-opacity="0.36"/>
<path d="M574.131 96.6238L574.229 96.7212C575.332 97.9545 576.501 99.1554 577.734 100.227L577.832 100.324C582.96 106.328 585.751 113.988 585.751 121.908V136.741H537.78V88.6719H552.613C560.5 88.6719 568.127 91.4956 574.131 96.6238ZM539.89 134.631H583.674V121.908C583.674 114.508 581.045 107.367 576.306 101.752C575.073 100.648 573.872 99.4476 572.736 98.1817C567.121 93.4106 559.98 90.7816 552.645 90.7816H539.922V134.631H539.89Z" fill="white" fill-opacity="0.36"/>
<path d="M673.543 136.741H648.649V111.814H673.543V136.741ZM650.759 134.632H671.466V113.924H650.759V134.632Z" fill="white" fill-opacity="0.36"/>
<path d="M592.956 221.746C593.248 227.361 594.612 232.748 597.078 237.779L598.409 240.538L595.65 239.175C590.619 236.708 585.232 235.313 579.649 235.053L577.28 234.923L592.826 219.344L592.956 221.713V221.746ZM594.027 236.156C592.437 232.327 591.431 228.302 591.009 224.18L582.051 233.17C586.173 233.592 590.197 234.598 594.027 236.189V236.156ZM616.13 256.864C621.388 259.428 627.036 260.824 632.911 261.018L635.345 261.083L618.987 277.474L618.922 275.04C618.727 269.165 617.331 263.518 614.767 258.227L613.437 255.468L616.195 256.831L616.13 256.864ZM630.476 262.998C626.095 262.609 621.843 261.603 617.753 259.915C619.441 263.972 620.447 268.256 620.837 272.638L630.476 262.998Z" fill="white" fill-opacity="0.36"/>
<path d="M609.996 186.14L609.867 186.237C606.426 188.736 603.408 191.787 600.876 195.228L553.359 242.874L553.229 242.972C549.789 245.503 546.738 248.522 544.239 251.995L537.78 258.486V180.232H615.904L609.996 186.14ZM539.89 253.423L542.583 250.729C545.212 247.159 548.361 243.978 551.931 241.349L599.221 193.929C601.85 190.359 604.998 187.211 608.568 184.582L610.84 182.31H539.89V253.39V253.423Z" fill="white" fill-opacity="0.36"/>
<path d="M673.545 316.195H596.363L673.545 238.883V316.195ZM671.435 314.085V243.979L601.426 314.085H671.435Z" fill="white" fill-opacity="0.36"/>
<path d="M607.562 276.403C607.562 283.803 604.868 290.911 599.935 296.396C599.188 297.24 598.409 298.019 597.565 298.766L595.488 300.81L595.585 300.94L580.331 316.195H537.78V274.52L552.84 259.46L560.532 251.735L560.727 251.573C565.693 248.165 571.535 246.348 577.604 246.348C594.125 246.348 607.595 259.817 607.595 276.37L607.562 276.403ZM539.89 275.429V314.118H579.454L592.794 300.778L592.697 300.648L596.17 297.24C596.949 296.558 597.695 295.812 598.377 295.033C602.953 289.905 605.485 283.316 605.485 276.435C605.485 261.051 592.989 248.522 577.604 248.522C572.022 248.522 566.634 250.178 561.96 253.358L539.89 275.461V275.429Z" fill="white" fill-opacity="0.36"/>
<path d="M673.546 222.848L658.713 237.714L658.453 237.519L656.538 239.693C655.824 240.505 655.045 241.284 654.201 242.03C648.684 246.964 641.608 249.69 634.24 249.69C617.72 249.69 604.25 236.221 604.25 219.668C604.25 213.598 606.035 207.788 609.443 202.758L631.903 180.232H673.513V222.848H673.546ZM611.099 204.056C607.983 208.665 606.36 214.052 606.36 219.668C606.36 235.052 618.856 247.58 634.24 247.58C641.089 247.58 647.71 245.049 652.838 240.44C653.617 239.758 654.331 239.012 654.98 238.298L658.161 234.663L658.518 234.922L671.468 221.972V182.342H632.845L611.131 204.088L611.099 204.056Z" fill="white" fill-opacity="0.36"/>
<path d="M785.456 455.76C785.456 463.128 782.762 470.203 777.893 475.721C777.114 476.597 776.303 477.376 775.459 478.155L773.512 480.07L773.577 480.168L758.225 495.552H715.706V453.878L738.523 431.028L738.686 430.898C743.619 427.523 749.461 425.705 755.498 425.705C772.019 425.705 785.488 439.175 785.488 455.728L785.456 455.76ZM717.783 454.754V493.443H757.348L768.546 482.245L770.85 479.908L770.785 479.811L773.999 476.63C774.81 475.883 775.557 475.137 776.303 474.325C780.847 469.197 783.346 462.609 783.346 455.76C783.346 440.376 770.85 427.847 755.466 427.847C749.883 427.847 744.495 429.502 739.919 432.618L717.783 454.786V454.754Z" fill="white" fill-opacity="0.36"/>
<path d="M851.443 402.108L834.5 419.083V419.018L834.143 419.342C833.494 420.056 832.813 420.738 832.099 421.387C826.581 426.288 819.505 429.014 812.138 429.014C795.617 429.014 782.146 415.545 782.146 398.992C782.146 392.955 783.932 387.145 787.307 382.147L795.065 374.325L795.195 374.227C795.39 374.097 795.552 373.935 795.682 373.805L809.801 359.557H851.378V402.108H851.443ZM798.245 374.162L797.24 375.233C797.013 375.461 796.785 375.655 796.557 375.85L789.028 383.412C785.912 387.989 784.289 393.377 784.289 398.992C784.289 414.376 796.785 426.905 812.169 426.905C819.017 426.905 825.606 424.373 830.734 419.829C831.383 419.212 832 418.596 832.617 417.947L834.63 415.739L834.728 415.902L849.333 401.264V361.666H810.71L798.245 374.162Z" fill="white" fill-opacity="0.36"/>
</svg>
