<svg width="48" height="48" viewBox="0 0 48 48" fill="none" xmlns="http://www.w3.org/2000/svg">
<rect width="48" height="48" rx="24" fill="#D2FAF6"/>
<path d="M21 17C21.5304 17 22.0391 17.2107 22.4142 17.5858C22.7893 17.9609 23 18.4696 23 19V25C23 28.13 21.35 30.193 18.243 30.97C18.1153 31.003 17.9823 31.0103 17.8517 30.9917C17.7211 30.973 17.5955 30.9287 17.4821 30.8613C17.3687 30.7939 17.2697 30.7047 17.1909 30.5989C17.1122 30.4931 17.0551 30.3727 17.023 30.2447C16.991 30.1168 16.9846 29.9837 17.0042 29.8533C17.0237 29.7228 17.0689 29.5975 17.1372 29.4846C17.2054 29.3717 17.2953 29.2734 17.4017 29.1954C17.508 29.1173 17.6288 29.0611 17.757 29.03C19.984 28.473 21 27.203 21 25V24H18C17.4954 24.0002 17.0094 23.8096 16.6395 23.4665C16.2695 23.1234 16.0428 22.6532 16.005 22.15L16 22V19C16 18.4696 16.2107 17.9609 16.5858 17.5858C16.9609 17.2107 17.4696 17 18 17H21ZM30 17C30.5304 17 31.0391 17.2107 31.4142 17.5858C31.7893 17.9609 32 18.4696 32 19V25C32 28.13 30.35 30.193 27.243 30.97C27.1153 31.003 26.9823 31.0103 26.8517 30.9917C26.7211 30.973 26.5955 30.9287 26.4821 30.8613C26.3687 30.7939 26.2697 30.7047 26.1909 30.5989C26.1122 30.4931 26.0551 30.3727 26.023 30.2447C25.991 30.1168 25.9846 29.9837 26.0042 29.8533C26.0237 29.7228 26.0689 29.5975 26.1372 29.4846C26.2054 29.3717 26.2953 29.2734 26.4017 29.1954C26.508 29.1173 26.6288 29.0611 26.757 29.03C28.984 28.473 30 27.203 30 25V24H27C26.4954 24.0002 26.0094 23.8096 25.6395 23.4665C25.2695 23.1234 25.0428 22.6532 25.005 22.15L25 22V19C25 18.4696 25.2107 17.9609 25.5858 17.5858C25.9609 17.2107 26.4696 17 27 17H30Z" fill="#2E655F"/>
</svg>
