<svg width="24" height="24" viewBox="0 0 24 24" fill="none" xmlns="http://www.w3.org/2000/svg">
<path d="M12.0273 0H11.9727C5.36035 0 0 5.36035 0 11.9727V12.0273C0 18.6397 5.36035 24 11.9727 24H12.0273C18.6397 24 24 18.6397 24 12.0273V11.9727C24 5.36035 18.6397 0 12.0273 0Z" fill="#FDFDFD"/>
<path d="M17.8015 8.68243V10.9485C17.4054 10.9098 16.8908 10.8198 16.3216 10.6113C15.5783 10.3389 15.025 9.96639 14.6626 9.67798V14.258L14.6534 14.2437C14.6593 14.3345 14.6626 14.427 14.6626 14.5204C14.6626 16.7948 12.8119 18.6463 10.5366 18.6463C8.26133 18.6463 6.41064 16.7948 6.41064 14.5204C6.41064 12.2459 8.26133 10.3935 10.5366 10.3935C10.7595 10.3935 10.9781 10.4112 11.1916 10.4457V12.6789C10.9865 12.6058 10.7662 12.5663 10.5366 12.5663C9.45952 12.5663 8.58253 13.4424 8.58253 14.5204C8.58253 15.5983 9.45952 16.4745 10.5366 16.4745C11.6137 16.4745 12.4907 15.5975 12.4907 14.5204C12.4907 14.48 12.4899 14.4396 12.4874 14.3993V5.49902H14.7517C14.7602 5.69073 14.7677 5.88413 14.7761 6.07584C14.7913 6.45338 14.9258 6.81577 15.1604 7.11259C15.4353 7.46154 15.8415 7.86682 16.4116 8.19054C16.9455 8.4924 17.4466 8.62273 17.8015 8.68411V8.68243Z" fill="#E60283"/>
</svg>
